<?xml version="1.0" encoding="UTF-8" standalone="no"?>
<!-- Created with Inkscape (http://www.inkscape.org/) -->

<svg
   width="200.09441mm"
   height="170.90086mm"
   viewBox="0 0 200.09441 170.90086"
   version="1.1"
   id="svg1"
   inkscape:version="1.3.2 (091e20e, 2023-11-25, custom)"
   sodipodi:docname="owl.svg"
   xml:space="preserve"
   xmlns:inkscape="http://www.inkscape.org/namespaces/inkscape"
   xmlns:sodipodi="http://sodipodi.sourceforge.net/DTD/sodipodi-0.dtd"
   xmlns="http://www.w3.org/2000/svg"
   xmlns:svg="http://www.w3.org/2000/svg"><sodipodi:namedview
     id="namedview1"
     pagecolor="#ffffff"
     bordercolor="#000000"
     borderopacity="0.25"
     inkscape:showpageshadow="2"
     inkscape:pageopacity="0.0"
     inkscape:pagecheckerboard="0"
     inkscape:deskcolor="#d1d1d1"
     inkscape:document-units="mm"
     inkscape:zoom="0.50000001"
     inkscape:cx="468.99999"
     inkscape:cy="662.99998"
     inkscape:window-width="1920"
     inkscape:window-height="932"
     inkscape:window-x="0"
     inkscape:window-y="30"
     inkscape:window-maximized="1"
     inkscape:current-layer="layer1"
     showgrid="false"><inkscape:page
       x="0"
       y="0"
       width="200.09441"
       height="170.90086"
       id="page1"
       margin="0"
       bleed="0" /></sodipodi:namedview><defs
     id="defs1"><clipPath
       clipPathUnits="userSpaceOnUse"
       id="clipPath109"><path
         id="path110"
         style="fill:#000000;stroke:none;stroke-width:0.499996;stroke-linecap:round;stroke-dasharray:none;stroke-opacity:1;paint-order:fill markers stroke"
         d="m -14.6237,266.62418 c -0.719803,2.73233 -1.439609,5.46468 -2.159409,8.19701 3.059367,-0.86367 6.118393,-1.72819 9.1767644,-2.59434 -2.2706055,-2.12661 -4.5406004,-4.25391 -6.8129354,-6.37864 -0.06814,0.25865 -0.136281,0.51731 -0.20442,0.77597 z" /></clipPath></defs><g
     inkscape:label="Layer 1"
     inkscape:groupmode="layer"
     id="layer1"
     transform="translate(-3.2971437,-65.356704)"><g
       id="g36"
       transform="matrix(-1,0,0,1,226.38363,1.0583333)"
       inkscape:export-filename="../The only way is through/Design/The only way is through\Design\Dad.svg"
       inkscape:export-xdpi="96"
       inkscape:export-ydpi="96"><path
         id="path34"
         style="opacity:1;fill:#552200;stroke:none;stroke-width:5.29298;stroke-linecap:round;paint-order:fill markers stroke"
         d="m 74.095703,213.31641 c 0.08029,0.96849 -0.07754,1.90494 -0.384765,2.82226 -0.329422,1.30684 -0.521684,2.75041 -1.382813,3.83399 -0.602958,0.48022 -1.390609,-0.063 -2.060547,-0.11328 -1.270603,-0.44066 -2.632882,-0.92411 -3.979235,-0.4849 -2.177066,0.63243 -4.342012,1.79056 -5.670262,3.68247 -0.947521,1.47838 -1.589387,3.12192 -2.493593,4.62571 -0.820884,1.39099 -1.231313,2.96321 -1.384895,4.56146 0.04325,0.36928 -0.366809,1.38704 0.02194,1.28506 1.906667,-0.82579 3.750811,-1.88322 5.799011,-2.31824 -0.404284,1.29352 -0.403125,2.65041 -0.304688,3.98828 3.523006,-1.65558 7.079179,-3.38196 10.951988,-4.03917 3.369388,-0.63798 6.701226,-1.63355 10.091226,-1.66731 1.261529,-0.0942 2.526995,0.10931 3.667777,0.66304 0.384407,-0.0129 1.505892,0.74623 1.309409,0.12559 -0.54573,-2.01438 -0.915463,-4.22579 -2.440321,-5.77551 -0.869756,-1.11065 -2.064027,-1.92755 -3.426659,-2.29961 -0.972005,-0.31065 -2.218413,-0.80645 -2.245973,-2.01 -0.152414,-1.63606 0.319731,-3.24935 0.774194,-4.80367 -2.280034,-0.95903 -4.561501,-1.91465 -6.841797,-2.87305 0,0.26563 0,0.53125 0,0.79688 z" /><path
         style="opacity:1;fill:#ff7f2a;stroke:none;stroke-width:5.29298;stroke-linecap:round;paint-order:fill markers stroke"
         d="m 80.296936,215.69756 c 0,0 -1.264423,3.87793 -0.39572,5.49641 0.76404,1.42348 2.927723,1.41366 4.22112,2.38174 0.490971,0.36748 0.918535,0.81814 1.31909,1.28252 0.393207,0.45586 0.773708,0.93356 1.05528,1.46567 0.477531,0.90243 1.111093,3.4724 1.111093,3.4724 l -0.583453,-0.17454 c 0,0 -1.032157,-0.45673 -1.58292,-0.54963 -1.300723,-0.2194 -2.641332,-0.0909 -3.95729,0 -0.885728,0.0612 -1.763805,0.21246 -2.6382,0.36639 -1.151324,0.20268 -2.2871,0.4855 -3.42966,0.73285 -1.671835,0.36194 -3.366301,0.63471 -5.01257,1.09928 -1.075098,0.30339 -2.126884,0.68884 -3.16584,1.09927 -1.118804,0.44197 -2.202281,0.96874 -3.29775,1.46574 -0.397121,0.18017 -1.18718,0.54963 -1.18718,0.54963 0,0 -0.05315,-0.98003 0,-1.46569 0.08846,-0.80835 0.52763,-2.38178 0.52763,-2.38178 0,0 -1.156495,0.19344 -1.71482,0.36643 -1.226277,0.37995 -2.385222,0.95157 -3.56158,1.46567 -0.266398,0.11642 -0.79146,0.36646 -0.79146,0.36646 0,0 0.213018,-1.98974 0.52765,-2.9314 0.43345,-1.29728 1.84673,-3.66426 1.84673,-3.66426 0,0 1.021248,-2.34604 1.84675,-3.29783 0.72508,-0.836 1.657257,-1.50311 2.63819,-2.01537 1.064143,-0.55572 2.229955,-1.05537 3.42966,-1.09928 1.039696,-0.038 2.00883,0.55507 3.03392,0.73285 0.566408,0.0982 1.169195,0.36418 1.71483,0.18321 0.341264,-0.11319 0.597877,-0.42985 0.79147,-0.73282 0.691322,-1.08192 1.18718,-3.66428 1.18718,-3.66428 l 0.39573,-1.4657 v -1.4657 z"
         id="path35"
         sodipodi:nodetypes="cssssccssssssscscsscacsssssscccc" /><path
         style="opacity:1;fill:none;stroke:#552200;stroke-width:0.293;stroke-linecap:round;stroke-dasharray:none;stroke-opacity:1;paint-order:fill markers stroke"
         d="m 63.093855,230.66009 c 0,0 0.248122,-0.85795 0.398234,-1.27821 0.229767,-0.64327 0.385867,-1.48544 0.767888,-1.89991 0.486368,-0.52768 1.303298,-0.60158 1.962604,-0.88498 0.6442,-0.27691 1.946961,-0.79649 1.946961,-0.79649 v 0"
         id="path36"
         sodipodi:nodetypes="casscc" /></g><g
       id="g34"
       transform="translate(25.4,1.0583333)"><path
         id="path33"
         style="opacity:1;fill:#552200;stroke:none;stroke-width:5.29298;stroke-linecap:round;paint-order:fill markers stroke"
         d="m 74.095703,213.31641 c 0.08029,0.96849 -0.07754,1.90494 -0.384765,2.82226 -0.329422,1.30684 -0.521684,2.75041 -1.382813,3.83399 -0.602958,0.48022 -1.390609,-0.063 -2.060547,-0.11328 -1.270603,-0.44066 -2.632882,-0.92411 -3.979235,-0.4849 -2.177066,0.63243 -4.342012,1.79056 -5.670262,3.68247 -0.947521,1.47838 -1.589387,3.12192 -2.493593,4.62571 -0.820884,1.39099 -1.231313,2.96321 -1.384895,4.56146 0.04325,0.36928 -0.366809,1.38704 0.02194,1.28506 1.906667,-0.82579 3.750811,-1.88322 5.799011,-2.31824 -0.404284,1.29352 -0.403125,2.65041 -0.304688,3.98828 3.523006,-1.65558 7.079179,-3.38196 10.951988,-4.03917 3.369388,-0.63798 6.701226,-1.63355 10.091226,-1.66731 1.261529,-0.0942 2.526995,0.10931 3.667777,0.66304 0.384407,-0.0129 1.505892,0.74623 1.309409,0.12559 -0.54573,-2.01438 -0.915463,-4.22579 -2.440321,-5.77551 -0.869756,-1.11065 -2.064027,-1.92755 -3.426659,-2.29961 -0.972005,-0.31065 -2.218413,-0.80645 -2.245973,-2.01 -0.152414,-1.63606 0.319731,-3.24935 0.774194,-4.80367 -2.280034,-0.95903 -4.561501,-1.91465 -6.841797,-2.87305 0,0.26563 0,0.53125 0,0.79688 z" /><path
         style="opacity:1;fill:#ff7f2a;stroke:none;stroke-width:5.29298;stroke-linecap:round;paint-order:fill markers stroke"
         d="m 80.296936,215.69756 c 0,0 -1.264423,3.87793 -0.39572,5.49641 0.76404,1.42348 2.927723,1.41366 4.22112,2.38174 0.490971,0.36748 0.918535,0.81814 1.31909,1.28252 0.393207,0.45586 0.773708,0.93356 1.05528,1.46567 0.477531,0.90243 1.111093,3.4724 1.111093,3.4724 l -0.583453,-0.17454 c 0,0 -1.032157,-0.45673 -1.58292,-0.54963 -1.300723,-0.2194 -2.641332,-0.0909 -3.95729,0 -0.885728,0.0612 -1.763805,0.21246 -2.6382,0.36639 -1.151324,0.20268 -2.2871,0.4855 -3.42966,0.73285 -1.671835,0.36194 -3.366301,0.63471 -5.01257,1.09928 -1.075098,0.30339 -2.126884,0.68884 -3.16584,1.09927 -1.118804,0.44197 -2.202281,0.96874 -3.29775,1.46574 -0.397121,0.18017 -1.18718,0.54963 -1.18718,0.54963 0,0 -0.05315,-0.98003 0,-1.46569 0.08846,-0.80835 0.52763,-2.38178 0.52763,-2.38178 0,0 -1.156495,0.19344 -1.71482,0.36643 -1.226277,0.37995 -2.385222,0.95157 -3.56158,1.46567 -0.266398,0.11642 -0.79146,0.36646 -0.79146,0.36646 0,0 0.213018,-1.98974 0.52765,-2.9314 0.43345,-1.29728 1.84673,-3.66426 1.84673,-3.66426 0,0 1.021248,-2.34604 1.84675,-3.29783 0.72508,-0.836 1.657257,-1.50311 2.63819,-2.01537 1.064143,-0.55572 2.229955,-1.05537 3.42966,-1.09928 1.039696,-0.038 2.00883,0.55507 3.03392,0.73285 0.566408,0.0982 1.169195,0.36418 1.71483,0.18321 0.341264,-0.11319 0.597877,-0.42985 0.79147,-0.73282 0.691322,-1.08192 1.18718,-3.66428 1.18718,-3.66428 l 0.39573,-1.4657 v -1.4657 z"
         id="path20"
         sodipodi:nodetypes="cssssccssssssscscsscacsssssscccc" /><path
         style="opacity:1;fill:none;stroke:#552200;stroke-width:0.293;stroke-linecap:round;stroke-dasharray:none;stroke-opacity:1;paint-order:fill markers stroke"
         d="m 63.093855,230.66009 c 0,0 0.248122,-0.85795 0.398234,-1.27821 0.229767,-0.64327 0.385867,-1.48544 0.767888,-1.89991 0.486368,-0.52768 1.303298,-0.60158 1.962604,-0.88498 0.6442,-0.27691 1.946961,-0.79649 1.946961,-0.79649 v 0"
         id="path31"
         sodipodi:nodetypes="casscc" /></g><path
       id="path26"
       style="fill:#552200;stroke-width:5.29299;stroke-linecap:round;paint-order:fill markers stroke"
       d="m 151.96641,65.361067 c -1.34443,0.488015 -1.9139,1.95331 -2.72247,3.021301 -2.18923,3.352652 -4.17868,6.828714 -6.15644,10.308777 -8.15024,-2.98088 -17.08052,-3.560674 -25.62483,-2.23559 -3.00331,0.488399 -5.97414,1.218277 -8.81853,2.305903 -2.58193,-4.275633 -5.07603,-8.629125 -8.12054,-12.598695 -0.47506,-0.725408 -1.610478,-1.139786 -2.251225,-0.385733 -1.817635,2.000587 -3.062973,4.420332 -4.494242,6.693866 -3.513034,5.891075 -6.889692,11.874564 -9.853499,18.062757 -0.439087,1.18211 -1.02391,2.292677 -1.770739,3.311549 -4.60773,7.223148 -7.544024,15.367528 -9.818155,23.585878 -2.761705,10.1772 -4.367153,20.71622 -4.172538,31.27919 0.104124,10.10164 0.596487,20.26241 2.643233,30.17811 1.539782,7.03449 3.78354,14.15119 8.277665,19.898 1.764254,2.29213 3.9643,4.20791 6.34715,5.83054 0.799251,1.48398 1.47256,3.07974 2.348223,4.54225 2.1429,3.70786 4.792666,7.25167 8.315839,9.75268 2.115352,1.48019 4.851638,2.32221 7.391438,1.52266 3.52734,-0.90682 6.61649,-3.01331 9.32996,-5.37306 0.37143,-0.63592 1.11123,-0.12272 1.67235,-0.11149 7.41518,1.28159 15.09792,1.03201 22.40508,-0.77444 3.18937,3.06356 7.04395,5.71041 11.46289,6.52148 3.02706,0.36778 5.86779,-1.25509 8.02611,-3.23188 3.80917,-3.3829 6.43869,-7.85705 8.61855,-12.4061 0.80628,-0.6981 1.80915,-1.22966 2.62515,-1.95551 3.95525,-3.14529 6.84221,-7.44662 8.80083,-12.0703 3.29658,-7.58604 4.67443,-15.83606 5.52158,-24.01329 0.78515,-8.06198 0.97963,-16.17585 0.8158,-24.27137 -0.47412,-11.51408 -2.55055,-22.96837 -6.13935,-33.91578 -1.94907,-5.8554 -4.42455,-11.590292 -7.93859,-16.688499 -1.0049,-2.866756 -2.64666,-5.450796 -4.07698,-8.115953 -3.37195,-5.936789 -6.83098,-11.846306 -10.77849,-17.421157 -0.46605,-0.547082 -1.07434,-1.31529 -1.86523,-1.246094 z" /><g
       id="g25"
       transform="translate(25.4,1.0583333)"><path
         id="path25"
         style="opacity:1;fill:#552200;stroke:none;stroke-width:5.29299;stroke-linecap:round;stroke-opacity:1;paint-order:fill markers stroke"
         sodipodi:type="inkscape:offset"
         inkscape:radius="0"
         inkscape:original="M -20.324219 120.01562 C -21.693342 120.00862 -22.340927 121.6143 -22.023438 122.78125 C -21.700055 124.46503 -20.800048 125.97159 -19.953125 127.4375 C -17.936199 130.51602 -15.498634 133.29446 -13.240234 136.16797 C -12.028394 137.58979 -10.814326 139.00977 -9.5957031 140.42578 C -12.278044 140.36078 -14.812163 138.70046 -17.523438 139.3418 C -18.597856 139.55105 -19.630151 140.38752 -19.589844 141.56445 C -19.517044 143.42869 -18.283462 144.98723 -17.234375 146.4375 C -15.828171 148.23792 -14.254304 149.91726 -12.386719 151.24609 C -10.48151 152.7642 -8.3796248 154.05031 -6.6171875 155.73828 C -6.0428624 156.1834 -7.3036549 156.13203 -7.578125 156.35547 C -9.5764597 157.0466 -11.890585 157.52841 -13.21875 159.32812 C -14.186561 160.68908 -13.5317 162.51515 -12.691406 163.76758 C -11.717746 165.2734 -9.9634301 165.88779 -8.4492188 166.68555 C -5.4416293 168.04782 -2.3016708 169.02583 0.74414062 170.28711 C 2.2184872 170.91474 4.080231 170.5783 5.3144531 171.7168 C 4.4597848 172.37442 3.5039383 172.94213 2.8066406 173.79492 C 1.8483955 174.87808 0.75435896 175.85664 -0.048828125 177.06445 C -0.5814789 177.87007 -0.34667504 178.87566 0.20507812 179.60352 C 1.5982261 181.48596 3.6534728 182.98847 5.9980469 183.38672 C 8.5822237 183.6923 11.199917 183.654 13.800781 183.66211 C 16.383894 183.64741 18.967527 183.57046 21.550781 183.60156 C 21.271548 184.87044 21.302161 186.60444 22.621094 187.28125 C 24.616056 188.2311 26.858075 187.37686 28.808594 186.73047 C 31.625951 185.71872 34.454717 184.74072 37.328125 183.89844 C 39.979838 183.10351 42.530638 181.96636 44.814453 180.39258 C 47.04999 179.04861 49.403788 177.91912 51.6875 176.66211 C 51.527175 165.94138 51.363911 155.22069 51.201172 144.5 C 49.681745 143.08522 48.163449 141.66923 46.644531 140.25391 C 43.720801 141.21184 40.75526 142.36037 37.640625 142.38672 C 33.916468 142.19505 30.317342 141.08018 26.769531 140.00781 C 20.559889 137.98371 14.497051 135.54738 8.3378906 133.38086 C 4.7418444 132.12739 1.3804066 130.31631 -2.0976562 128.7832 C -6.4164388 126.86074 -10.398659 124.2892 -14.558594 122.06055 C -16.336581 121.08102 -18.226797 119.97546 -20.324219 120.01562 z "
         d="m -20.324219,120.01562 c -1.369123,-0.007 -2.016708,1.59868 -1.699219,2.76563 0.323383,1.68378 1.22339,3.19034 2.070313,4.65625 2.016926,3.07852 4.454491,5.85696 6.712891,8.73047 1.21184,1.42182 2.425908,2.8418 3.6445309,4.25781 -2.6823409,-0.065 -5.2164599,-1.72532 -7.9277349,-1.08398 -1.074418,0.20925 -2.106713,1.04572 -2.066406,2.22265 0.0728,1.86424 1.306382,3.42278 2.355469,4.87305 1.406204,1.80042 2.980071,3.47976 4.847656,4.80859 1.905209,1.51811 4.0070942,2.80422 5.7695315,4.49219 0.5743251,0.44512 -0.6864674,0.39375 -0.9609375,0.61719 -1.9983347,0.69113 -4.31246,1.17294 -5.640625,2.97265 -0.967811,1.36096 -0.31295,3.18703 0.527344,4.43946 0.97366,1.50582 2.7279759,2.12021 4.2421872,2.91797 3.0075895,1.36227 6.147548,2.34028 9.19335942,3.60156 1.47434658,0.62763 3.33609038,0.29119 4.57031248,1.42969 -0.8546683,0.65762 -1.8105148,1.22533 -2.5078125,2.07812 -0.9582451,1.08316 -2.05228164,2.06172 -2.85546872,3.26953 -0.53265078,0.80562 -0.29784692,1.81121 0.25390624,2.53907 1.39314798,1.88244 3.44839468,3.38495 5.79296878,3.7832 2.5841768,0.30558 5.2018701,0.26728 7.8027341,0.27539 2.583113,-0.0147 5.166746,-0.0917 7.75,-0.0606 -0.279233,1.26888 -0.24862,3.00288 1.070313,3.67969 1.994962,0.94985 4.236981,0.0956 6.1875,-0.55078 2.817357,-1.01175 5.646123,-1.98975 8.519531,-2.83203 2.651713,-0.79493 5.202513,-1.93208 7.486328,-3.50586 2.235537,-1.34397 4.589335,-2.47346 6.873047,-3.73047 -0.160325,-10.72073 -0.323589,-21.44142 -0.486328,-32.16211 -1.519427,-1.41478 -3.037723,-2.83077 -4.556641,-4.24609 -2.92373,0.95793 -5.889271,2.10646 -9.003906,2.13281 -3.724157,-0.19167 -7.323283,-1.30654 -10.871094,-2.37891 -6.209642,-2.0241 -12.27248,-4.46043 -18.4316404,-6.62695 -3.5960462,-1.25347 -6.957484,-3.06455 -10.4355468,-4.59766 -4.3187826,-1.92246 -8.3010028,-4.494 -12.4609378,-6.72265 -1.777987,-0.97953 -3.668203,-2.08509 -5.765625,-2.04493 z" /><path
         id="path21"
         style="opacity:1;fill:#aa4400;stroke:none;stroke-width:5.29299;stroke-linecap:round;stroke-opacity:1;paint-order:fill markers stroke"
         sodipodi:type="inkscape:offset"
         inkscape:radius="0"
         inkscape:original="M -20.214844 121.06641 C -20.467213 121.08121 -20.792569 121.18453 -20.884766 121.41992 C -21.401367 122.73885 -20.368908 124.31573 -19.783203 125.60547 C -19.115996 127.07467 -17.09375 129.64258 -17.09375 129.64258 L -12.888672 134.94727 L -8.1835938 140.45898 L -7.2421875 141.46094 C -7.2421875 141.46094 -9.1269054 141.51174 -10.066406 141.46094 C -12.706512 141.31823 -15.550646 139.49732 -17.951172 140.60547 C -18.264239 140.74999 -18.505836 141.11721 -18.533203 141.46094 C -18.65035 142.93229 -16.652344 145.46875 -16.652344 145.46875 C -16.652344 145.46875 -14.868225 147.72695 -13.828125 148.71289 C -12.727498 149.75621 -10.242188 151.51172 -10.242188 151.51172 L -6.4472656 154.40039 L -4.4199219 156.49219 L -7.7128906 157.49414 L -10.535156 158.49609 C -10.535156 158.49609 -12.326722 159.44574 -12.566406 160.32422 C -12.862009 161.40765 -12.230526 162.64168 -11.552734 163.53711 C -10.925806 164.36534 -9.8382642 164.72115 -8.9472656 165.24609 C -7.2469026 166.24787 -3.4785156 167.51562 -3.4785156 167.51562 L 1.6953125 169.51953 C 1.6953125 169.51953 6.0499485 169.85536 6.4003906 171.52344 C 6.6358959 172.64443 4.7704468 173.14131 4.046875 174.0293 C 3.5307439 174.66271 2.5735874 175.46938 1.9472656 176.2832 C 1.4657643 176.90884 0.62423708 177.50002 0.68554688 178.28711 C 1.2638442 179.77935 3.5081181 181.51593 4.9882812 182.04492 C 6.3219231 182.53593 7.803961 182.46322 9.2226562 182.54688 C 11.883849 182.7038 17.220703 182.54688 17.220703 182.54688 L 22.865234 182.54688 C 22.865234 182.54688 22.076526 185.09217 22.744141 186.05273 C 23.099045 186.56336 23.89315 186.6019 24.513672 186.64258 C 25.548739 186.71038 27.570313 186.05273 27.570312 186.05273 L 33.214844 184.04883 C 33.214844 184.04883 38.33259 182.61199 40.742188 181.51562 C 42.230474 180.83846 44.976563 179.03906 44.976562 179.03906 L 47.798828 177.53516 L 50.621094 176.0332 L 50.150391 144.96875 L 46.386719 141.46094 C 46.386719 141.46094 40.820367 143.49543 37.919922 143.46484 C 31.926649 143.40164 20.513672 138.95508 20.513672 138.95508 L 5.4589844 133.44531 L -5.3613281 128.43359 L -14.648438 123.2168 C -14.648438 123.2168 -18.229134 120.95029 -20.214844 121.06641 z "
         d="m -20.214844,121.06641 c -0.252369,0.0148 -0.577725,0.11812 -0.669922,0.35351 -0.516601,1.31893 0.515858,2.89581 1.101563,4.18555 0.667207,1.4692 2.689453,4.03711 2.689453,4.03711 l 4.205078,5.30469 4.7050782,5.51171 0.9414063,1.00196 c 0,0 -1.8847179,0.0508 -2.8242185,0 -2.640106,-0.14271 -5.48424,-1.96362 -7.884766,-0.85547 -0.313067,0.14452 -0.554664,0.51174 -0.582031,0.85547 -0.117147,1.47135 1.880859,4.00781 1.880859,4.00781 0,0 1.784119,2.2582 2.824219,3.24414 1.100627,1.04332 3.585937,2.79883 3.585937,2.79883 l 3.7949224,2.88867 2.0273437,2.0918 -3.2929687,1.00195 -2.8222654,1.00195 c 0,0 -1.791566,0.94965 -2.03125,1.82813 -0.295603,1.08343 0.33588,2.31746 1.013672,3.21289 0.626928,0.82823 1.7144698,1.18404 2.6054684,1.70898 1.700363,1.00178 5.46875,2.26953 5.46875,2.26953 l 5.1738281,2.00391 c 0,0 4.354636,0.33583 4.7050781,2.00391 0.2355053,1.12099 -1.6299438,1.61787 -2.3535156,2.50586 -0.5161311,0.63341 -1.4732876,1.44008 -2.0996094,2.2539 -0.4815013,0.62564 -1.32302852,1.21682 -1.26171872,2.00391 0.57829732,1.49224 2.82257122,3.22882 4.30273432,3.75781 1.3336419,0.49101 2.8156798,0.4183 4.234375,0.50196 2.6611928,0.15692 7.9980468,0 7.9980468,0 h 5.644531 c 0,0 -0.788708,2.54529 -0.121093,3.50585 0.354904,0.51063 1.149009,0.54917 1.769531,0.58985 1.035067,0.0678 3.056641,-0.58985 3.05664,-0.58985 l 5.644532,-2.0039 c 0,0 5.117746,-1.43684 7.527344,-2.53321 1.488286,-0.67716 4.234375,-2.47656 4.234374,-2.47656 l 2.822266,-1.5039 2.822266,-1.50196 -0.470703,-31.06445 -3.763672,-3.50781 c 0,0 -5.566352,2.03449 -8.466797,2.0039 -5.993273,-0.0632 -17.40625,-4.50976 -17.40625,-4.50976 L 5.4589844,133.44531 -5.3613281,128.43359 -14.648438,123.2168 c 0,0 -3.580696,-2.26651 -5.566406,-2.15039 z" /></g><path
       id="path3"
       style="fill:#aa4400;stroke-width:5.29299;stroke-linecap:round;paint-order:fill markers stroke"
       d="m 99.196012,66.416101 c -1.154274,0.01231 -14.031834,22.761318 -14.980481,26.24956 -9.075896,12.677669 -15.00632,36.663159 -15.006319,53.410169 2e-6,17.93766 1.300058,41.25725 11.485604,53.01227 1.658961,1.91459 3.57304,3.49501 5.649784,4.84519 3.568162,8.30774 9.910528,16.11632 15.3572,15.74632 3.10003,-0.21058 7.58568,-2.65073 11.16418,-6.1035 a 31.747995,17.789253 0 0 0 10.96987,1.13016 31.747995,17.789253 0 0 0 13.38006,-1.69447 c 3.6607,3.75169 8.47134,6.44585 11.73882,6.66781 5.37909,0.3654 11.63242,-7.24607 15.22388,-15.4373 2.26187,-1.4103 4.33075,-3.09577 6.11435,-5.15421 10.18555,-11.75502 11.48613,-35.07461 11.48613,-53.01227 0,-16.77255 -5.07243,-40.80876 -14.05806,-53.471147 -0.27483,-2.368066 -14.41096,-26.201258 -15.59957,-26.188582 -0.63194,0.0067 -4.77556,6.829536 -8.55555,13.576949 a 29.912397,16.460667 0 0 0 -17.62528,-3.161564 29.912397,16.460667 0 0 0 -17.75085,3.232361 c -3.96321,-6.74811 -8.353686,-13.654572 -8.993768,-13.647746 z" /><path
       id="path96"
       style="fill:#483737;stroke:none;stroke-width:0.5;stroke-linecap:round;stroke-dasharray:none;stroke-opacity:1;paint-order:fill markers stroke"
       d="m 109.8317,94.261719 c -6.22036,0.0848 -11.915878,4.736269 -13.708446,10.578051 -0.513587,1.53013 -0.777247,3.07797 -0.827837,4.63165 -0.227087,5.62642 2.517728,11.42874 7.411283,14.36256 3.53631,2.14465 7.98953,2.74559 11.83985,1.4043 1.89762,-0.6334 3.87186,-1.78811 5.38085,-3.24957 1.16849,-1.09346 2.20485,-2.43238 3.02345,-3.90473 0.93787,-1.67102 1.62303,-3.727 1.86462,-5.6346 0.76486,-5.13306 -1.07305,-10.62259 -4.79224,-14.170535 -1.29539,-1.2446 -2.81661,-2.21325 -4.3844,-2.878067 -1.82828,-0.775128 -3.82015,-1.177644 -5.80713,-1.139059 z" /><path
       id="path51"
       style="fill:#552200;stroke:none;stroke-width:0.13;stroke-dasharray:none;stroke-opacity:1"
       d="m 127.60898,150.86106 c -1.29556,0.0209 -2.72024,0.20195 -3.88867,0.92579 -0.41388,0.0904 -0.89029,-0.32625 -1.3579,-0.34147 -1.96241,-0.43121 -4.15574,0.0977 -5.6128,1.50553 -1.92123,-0.34817 -4.03151,0.23793 -5.4043,1.65039 -2.36982,-0.35167 -5.11122,0.76454 -6.05469,3.07617 -2.61398,0.0805 -5.38636,1.68843 -6.007808,4.36719 -0.04861,0.45927 0.06637,0.95467 -0.486328,1.10075 -1.753258,1.10425 -2.860638,3.39844 -2.125,5.42269 -1.526326,1.07203 -2.209512,3.17037 -1.724609,4.92773 -1.601337,1.49674 -1.879421,4.25735 -0.501953,5.93359 -2.028647,1.58393 -2.036311,4.97889 -0.111824,6.65412 0.538274,0.22906 0.187304,0.64677 0.109687,1.06326 -0.481796,2.18968 0.911108,4.42471 2.882996,5.34122 0.333894,0.16843 0.678033,0.3181 1.035157,0.42969 -0.840195,2.14089 0.333396,4.65675 2.301702,5.71689 0.38428,0.22448 0.86449,0.31881 0.70127,0.87778 0.29693,2.58416 2.77208,4.37631 5.22446,4.68587 0.52317,0.10896 1.13254,0.0632 1.61436,0.11789 0.81538,2.738 3.85677,4.17623 6.55819,4.04716 0.81489,-0.0287 1.62687,-0.1764 2.39494,-0.45145 2.36109,2.39263 6.4183,2.6397 9.19336,0.83203 2.74532,1.51794 6.51747,1.17591 8.75586,-1.09571 2.98778,1.10459 6.88476,0.23564 8.55591,-2.63259 0.22156,-0.37992 0.36516,-0.82337 0.47534,-1.23069 2.7803,0.32351 5.99531,-0.95224 7.05359,-3.70212 0.29209,-0.80555 0.34487,-1.70151 0.13196,-2.53225 2.17011,-0.7021 4.05284,-2.76586 3.87109,-5.15039 -0.15217,-0.52818 -0.15329,-0.87939 0.38867,-1.15625 1.62231,-1.45705 2.09854,-4.11413 0.76926,-5.91792 -0.38853,-0.36431 -0.33121,-0.65464 0.0432,-1.02154 0.8584,-1.33551 0.98415,-3.14327 0.21484,-4.54687 1.66227,-1.50564 2.02167,-4.28355 0.57827,-6.05919 -0.44443,-0.60393 -1.03808,-1.08302 -1.6603,-1.49355 0.0961,-1.24845 -0.42742,-2.48606 -1.23828,-3.41601 0.7025,-2.07122 -0.44966,-4.44193 -2.31055,-5.47266 -0.17154,-2.18356 -2.12103,-3.78084 -4.09289,-4.4123 -0.50569,-0.16936 -0.67082,-0.8283 -1.13953,-1.11309 -0.75728,-0.64768 -1.68843,-1.07966 -2.6582,-1.29492 -0.9654,-2.33093 -3.75423,-3.43241 -6.14258,-3.04102 -1.72254,-2.11175 -4.96599,-2.57293 -7.3457,-1.36718 -0.71054,-0.53245 -1.54821,-0.88796 -2.41992,-1.05078 -0.1245,-0.15597 -0.37982,-0.17777 -0.57032,-0.17579 z" /><path
       style="fill:#d38d5f;stroke:none;stroke-width:0.13;stroke-dasharray:none;stroke-opacity:1"
       d="m 126.95755,151.96355 c -1.23618,0.001 -2.41405,0.41997 -3.25212,1.15055 -0.77707,-0.48965 -1.73424,-0.75713 -2.72141,-0.7603 -1.57859,0.002 -3.03783,0.67807 -3.83067,1.77545 -0.48027,-0.14163 -0.98707,-0.21515 -1.49902,-0.21826 -1.61273,0.001 -3.09671,0.71116 -3.87595,1.84619 -0.41904,-0.10327 -0.85471,-0.15711 -1.29284,-0.15789 -2.27088,0 -4.13884,1.37012 -4.40405,3.13837 -0.13165,-0.008 -0.2628,-0.0116 -0.39734,-0.0116 -2.98797,-1.7e-4 -5.41037,1.86946 -5.41017,4.1736 0,0.214 0.0289,0.42384 0.0603,0.62893 -1.687135,0.70613 -2.831933,2.0837 -2.832076,3.66809 0,0.61284 0.172146,1.19258 0.480274,1.71674 -1.296163,0.76221 -2.133025,1.96638 -2.13293,3.32032 4.9e-5,0.54599 0.13742,1.06702 0.384799,1.54493 0.06075,-0.0457 0.121996,-0.0898 0.186131,-0.13351 a 5.4096832,4.1716458 0 0 0 -1.831119,3.12419 5.4096832,4.1716458 0 0 0 1.846211,3.13425 c -0.168771,-0.11457 -0.330792,-0.23449 -0.480274,-0.36374 -1.226628,0.76483 -2.01233,1.93425 -2.012137,3.24546 4.9e-5,1.34681 0.828184,2.54347 2.112773,3.30609 -0.415659,0.59098 -0.651553,1.26819 -0.651458,1.98777 9.8e-5,2.09028 1.9942,3.82014 4.595252,4.12305 -0.541755,0.6497 -0.857598,1.4228 -0.857646,2.25267 -1.45e-4,1.74051 1.38358,3.23061 3.34765,3.85613 -0.0579,0.24455 -0.0906,0.49686 -0.0906,0.75427 1.4e-4,2.30372 2.42273,4.17149 5.41022,4.17159 0.44218,8e-5 0.87124,-0.0438 1.28271,-0.12105 0,0.008 0,0.0116 0,0.0233 1.4e-4,2.30399 2.42249,4.17176 5.41017,4.17156 1.09205,0 2.10771,-0.25034 2.95783,-0.67938 0.90437,1.33007 2.71153,2.2386 4.79402,2.23848 1.60646,-3e-5 3.04863,-0.54181 4.03941,-1.39931 0.96894,0.7055 2.27455,1.13855 3.71234,1.13843 2.08239,-3e-5 3.88737,-0.90843 4.79146,-2.23844 0.85041,0.42929 1.8681,0.68142 2.96039,0.68142 2.98748,-7e-5 5.40747,-1.86787 5.40761,-4.17159 0,-0.12119 -0.009,-0.24147 -0.029,-0.35988 0.57777,0.16215 1.20064,0.25113 1.85117,0.25113 2.98744,-1.5e-4 5.41003,-1.86791 5.41018,-4.17164 -5e-5,-0.63391 -0.18516,-1.23335 -0.51307,-1.77134 2.4319,-0.40847 4.25293,-2.07681 4.25318,-4.07456 0,-0.53543 -0.13458,-1.04824 -0.37226,-1.51858 1.39534,-0.75446 2.30883,-2.00155 2.30892,-3.41537 1.1e-4,-1.17101 -0.62478,-2.22896 -1.63235,-2.98666 1.00746,-0.75759 1.63226,-1.81586 1.63235,-2.98664 6e-5,-0.85106 -0.33029,-1.64124 -0.8979,-2.30116 1.14301,-0.76486 1.86867,-1.89374 1.86872,-3.15248 1e-4,-1.53974 -1.08433,-2.88252 -2.69373,-3.60536 0.0805,-0.28674 0.12536,-0.58431 0.12536,-0.88977 1e-4,-1.09923 -0.55283,-2.09992 -1.45374,-2.84508 0.2657,-0.49292 0.41518,-1.0324 0.41518,-1.59949 0,-1.46952 -0.98851,-2.76127 -2.47751,-3.50435 0.001,-0.0491 0.009,-0.0976 0.009,-0.14781 -1.9e-4,-1.93526 -1.70912,-3.56297 -4.02688,-4.03413 -0.56508,-1.23234 -1.95008,-2.15551 -3.65702,-2.31331 -0.33947,-1.73509 -2.19928,-3.01531 -4.38395,-3.01694 -0.48384,0.001 -0.96383,0.0689 -1.42115,0.19621 -0.7058,-1.30135 -2.30363,-2.14303 -4.0695,-2.14349 -1.08115,9e-4 -2.12488,0.31846 -2.93532,0.89381 -0.83657,-0.88715 -2.1391,-1.40978 -3.5237,-1.41345 z"
       id="path20-7" /><path
       id="path23"
       style="opacity:1;fill:#552200;stroke:none;stroke-width:5.293;stroke-linecap:round;stroke-opacity:1;paint-order:fill markers stroke"
       d="m 175.46836,126.87083 c -4.26478,0.32235 -7.68944,4.03038 -8.47923,8.10641 -1.25885,5.5344 0.92438,11.00352 2.86208,16.14413 1.12901,3.12301 2.22257,6.44893 1.78614,9.81209 -0.27254,1.95544 -1.44158,3.67208 -2.99155,4.85601 -2.55625,2.14292 -5.64122,3.46762 -8.19863,5.60715 -3.40193,2.55998 -6.83095,5.31903 -9.05899,9.00821 -1.56858,3.02558 -1.82533,6.61758 -1.23585,9.87533 0.59354,3.97343 2.78053,7.72893 6.14716,9.97361 3.42489,2.30475 7.58086,3.31698 11.65973,3.56622 6.86216,0.31137 13.68345,-1.6668 19.7136,-4.85232 5.77219,-3.08985 10.80586,-7.85467 13.44293,-13.92044 1.37311,-3.07183 2.10757,-6.46737 2.24713,-9.72422 0.17475,-3.72066 -0.45697,-7.43687 -1.71749,-10.96785 -1.62267,-4.95947 -3.4894,-9.8438 -5.6107,-14.61074 -2.04849,-4.24793 -5.06398,-7.90605 -7.95305,-11.59525 -1.85386,-2.47034 -3.37661,-5.17193 -5.22291,-7.64393 -1.79206,-2.17527 -4.47102,-3.8895 -7.39037,-3.63441 z" /><path
       id="path22"
       style="opacity:1;fill:#aa4400;stroke:none;stroke-width:5.293;stroke-linecap:round;stroke-opacity:1;paint-order:fill markers stroke"
       d="m 174.46015,126.08843 -7.57215,3.129 -3.5667,13.57954 6.2575,10.32495 1.48931,-1.74149 c 0.12714,0.35725 0.25768,0.71328 0.37827,1.07279 0.54311,1.61909 1.00748,3.2714 1.23714,4.96405 0.27603,2.03441 0.19169,4.18328 -0.70694,6.02805 -0.67889,1.3937 -1.78604,2.53847 -3.00963,3.48713 -1.22359,0.94866 -2.57197,1.72056 -3.88452,2.54093 -3.21556,2.00977 -6.23883,4.32824 -9.01495,6.91431 -1.41594,1.31898 -2.78596,2.73138 -3.71244,4.43228 -1.45212,2.6659 -1.69986,5.86245 -1.23713,8.86458 0.42921,2.78468 1.47774,5.53054 3.35845,7.62382 1.40008,1.55833 3.21094,2.70351 5.1263,3.54604 3.37257,1.48352 7.10198,2.06724 10.7828,1.95026 3.67544,-0.11681 7.30949,-0.91776 10.78333,-2.12752 5.62243,-1.95799 10.94729,-5.06615 14.8487,-9.57409 2.72138,-3.14444 4.70586,-6.93891 5.65651,-10.9921 0.84286,-3.59364 0.87131,-7.36668 0.17673,-10.99208 -0.63026,-3.28973 -1.83952,-6.43475 -3.00499,-9.57409 -1.62302,-4.37183 -3.19017,-8.80987 -5.6565,-12.76511 -2.36947,-3.79992 -5.51265,-7.06137 -7.95455,-10.81486 -1.00333,-1.54222 -1.88911,-3.16851 -3.04064,-4.60282 -0.48858,-0.60854 -1.03729,-1.1805 -1.63815,-1.68154 -0.11589,-0.54022 -0.23494,-1.08035 -0.37,-1.62058 l -1.97094,-1.84639 z" /><ellipse
       style="fill:#f9f9f9;stroke:none;stroke-width:0.5;stroke-linecap:round;stroke-dasharray:none;stroke-opacity:1;paint-order:fill markers stroke"
       id="path41"
       cx="110.12299"
       cy="110.24603"
       rx="14.335143"
       ry="14.399688" /><path
       id="path95"
       style="fill:#483737;stroke:none;stroke-width:0.5;stroke-linecap:round;stroke-dasharray:none;stroke-opacity:1;paint-order:fill markers stroke"
       d="m 140.52356,94.261719 c -6.22036,0.0848 -11.91589,4.736269 -13.70847,10.578051 -0.51359,1.53013 -0.77725,3.07797 -0.82784,4.63165 -0.22709,5.62642 2.51774,11.42874 7.41131,14.36256 3.53631,2.14465 7.98953,2.74559 11.83985,1.4043 1.89762,-0.6334 3.87186,-1.78811 5.38085,-3.24957 1.16849,-1.09346 2.20485,-2.43238 3.02345,-3.90473 0.93787,-1.67102 1.62303,-3.727 1.86462,-5.6346 0.76486,-5.13306 -1.07305,-10.62259 -4.79224,-14.170535 -1.29539,-1.2446 -2.81661,-2.21325 -4.3844,-2.878067 -1.82828,-0.775128 -3.82015,-1.177644 -5.80713,-1.139059 z" /><ellipse
       style="fill:#f9f9f9;fill-opacity:1;stroke:none;stroke-width:0.5;stroke-linecap:round;stroke-dasharray:none;stroke-opacity:1;paint-order:fill markers stroke"
       id="circle41"
       cx="140.86533"
       cy="110.24603"
       rx="14.335143"
       ry="14.399688" /><ellipse
       style="opacity:1;fill:#000000;stroke:none;stroke-width:0.499999;stroke-linecap:round;stroke-dasharray:none;stroke-opacity:1;paint-order:fill markers stroke"
       id="path44"
       cx="107.9611"
       cy="113.56213"
       rx="3.5419512"
       ry="4.870183" /><path
       style="opacity:1;fill:#552200;stroke:none;stroke-width:0.499999;stroke-linecap:round;stroke-dasharray:none;stroke-opacity:1;paint-order:fill markers stroke"
       d="m 128.39231,96.970618 c 0,0 1.64105,-5.932065 3.71378,-8.029776 3.98648,-4.03452 15.35697,-7.327183 15.35697,-7.327183 l 1.70632,-0.200746 -3.71377,6.223084 15.35695,-5.018618 0.10033,3.211914 12.3458,-3.513028 -4.41638,7.42755 c 0,0 -5.57105,0.395055 -8.3309,0.802973 -10.80105,1.596443 -32.1191,6.42383 -32.1191,6.42383 z"
       id="path46"
       sodipodi:nodetypes="cscccccccsc" /><path
       style="opacity:1;fill:#552200;stroke:none;stroke-width:0.499999;stroke-linecap:round;stroke-dasharray:none;stroke-opacity:1;paint-order:fill markers stroke"
       d="m 122.65913,96.970618 c 0,0 -1.64103,-5.932063 -3.71376,-8.029776 -3.98645,-4.034509 -15.35688,-7.327183 -15.35688,-7.327183 l -1.70632,-0.200746 3.71375,6.223084 -7.678429,-2.509309 -7.67843,-2.509309 -0.10033,3.211914 -12.345731,-3.513028 4.416356,7.42755 c 0,0 5.571015,0.395055 8.330852,0.802973 10.800992,1.596443 32.118922,6.42383 32.118922,6.42383 z"
       id="path47"
       sodipodi:nodetypes="csccccccccsc" /><path
       style="fill:#552200;stroke:none;stroke-width:0.499998;stroke-linecap:round;stroke-dasharray:none;stroke-opacity:1;paint-order:fill markers stroke"
       d="m 100.29577,152.36786 5.07036,13.82824 5.07036,-9.21884 5.5313,17.51579 5.5313,-11.98448 5.99225,17.05484 3.68752,-15.67202 5.99224,9.67979 3.68753,-15.67202 7.37507,9.21883 3.68752,-14.28919 z"
       id="path49" /><path
       style="fill:#aa4400;stroke:none;stroke-width:0.499998;stroke-linecap:round;stroke-dasharray:none;stroke-opacity:1;paint-order:fill markers stroke"
       d="m 100.29577,149.95431 5.07036,13.82824 5.07036,-9.21884 5.5313,17.51579 5.5313,-11.98448 5.99225,17.05484 3.68752,-15.67202 5.99224,9.67979 3.68753,-15.67202 7.37507,9.21883 3.68752,-14.28919 z"
       id="path50" /><ellipse
       style="opacity:1;fill:#000000;stroke:none;stroke-width:0.499999;stroke-linecap:round;stroke-dasharray:none;stroke-opacity:1;paint-order:fill markers stroke"
       id="ellipse92"
       cx="138.12344"
       cy="113.56213"
       rx="3.5419512"
       ry="4.870183" /><path
       id="path93"
       style="opacity:1;fill:#d38d5f;fill-opacity:1;stroke:none;stroke-width:0.499999;stroke-linecap:round;stroke-dasharray:none;stroke-opacity:1;paint-order:fill markers stroke"
       d="m 106.01367,84.349609 c -0.56633,0.223873 -0.12877,0.641765 0.0586,0.982422 0.52859,1.117259 1.511,2.061009 1.69726,3.3125 -0.17247,0.933092 -1.39461,1.193316 -2.10285,0.691556 -4.6342,-1.517407 -9.269547,-3.031291 -13.903008,-4.550931 -0.03499,1.043583 -0.06769,2.08724 -0.101563,3.13086 -3.488357,-0.99192 -6.975927,-1.986612 -10.464843,-2.976563 0.65174,1.094373 1.303558,2.188699 1.955078,3.283203 9.774275,0.631751 19.359136,2.883654 28.907886,4.819144 2.74377,0.58308 5.48377,1.183195 8.22493,1.778512 -0.84113,-2.399895 -2.00419,-4.944515 -4.33648,-6.227274 -2.99966,-1.940971 -6.36922,-3.181018 -9.6811,-4.466085 -0.0846,0.07422 -0.16927,0.148438 -0.25391,0.222656 z" /><path
       id="path94"
       style="opacity:1;fill:#d38d5f;fill-opacity:1;stroke:none;stroke-width:0.499999;stroke-linecap:round;stroke-dasharray:none;stroke-opacity:1;paint-order:fill markers stroke"
       d="m 144.78906,84.162109 c -3.63611,1.285567 -7.17827,2.701188 -10.38829,4.897529 -1.96922,1.327973 -2.82997,3.63321 -3.62929,5.762628 10.14007,-2.202329 20.28473,-4.454873 30.55079,-5.97398 2.18421,-0.282234 4.38221,-0.433679 6.57617,-0.61977 0.65169,-1.097657 1.30338,-2.195313 1.95508,-3.292969 -3.48831,0.993413 -6.97643,1.987458 -10.46485,2.980469 -0.0331,-1.043625 -0.0664,-2.08724 -0.0996,-3.13086 -5.78915,1.891644 -11.5775,3.785774 -17.36718,5.675782 1.32644,-2.226526 2.65501,-4.451784 3.98242,-6.677735 -0.37175,0.126302 -0.74349,0.252604 -1.11524,0.378906 z" /><g
       id="g110"
       transform="translate(21.034375,-130.57187)"><path
         id="path97"
         style="fill:#000000;stroke:none;stroke-width:0.499999;stroke-linecap:round;stroke-dasharray:none;stroke-opacity:1;paint-order:fill markers stroke"
         d="m 99.677948,260.36661 c 0,2.91601 0,5.83203 0,8.74804 2.630242,-1.97109 5.259962,-3.94288 7.888672,-5.91601 -2.62931,-1.22058 -5.25822,-2.44204 -7.888672,-3.66016 0,0.27604 0,0.55209 0,0.82813 z" /><path
         id="path98"
         style="fill:#552200;stroke:none;stroke-width:0.499999;stroke-linecap:round;stroke-dasharray:none;stroke-opacity:1;paint-order:fill markers stroke"
         d="m 99.678406,259.53857 c 2.703134,2.00584 5.734614,3.9295 7.232424,7.07813 0.88367,1.66208 1.51353,3.44278 2.18945,5.1914 1.42047,-1.95056 3.12381,-3.87064 3.64154,-6.28944 -0.04,-1.98376 -0.472,-3.92075 -0.92637,-5.83938 -0.59254,-2.1204 -2.04745,-4.06784 -4.16439,-4.83993 -1.31718,-0.5568 -2.72861,-0.83421 -4.13476,-1.05664 -1.2793,1.91862 -2.5586,3.83724 -3.837894,5.75586 z" /><path
         style="fill:#ff6600;stroke:none;stroke-width:0.499999;stroke-linecap:round;stroke-dasharray:none;stroke-opacity:1;paint-order:fill markers stroke"
         d="m 103.7683,254.36007 c 7.01352,1.09118 7.60488,3.95221 8.49582,10.88528 -0.0747,1.79573 -3.00893,5.48689 -3.00893,5.48689 0,0 -1.59632,-4.6024 -3.36294,-6.72587 -1.48842,-1.78908 -5.48688,-4.60191 -5.48688,-4.60191 z"
         id="path99"
         sodipodi:nodetypes="cscscc" /><ellipse
         style="opacity:1;fill:#d40000;fill-opacity:1;stroke:none;stroke-width:0.563472;stroke-linecap:round;stroke-dasharray:none;stroke-opacity:1;paint-order:fill markers stroke"
         id="path107"
         cx="-13.413459"
         cy="273.48367"
         rx="2.4695613"
         ry="1.5670685"
         transform="matrix(0.92880953,-0.37055749,0.24468413,0.96960284,48.021875,-3.571875)"
         clip-path="url(#clipPath109)" /></g></g></svg>
