<?xml version="1.0" encoding="UTF-8" standalone="no"?>
<!-- Created with Inkscape (http://www.inkscape.org/) -->

<svg
   width="69.506126mm"
   height="97.750916mm"
   viewBox="0 0 69.506126 97.750916"
   version="1.1"
   id="svg1"
   inkscape:version="1.3.2 (091e20e, 2023-11-25, custom)"
   sodipodi:docname="owl.svg"
   xml:space="preserve"
   xmlns:inkscape="http://www.inkscape.org/namespaces/inkscape"
   xmlns:sodipodi="http://sodipodi.sourceforge.net/DTD/sodipodi-0.dtd"
   xmlns="http://www.w3.org/2000/svg"
   xmlns:svg="http://www.w3.org/2000/svg"><sodipodi:namedview
     id="namedview1"
     pagecolor="#ffffff"
     bordercolor="#000000"
     borderopacity="0.25"
     inkscape:showpageshadow="2"
     inkscape:pageopacity="0.0"
     inkscape:pagecheckerboard="0"
     inkscape:deskcolor="#d1d1d1"
     inkscape:document-units="mm"
     inkscape:zoom="0.50000001"
     inkscape:cx="468.99999"
     inkscape:cy="662.99998"
     inkscape:window-width="1920"
     inkscape:window-height="932"
     inkscape:window-x="0"
     inkscape:window-y="30"
     inkscape:window-maximized="1"
     inkscape:current-layer="layer1"
     showgrid="false"><inkscape:page
       x="0"
       y="0"
       width="69.506126"
       height="97.750916"
       id="page1"
       margin="0"
       bleed="0" /></sodipodi:namedview><defs
     id="defs1"><inkscape:path-effect
       effect="spiro"
       id="path-effect70"
       is_visible="true"
       lpeversion="1" /><inkscape:path-effect
       effect="spiro"
       id="path-effect68"
       is_visible="true"
       lpeversion="1" /></defs><g
     inkscape:label="Layer 1"
     inkscape:groupmode="layer"
     id="layer1"
     transform="translate(-299.77416,-142.34419)"><g
       id="g89"
       transform="matrix(-0.52625598,0,0,0.52625598,390.41029,116.3201)"
       style="stroke-width:1.90022"
       inkscape:export-filename="../The only way is through/Design/The only way is through\Design\Luna.svg"
       inkscape:export-xdpi="96"
       inkscape:export-ydpi="96"><path
         id="path87"
         style="opacity:1;fill:#552200;stroke:none;stroke-width:10.0578;stroke-linecap:round;paint-order:fill markers stroke"
         d="m 74.095703,213.31641 c 0.08029,0.96849 -0.07754,1.90494 -0.384765,2.82226 -0.329422,1.30684 -0.521684,2.75041 -1.382813,3.83399 -0.602958,0.48022 -1.390609,-0.063 -2.060547,-0.11328 -1.270603,-0.44066 -2.632882,-0.92411 -3.979235,-0.4849 -2.177066,0.63243 -4.342012,1.79056 -5.670262,3.68247 -0.947521,1.47838 -1.589387,3.12192 -2.493593,4.62571 -0.820884,1.39099 -1.231313,2.96321 -1.384895,4.56146 0.04325,0.36928 -0.366809,1.38704 0.02194,1.28506 1.906667,-0.82579 3.750811,-1.88322 5.799011,-2.31824 -0.404284,1.29352 -0.403125,2.65041 -0.304688,3.98828 3.523006,-1.65558 7.079179,-3.38196 10.951988,-4.03917 3.369388,-0.63798 6.701226,-1.63355 10.091226,-1.66731 1.261529,-0.0942 2.526995,0.10931 3.667777,0.66304 0.384407,-0.0129 1.505892,0.74623 1.309409,0.12559 -0.54573,-2.01438 -0.915463,-4.22579 -2.440321,-5.77551 -0.869756,-1.11065 -2.064027,-1.92755 -3.426659,-2.29961 -0.972005,-0.31065 -2.218413,-0.80645 -2.245973,-2.01 -0.152414,-1.63606 0.319731,-3.24935 0.774194,-4.80367 -2.280034,-0.95903 -4.561501,-1.91465 -6.841797,-2.87305 0,0.26563 0,0.53125 0,0.79688 z" /><path
         style="opacity:1;fill:#ff7f2a;stroke:none;stroke-width:10.0578;stroke-linecap:round;paint-order:fill markers stroke"
         d="m 80.296936,215.69756 c 0,0 -1.264423,3.87793 -0.39572,5.49641 0.76404,1.42348 2.927723,1.41366 4.22112,2.38174 0.490971,0.36748 0.918535,0.81814 1.31909,1.28252 0.393207,0.45586 0.773708,0.93356 1.05528,1.46567 0.477531,0.90243 1.111093,3.4724 1.111093,3.4724 l -0.583453,-0.17454 c 0,0 -1.032157,-0.45673 -1.58292,-0.54963 -1.300723,-0.2194 -2.641332,-0.0909 -3.95729,0 -0.885728,0.0612 -1.763805,0.21246 -2.6382,0.36639 -1.151324,0.20268 -2.2871,0.4855 -3.42966,0.73285 -1.671835,0.36194 -3.366301,0.63471 -5.01257,1.09928 -1.075098,0.30339 -2.126884,0.68884 -3.16584,1.09927 -1.118804,0.44197 -2.202281,0.96874 -3.29775,1.46574 -0.397121,0.18017 -1.18718,0.54963 -1.18718,0.54963 0,0 -0.05315,-0.98003 0,-1.46569 0.08846,-0.80835 0.52763,-2.38178 0.52763,-2.38178 0,0 -1.156495,0.19344 -1.71482,0.36643 -1.226277,0.37995 -2.385222,0.95157 -3.56158,1.46567 -0.266398,0.11642 -0.79146,0.36646 -0.79146,0.36646 0,0 0.213018,-1.98974 0.52765,-2.9314 0.43345,-1.29728 1.84673,-3.66426 1.84673,-3.66426 0,0 1.021248,-2.34604 1.84675,-3.29783 0.72508,-0.836 1.657257,-1.50311 2.63819,-2.01537 1.064143,-0.55572 2.229955,-1.05537 3.42966,-1.09928 1.039696,-0.038 2.00883,0.55507 3.03392,0.73285 0.566408,0.0982 1.169195,0.36418 1.71483,0.18321 0.341264,-0.11319 0.597877,-0.42985 0.79147,-0.73282 0.691322,-1.08192 1.18718,-3.66428 1.18718,-3.66428 l 0.39573,-1.4657 v -1.4657 z"
         id="path88"
         sodipodi:nodetypes="cssssccssssssscscsscacsssssscccc" /><path
         style="opacity:1;fill:none;stroke:#552200;stroke-width:0.556764;stroke-linecap:round;stroke-dasharray:none;stroke-opacity:1;paint-order:fill markers stroke"
         d="m 63.093855,230.66009 c 0,0 0.248122,-0.85795 0.398234,-1.27821 0.229767,-0.64327 0.385867,-1.48544 0.767888,-1.89991 0.486368,-0.52768 1.303298,-0.60158 1.962604,-0.88498 0.6442,-0.27691 1.946961,-0.79649 1.946961,-0.79649 v 0"
         id="path89"
         sodipodi:nodetypes="casscc" /></g><g
       id="g92"
       transform="matrix(0.52625598,0,0,0.52625598,279.87892,116.3201)"
       style="stroke-width:1.90022"><path
         id="path90"
         style="opacity:1;fill:#552200;stroke:none;stroke-width:10.0578;stroke-linecap:round;paint-order:fill markers stroke"
         d="m 74.095703,213.31641 c 0.08029,0.96849 -0.07754,1.90494 -0.384765,2.82226 -0.329422,1.30684 -0.521684,2.75041 -1.382813,3.83399 -0.602958,0.48022 -1.390609,-0.063 -2.060547,-0.11328 -1.270603,-0.44066 -2.632882,-0.92411 -3.979235,-0.4849 -2.177066,0.63243 -4.342012,1.79056 -5.670262,3.68247 -0.947521,1.47838 -1.589387,3.12192 -2.493593,4.62571 -0.820884,1.39099 -1.231313,2.96321 -1.384895,4.56146 0.04325,0.36928 -0.366809,1.38704 0.02194,1.28506 1.906667,-0.82579 3.750811,-1.88322 5.799011,-2.31824 -0.404284,1.29352 -0.403125,2.65041 -0.304688,3.98828 3.523006,-1.65558 7.079179,-3.38196 10.951988,-4.03917 3.369388,-0.63798 6.701226,-1.63355 10.091226,-1.66731 1.261529,-0.0942 2.526995,0.10931 3.667777,0.66304 0.384407,-0.0129 1.505892,0.74623 1.309409,0.12559 -0.54573,-2.01438 -0.915463,-4.22579 -2.440321,-5.77551 -0.869756,-1.11065 -2.064027,-1.92755 -3.426659,-2.29961 -0.972005,-0.31065 -2.218413,-0.80645 -2.245973,-2.01 -0.152414,-1.63606 0.319731,-3.24935 0.774194,-4.80367 -2.280034,-0.95903 -4.561501,-1.91465 -6.841797,-2.87305 0,0.26563 0,0.53125 0,0.79688 z" /><path
         style="opacity:1;fill:#ff7f2a;stroke:none;stroke-width:10.0578;stroke-linecap:round;paint-order:fill markers stroke"
         d="m 80.296936,215.69756 c 0,0 -1.264423,3.87793 -0.39572,5.49641 0.76404,1.42348 2.927723,1.41366 4.22112,2.38174 0.490971,0.36748 0.918535,0.81814 1.31909,1.28252 0.393207,0.45586 0.773708,0.93356 1.05528,1.46567 0.477531,0.90243 1.111093,3.4724 1.111093,3.4724 l -0.583453,-0.17454 c 0,0 -1.032157,-0.45673 -1.58292,-0.54963 -1.300723,-0.2194 -2.641332,-0.0909 -3.95729,0 -0.885728,0.0612 -1.763805,0.21246 -2.6382,0.36639 -1.151324,0.20268 -2.2871,0.4855 -3.42966,0.73285 -1.671835,0.36194 -3.366301,0.63471 -5.01257,1.09928 -1.075098,0.30339 -2.126884,0.68884 -3.16584,1.09927 -1.118804,0.44197 -2.202281,0.96874 -3.29775,1.46574 -0.397121,0.18017 -1.18718,0.54963 -1.18718,0.54963 0,0 -0.05315,-0.98003 0,-1.46569 0.08846,-0.80835 0.52763,-2.38178 0.52763,-2.38178 0,0 -1.156495,0.19344 -1.71482,0.36643 -1.226277,0.37995 -2.385222,0.95157 -3.56158,1.46567 -0.266398,0.11642 -0.79146,0.36646 -0.79146,0.36646 0,0 0.213018,-1.98974 0.52765,-2.9314 0.43345,-1.29728 1.84673,-3.66426 1.84673,-3.66426 0,0 1.021248,-2.34604 1.84675,-3.29783 0.72508,-0.836 1.657257,-1.50311 2.63819,-2.01537 1.064143,-0.55572 2.229955,-1.05537 3.42966,-1.09928 1.039696,-0.038 2.00883,0.55507 3.03392,0.73285 0.566408,0.0982 1.169195,0.36418 1.71483,0.18321 0.341264,-0.11319 0.597877,-0.42985 0.79147,-0.73282 0.691322,-1.08192 1.18718,-3.66428 1.18718,-3.66428 l 0.39573,-1.4657 v -1.4657 z"
         id="path91"
         sodipodi:nodetypes="cssssccssssssscscsscacsssssscccc" /><path
         style="opacity:1;fill:none;stroke:#552200;stroke-width:0.556764;stroke-linecap:round;stroke-dasharray:none;stroke-opacity:1;paint-order:fill markers stroke"
         d="m 63.093855,230.66009 c 0,0 0.248122,-0.85795 0.398234,-1.27821 0.229767,-0.64327 0.385867,-1.48544 0.767888,-1.89991 0.486368,-0.52768 1.303298,-0.60158 1.962604,-0.88498 0.6442,-0.27691 1.946961,-0.79649 1.946961,-0.79649 v 0"
         id="path92"
         sodipodi:nodetypes="casscc" /></g><path
       id="path83"
       style="fill:#782121;fill-opacity:1;stroke-width:5.29299;stroke-linecap:round;paint-order:fill markers stroke"
       inkscape:transform-center-x="0.40039619"
       inkscape:transform-center-y="-2.3867413"
       d="m 332.92578,205.60938 c -3.65425,0.1504 -7.32076,0.83527 -10.6914,2.2832 -3.52303,-0.42072 -7.35158,-0.3916 -10.50313,1.44414 -1.6302,1.00788 -2.55897,2.91672 -2.48507,4.81637 -0.0699,3.62944 1.34322,7.10782 3.05011,10.24355 1.55349,2.76113 3.57881,5.47505 6.49277,6.89047 1.69577,0.75074 3.63988,0.39768 5.23389,-0.43605 1.44859,-0.67587 2.76935,-1.60756 3.95166,-2.67918 4.54457,0.86904 9.27504,0.76413 13.77539,-0.31055 2.06584,1.90573 4.58197,3.66205 7.47107,3.84334 2.58146,-0.0348 4.62625,-1.96099 6.18026,-3.82878 2.77762,-3.42706 4.70691,-7.59428 5.34243,-11.96939 0.31147,-2.18045 -0.0202,-4.75731 -1.8999,-6.17095 -2.25093,-1.7618 -5.25735,-2.03259 -8.01687,-2.05918 -1.43755,0.01 -2.87203,0.15952 -4.28597,0.41543 -4.24965,-1.92572 -8.97564,-2.62407 -13.61524,-2.48242 z" /><path
       id="path76"
       style="fill:#782121;stroke:none;stroke-width:0.300663;stroke-opacity:1"
       d="m 312.2832,142.36133 c -1.52908,0.2942 -2.07156,1.95858 -2.69901,3.17366 -2.53944,5.51458 -3.84145,11.48244 -5.1843,17.37062 -2.39203,11.2739 -4.11721,22.72108 -4.55765,34.24877 -0.16363,5.21146 -0.13203,10.52445 1.25151,15.58781 1.73636,5.41724 6.3119,9.6271 11.59205,11.54813 6.24689,2.34567 13.02762,2.31636 19.60678,2.38453 6.93483,-0.0867 13.98717,0.28681 20.78309,-1.36297 4.43318,-1.06186 8.71999,-3.24609 11.65246,-6.81139 1.92726,-2.23251 3.22922,-4.97275 3.74809,-7.87604 0.99695,-5.07585 0.86361,-10.29163 0.66218,-15.43618 -0.52255,-10.34833 -2.0939,-20.62007 -4.15797,-30.76465 -1.25053,-5.89911 -2.61264,-11.81499 -4.84957,-17.42948 -0.64232,-1.44348 -1.23963,-2.98096 -2.31055,-4.16406 -0.87314,-0.77167 -2.26211,-0.53161 -2.97006,0.34706 -1.86453,1.7326 -3.71514,3.53883 -6.02111,4.68297 -0.41037,0.26226 -0.83387,0.49424 -1.28812,0.11255 -6.98045,-3.09622 -15.06945,-3.59607 -22.36443,-1.31841 -1.42553,0.44024 -2.82424,0.9704 -4.17659,1.60161 -2.69741,-1.2355 -4.90911,-3.26327 -7.02344,-5.29688 -0.47355,-0.3833 -1.06754,-0.69206 -1.69336,-0.59765 z" /><path
       id="path82"
       style="fill:#ff8080;fill-opacity:1;stroke-width:5.29299;stroke-linecap:round;paint-order:fill markers stroke"
       inkscape:transform-center-x="0.40039619"
       inkscape:transform-center-y="-2.3867413"
       d="m 334.14601,206.63855 a 18.79871,10.533422 0 0 0 -11.76259,2.33371 c -4.93758,-0.70495 -10.22773,0.0599 -11.60497,2.91196 -2.46165,5.09768 4.69488,19.14444 10.26139,18.7663 1.83544,-0.12468 4.49111,-1.56955 6.60993,-3.61373 a 18.79871,10.533422 0 0 0 6.49624,0.66869 18.79871,10.533422 0 0 0 7.92252,-1.00304 c 2.16756,2.2214 5.01627,3.81666 6.95099,3.94808 5.56651,0.37813 12.72304,-13.66862 10.26139,-18.7663 -1.49632,-3.09863 -7.61011,-3.73167 -12.87363,-2.6944 a 18.79871,10.533422 0 0 0 -12.26127,-2.55127 z" /><path
       id="path52"
       style="fill:#ff8080;stroke:none;stroke-width:0.300663;stroke-opacity:1"
       d="m 312.61503,143.41037 c -0.75353,-0.1291 -1.36816,0.8975 -2.69338,3.94963 -5.09659,11.73797 -12.99158,56.24062 -6.86211,67.40208 6.07909,11.06964 19.14443,10.85325 31.31798,10.84896 v 5.1e-4 c 0.0503,0 0.10158,-5.2e-4 0.15193,-5.1e-4 0.0503,-1e-5 0.10161,5.1e-4 0.15193,5.1e-4 v -5.1e-4 c 12.17357,0.004 25.2394,0.22069 31.3185,-10.84896 6.12947,-11.16146 -1.76603,-55.66411 -6.86263,-67.40208 -3.46257,-7.9747 -2.0848,-2.12193 -11.00863,2.03863 a 30.385946,29.421661 0 0 0 -13.59917,-3.12074 30.385946,29.421661 0 0 0 -13.54439,3.14606 c -5.55286,-2.57237 -7.1507,-5.80468 -8.37003,-6.01358 z" /><g
       id="g60"
       transform="matrix(-0.72793131,0,0,0.72793131,599.74707,105.16167)"
       style="fill:#d35f5f;stroke:#782121;stroke-width:0.269902"><path
         style="fill:#d35f5f;fill-opacity:1;stroke:#782121;stroke-width:0.714116;stroke-opacity:1"
         d="m 379.96511,75.96833 5.42632,-6.873325"
         id="path57" /><path
         style="fill:#d35f5f;fill-opacity:1;stroke:#782121;stroke-width:0.714116;stroke-opacity:1"
         d="m 384.13875,78.500607 3.61752,-4.341048"
         id="path58" /><path
         style="fill:#d35f5f;fill-opacity:1;stroke:#782121;stroke-width:0.714116;stroke-opacity:1"
         d="m 386.6886,82.987734 3.25577,-4.341047"
         id="path59" /><path
         style="fill:#d35f5f;fill-opacity:1;stroke:#782121;stroke-width:0.714116;stroke-opacity:1"
         d="m 376.81527,73.352042 2.53228,-4.702802"
         id="path60" /></g><path
       id="path111"
       style="fill:#782121;fill-opacity:1;stroke:none;stroke-width:0.15129;stroke-dasharray:none;stroke-opacity:1"
       d="m 325.11881,156.16092 c -4.09034,0.30595 -7.626,3.95317 -7.78547,8.1349 -0.31453,4.29461 2.97736,8.50956 7.20737,9.0425 3.93979,0.66476 8.14677,-1.8546 9.32902,-5.76442 1.23014,-3.49191 -0.041,-7.69534 -3.06494,-9.80023 -1.63173,-1.18907 -3.68255,-1.78094 -5.68598,-1.61275 z" /><circle
       style="fill:#ffffff;fill-opacity:1;stroke:none;stroke-width:0.15129;stroke-dasharray:none;stroke-opacity:1"
       id="circle60"
       cx="-326.00903"
       cy="165.23083"
       transform="scale(-1,1)"
       r="8.1305008" /><g
       id="g64"
       transform="matrix(0.72793131,0,0,0.72793131,70.319477,105.16167)"
       style="fill:#782121;stroke:#a02c2c;stroke-width:0.269902"><path
         style="fill:#782121;fill-opacity:1;stroke:#a02c2c;stroke-width:0.714116;stroke-opacity:1"
         d="m 379.96511,75.96833 5.42632,-6.873325"
         id="path61" /><path
         style="fill:#782121;fill-opacity:1;stroke:#a02c2c;stroke-width:0.714116;stroke-opacity:1"
         d="m 384.13875,78.500607 3.61752,-4.341048"
         id="path62" /><path
         style="fill:#782121;fill-opacity:1;stroke:#a02c2c;stroke-width:0.714116;stroke-opacity:1"
         d="m 386.6886,82.987734 3.25577,-4.341047"
         id="path63" /><path
         style="fill:#782121;fill-opacity:1;stroke:#a02c2c;stroke-width:0.714116;stroke-opacity:1"
         d="m 376.81527,73.352042 2.53228,-4.702802"
         id="path64" /></g><path
       id="circle110"
       style="fill:#782121;fill-opacity:1;stroke:none;stroke-width:0.15129;stroke-dasharray:none;stroke-opacity:1"
       d="m 343.63976,156.16092 c -4.09034,0.30595 -7.626,3.95317 -7.78547,8.1349 -0.31453,4.29461 2.97736,8.50956 7.20737,9.0425 3.93979,0.66476 8.14677,-1.8546 9.32902,-5.76442 1.23014,-3.49191 -0.041,-7.69534 -3.06494,-9.80023 -1.63173,-1.18907 -3.68255,-1.78094 -5.68598,-1.61275 z" /><circle
       style="fill:#ffffff;fill-opacity:1;stroke:none;stroke-width:0.15129;stroke-dasharray:none;stroke-opacity:1"
       id="circle64"
       cx="343.98694"
       cy="165.23083"
       r="8.1305008" /><ellipse
       style="fill:#000000;fill-opacity:1;stroke:none;stroke-width:0.150941;stroke-dasharray:none;stroke-opacity:1"
       id="ellipse64"
       cx="-342.38678"
       cy="166.32648"
       transform="scale(-1,1)"
       rx="2.1250174"
       ry="2.9012163" /><ellipse
       style="fill:#000000;fill-opacity:1;stroke:none;stroke-width:0.150941;stroke-dasharray:none;stroke-opacity:1"
       id="ellipse65"
       cx="-327.43936"
       cy="166.32648"
       transform="scale(-1,1)"
       rx="2.1250174"
       ry="2.9012163" /><path
       style="fill:none;fill-opacity:1;stroke:#782121;stroke-width:0.648515;stroke-dasharray:none;stroke-opacity:1"
       d="m 433.57874,-85.692556 c -0.99662,-3.564007 -1.25946,-7.331476 -0.76738,-10.999343 0.28914,-2.155204 0.83386,-4.266491 1.27897,-6.394961 0.30135,-1.441 0.55732,-2.89148 0.7674,-4.34858"
       id="path65"
       inkscape:path-effect="#path-effect68"
       inkscape:original-d="m 433.57874,-85.692556 c -0.2558,-3.325381 -0.5116,-7.16236 -0.76738,-10.999343 -0.25579,-3.836981 0.85265,-4.263311 1.27897,-6.394961 0.42635,-2.13166 0.5116,-2.89906 0.7674,-4.34858"
       transform="matrix(0.97025912,0,0,0.77125478,-57.9768,276.86414)" /><path
       style="fill:none;fill-opacity:1;stroke:#782121;stroke-width:0.648515;stroke-dasharray:none;stroke-opacity:1"
       d="m 433.57874,-85.692556 c -0.99662,-3.564007 -1.25946,-7.331476 -0.76738,-10.999343 0.28914,-2.155204 0.83386,-4.266491 1.27897,-6.394961 0.30135,-1.441 0.55732,-2.89148 0.7674,-4.34858"
       id="path66"
       inkscape:path-effect="#path-effect70"
       inkscape:original-d="m 433.57874,-85.692556 c -0.2558,-3.325381 -0.5116,-7.16236 -0.76738,-10.999343 -0.25579,-3.836981 0.85265,-4.263311 1.27897,-6.394961 0.42635,-2.13166 0.5116,-2.89906 0.7674,-4.34858"
       transform="matrix(-0.97025912,0,0,0.77125478,731.06711,276.86414)" /><path
       id="path77"
       style="fill:#782121;stroke:none;stroke-width:0.13;stroke-dasharray:none;stroke-opacity:1"
       d="m 335.1512,188.12829 c -0.53727,-0.0204 -1.06176,0.24797 -1.48626,0.49425 -0.99636,-0.55828 -2.32545,-0.23124 -3.02704,0.61913 -0.89593,-0.19385 -1.8368,0.23967 -2.39736,0.90934 -1.14517,-0.18205 -2.33725,0.58776 -2.65065,1.7026 -1.46651,0.0578 -2.72151,1.40518 -2.66295,2.86171 -0.97332,0.64461 -1.45811,1.94655 -1.08699,3.06222 -0.73047,0.67589 -1.03075,1.77114 -0.74401,2.72452 -0.79455,0.86019 -0.84288,2.23273 -0.22689,3.20996 -0.99495,1.01698 -0.94238,2.81265 0.10377,3.77458 -0.57539,1.3751 0.24397,3.06921 1.63752,3.54591 -0.49479,1.22551 0.11299,2.7197 1.26816,3.32781 -0.13175,1.62528 1.43661,3.02091 2.9989,2.90744 0.30881,1.72482 2.38579,2.7277 3.95574,2.00161 0.93226,1.2366 2.88916,1.45004 4.07709,0.46259 1.19647,0.82952 2.99858,0.5556 3.88011,-0.60857 1.61113,0.76093 3.76243,-0.34448 3.97333,-2.13881 1.72918,0.28173 3.47758,-1.32266 3.19765,-3.08684 -0.25368,-0.49442 0.48378,-0.46958 0.70356,-0.79854 0.78018,-0.64772 1.14929,-1.75457 0.88119,-2.73683 1.06658,-0.88501 1.25659,-2.61116 0.37993,-3.6919 0.62567,-0.78679 0.73028,-1.92805 0.2867,-2.82653 1.09161,-1.13022 0.85381,-3.15147 -0.44325,-4.02433 0.0662,-0.68021 -0.13511,-1.38445 -0.56284,-1.91895 0.34162,-1.0643 -0.0821,-2.29882 -0.97794,-2.95669 -0.0503,-1.10616 -0.85984,-2.10136 -1.90136,-2.44484 -0.29633,-0.63398 -0.89303,-1.1069 -1.56541,-1.28927 -0.31788,-1.13641 -1.55042,-1.90167 -2.71044,-1.69029 -0.66248,-1.06743 -2.19637,-1.42842 -3.26449,-0.76512 -0.18706,-0.28552 -0.97248,-0.35868 -0.40839,-0.6786 -0.35493,-0.005 -0.83088,0.0386 -1.22738,0.0524 z" /><path
       style="fill:#d38d5f;stroke:none;stroke-width:0.13;stroke-dasharray:none;stroke-opacity:1"
       d="m 335.17528,188.60483 c -0.5449,7.4e-4 -1.06411,0.2309 -1.43352,0.63239 -0.34255,-0.26927 -0.76445,-0.41615 -1.19958,-0.41788 -0.69584,0.002 -1.33906,0.37266 -1.68853,0.97582 -0.21188,-0.0777 -0.43509,-0.11811 -0.66074,-0.12011 -0.7109,7.3e-4 -1.36503,0.39087 -1.7085,1.01471 -0.18485,-0.0567 -0.37674,-0.0865 -0.56989,-0.0867 -1.00098,0 -1.82434,0.75303 -1.94125,1.7249 -0.0581,-0.004 -0.11578,-0.006 -0.17517,-0.006 -1.31708,-7e-5 -2.38485,1.02752 -2.38479,2.29392 0,0.11778 0.0133,0.23289 0.0267,0.34567 -0.74368,0.38812 -1.2483,1.14526 -1.24838,2.0161 0,0.33682 0.0761,0.65547 0.21154,0.94355 -0.57132,0.41894 -0.94021,1.08078 -0.94018,1.82493 4e-5,0.29997 0.0608,0.58648 0.1695,0.84913 0.0267,-0.0267 0.0537,-0.0494 0.082,-0.0734 a 2.3845449,2.2928448 0 0 0 -0.80714,1.71713 2.3845449,2.2928448 0 0 0 0.81379,1.72268 c -0.0744,-0.0631 -0.14581,-0.1288 -0.21154,-0.19987 -0.5407,0.42038 -0.887,1.0631 -0.88694,1.78381 5e-5,0.74022 0.36507,1.39795 0.93132,1.81709 -0.18318,0.32499 -0.28729,0.69705 -0.28729,1.09253 4e-5,1.14889 0.87903,2.09964 2.02554,2.26614 -0.2389,0.35711 -0.37804,0.78203 -0.37804,1.23814 -6e-5,0.95662 0.60987,1.77562 1.47561,2.11942 -0.0267,0.13446 -0.0401,0.27293 -0.0401,0.41457 8e-5,1.26616 1.06795,2.29276 2.3848,2.29283 0.19485,3e-5 0.38404,-0.0233 0.56541,-0.0667 0,0.004 0,0.006 0,0.0133 7e-5,1.26633 1.0678,2.29289 2.38475,2.29279 0.48137,0 0.92907,-0.13746 1.3038,-0.3734 0.39865,0.73102 1.19523,1.2304 2.11316,1.23034 0.70812,-3e-5 1.34383,-0.29796 1.78056,-0.76912 0.42708,0.38777 1.0026,0.62577 1.63636,0.62571 0.91789,0 1.71353,-0.49928 2.11206,-1.2303 0.37482,0.2359 0.82342,0.37453 1.30489,0.37453 1.31685,-3e-5 2.38358,-1.02663 2.38365,-2.29282 0,-0.0664 -0.004,-0.1328 -0.0133,-0.19785 0.25458,0.0891 0.52925,0.13812 0.81599,0.13812 1.31686,-1e-4 2.38469,-1.02666 2.38476,-2.29286 0,-0.34841 -0.0818,-0.67786 -0.22622,-0.97355 1.07198,-0.22455 1.87465,-1.14146 1.87478,-2.2395 0,-0.2943 -0.0594,-0.57613 -0.16415,-0.83465 0.61506,-0.41467 1.01772,-1.10011 1.01775,-1.87719 3e-5,-0.6436 -0.27527,-1.22509 -0.71954,-1.64153 0.44411,-0.41641 0.71951,-0.99803 0.71954,-1.64153 0,-0.46779 -0.14547,-0.90207 -0.39578,-1.2648 0.50382,-0.42036 0.8237,-1.04083 0.8237,-1.73267 6e-5,-0.84626 -0.47797,-1.58431 -1.18736,-1.9816 0.0354,-0.15749 0.0554,-0.32131 0.0554,-0.48904 2e-5,-0.60416 -0.24358,-1.15416 -0.64079,-1.56372 0.11711,-0.27093 0.18284,-0.56745 0.18284,-0.87912 0,-0.80769 -0.43572,-1.51768 -1.09206,-1.92607 0.002,-0.0267 0.004,-0.0537 0.004,-0.0814 -10e-5,-1.06368 -0.75336,-1.95831 -1.77503,-2.21726 -0.2489,-0.67735 -0.85956,-1.18475 -1.61199,-1.27147 -0.14948,-0.95366 -0.96941,-1.65728 -1.93242,-1.65818 -0.21321,7.3e-4 -0.42483,0.0377 -0.6264,0.10777 -0.31131,-0.71526 -1.01542,-1.17787 -1.79381,-1.17811 -0.47656,4.7e-4 -0.93664,0.17517 -1.29386,0.49125 -0.36876,-0.48761 -0.94292,-0.77486 -1.55325,-0.77686 z"
       id="path67" /><path
       id="path71"
       style="fill:#000000;stroke:none;stroke-width:0.499999;stroke-linecap:round;stroke-dasharray:none;stroke-opacity:1;paint-order:fill markers stroke"
       d="m 332.21503,175.49508 c 0,1.78848 0,3.57696 0,5.36544 1.61321,-1.20893 3.2261,-2.41829 4.83837,-3.62847 -1.61264,-0.74862 -3.22503,-1.49778 -4.83837,-2.24489 0,0.1693 0,0.33861 0,0.50792 z" /><path
       id="path72"
       style="fill:#552200;stroke:none;stroke-width:0.499999;stroke-linecap:round;stroke-dasharray:none;stroke-opacity:1;paint-order:fill markers stroke"
       d="m 332.21531,174.98721 c 1.65792,1.23025 3.51722,2.41009 4.43587,4.34124 0.54199,1.01941 0.9283,2.11156 1.34286,3.18405 0.87122,-1.19634 1.91593,-2.37399 2.23347,-3.85751 -0.0245,-1.2167 -0.28949,-2.40472 -0.56817,-3.58147 -0.36342,-1.30051 -1.25576,-2.49494 -2.55415,-2.96848 -0.80787,-0.34151 -1.67354,-0.51165 -2.53598,-0.64807 -0.78463,1.17675 -1.56926,2.35349 -2.3539,3.53024 z" /><path
       style="fill:#ffcc00;stroke:none;stroke-width:0.499999;stroke-linecap:round;stroke-dasharray:none;stroke-opacity:1;paint-order:fill markers stroke"
       d="m 334.72377,171.81108 c 4.30161,0.66925 4.66431,2.42401 5.21075,6.67628 -0.0458,1.10138 -1.84547,3.36528 -1.84547,3.36528 0,0 -0.97907,-2.8228 -2.06259,-4.12519 -0.9129,-1.09729 -3.36528,-2.82249 -3.36528,-2.82249 z"
       id="path73"
       sodipodi:nodetypes="cscscc" /></g></svg>
