<?xml version="1.0" encoding="UTF-8" standalone="no"?>
<!-- Created with Inkscape (http://www.inkscape.org/) -->

<svg
   width="1.7603703in"
   height="1.2611885in"
   viewBox="0 0 44.713404 32.034188"
   version="1.1"
   id="svg1"
   inkscape:version="1.3.2 (091e20e, 2023-11-25, custom)"
   sodipodi:docname="Aristotowl Explains Bitcoin.svg"
   xml:space="preserve"
   xmlns:inkscape="http://www.inkscape.org/namespaces/inkscape"
   xmlns:sodipodi="http://sodipodi.sourceforge.net/DTD/sodipodi-0.dtd"
   xmlns="http://www.w3.org/2000/svg"
   xmlns:svg="http://www.w3.org/2000/svg"><sodipodi:namedview
     id="namedview1"
     pagecolor="#ffffff"
     bordercolor="#000000"
     borderopacity="0.25"
     inkscape:showpageshadow="2"
     inkscape:pageopacity="0.0"
     inkscape:pagecheckerboard="0"
     inkscape:deskcolor="#d1d1d1"
     inkscape:document-units="in"
     inkscape:zoom="0.52850974"
     inkscape:cx="630.07353"
     inkscape:cy="638.58804"
     inkscape:window-width="1920"
     inkscape:window-height="1017"
     inkscape:window-x="-8"
     inkscape:window-y="-8"
     inkscape:window-maximized="1"
     inkscape:current-layer="layer1"><inkscape:page
       x="-7.5284611e-06"
       y="-9.8595279e-08"
       width="44.713406"
       height="32.034187"
       id="page9"
       margin="0"
       bleed="0" /></sodipodi:namedview><defs
     id="defs1"><inkscape:path-effect
       effect="spiro"
       id="path-effect29-7-8"
       is_visible="true"
       lpeversion="1" /><inkscape:path-effect
       effect="spiro"
       id="path-effect31-3-1"
       is_visible="true"
       lpeversion="1" /><clipPath
       clipPathUnits="userSpaceOnUse"
       id="clipPath77"><rect
         style="fill:#666666;fill-opacity:1;stroke:#f9f9f9;stroke-width:0.264583;stroke-linecap:round;stroke-dasharray:none;stroke-opacity:1;paint-order:fill markers stroke"
         id="rect77"
         width="51.579369"
         height="39.07431"
         x="355.26575"
         y="658.26898" /></clipPath></defs><g
     inkscape:label="Layer 1"
     inkscape:groupmode="layer"
     id="layer1"
     transform="translate(160.95425,-232.30417)"><g
       inkscape:label="Layer 1"
       id="g28-5-7"
       transform="matrix(0.90806381,0,0,0.90806381,-483.55822,-368.89385)"
       style="stroke-width:1.10124"
       clip-path="url(#clipPath77)"><path
         id="path10-9-4"
         style="fill:#333333;stroke-width:0.595237"
         sodipodi:type="inkscape:offset"
         inkscape:radius="0.18709117"
         inkscape:original="M 394.0957 661.72656 C 393.41819 661.81676 392.55917 664.01914 389.47656 665.77539 C 387.14366 664.39118 384.57072 663.67011 381.96094 663.66797 C 379.36041 663.68107 376.79701 664.40834 374.47461 665.79297 C 371.19476 663.93631 370.41156 661.56879 369.71094 661.73047 C 369.35083 661.81347 369.01041 662.56612 368.35938 664.39844 C 367.1544 667.78977 365.67021 675.23513 364.62695 683.23047 C 361.41144 686.50125 358.54492 692.17954 358.54492 698.56836 C 358.54492 708.56993 365.98904 719.59961 370.37891 719.59961 C 371.49321 719.5996 372.00268 718.87684 372.14453 717.63672 C 375.363 719.20834 379.01382 719.82958 382.40625 719.82812 C 382.46185 719.82812 382.51839 719.82811 382.57422 719.82812 C 385.78281 719.83012 388.97786 719.26671 391.8125 717.87695 C 391.99226 718.96699 392.50204 719.59961 393.54102 719.59961 C 397.93088 719.59961 405.37695 708.56993 405.37695 698.56836 C 405.37695 692.17954 402.50848 686.50125 399.29297 683.23047 C 398.24972 675.23514 396.76552 667.78977 395.56055 664.39844 C 394.84291 662.37867 394.50221 661.67243 394.0957 661.72656 z "
         d="m 394.07031,661.54102 c -0.26297,0.035 -0.45601,0.2295 -0.6875,0.48437 -0.23149,0.25488 -0.49707,0.58987 -0.83594,0.97656 -0.66434,0.75809 -1.6128,1.70653 -3.08007,2.5586 -2.33288,-1.36075 -4.90033,-2.07794 -7.50586,-2.08008 -2.59621,0.0131 -5.15423,0.73645 -7.47657,2.09765 -1.56302,-0.90192 -2.54236,-1.9135 -3.21679,-2.69531 -0.34364,-0.39834 -0.60781,-0.73725 -0.84375,-0.97851 -0.11797,-0.12063 -0.22825,-0.2175 -0.34961,-0.28516 -0.12136,-0.0677 -0.26621,-0.10263 -0.40625,-0.0703 -0.28809,0.0664 -0.47245,0.33468 -0.69141,0.77734 -0.21896,0.44266 -0.46671,1.09153 -0.79297,2.00977 -1.21472,3.41876 -2.69052,10.83343 -3.73437,18.81445 -3.23364,3.31527 -6.0918,9.00347 -6.0918,15.41797 0,5.0472 1.87375,10.33019 4.29883,14.36328 1.21254,2.01654 2.56285,3.72075 3.89648,4.92773 1.33364,1.20699 2.65036,1.92774 3.82618,1.92774 0.5976,-10e-6 1.07088,-0.20459 1.39062,-0.58203 0.27527,-0.32495 0.42102,-0.78054 0.50781,-1.30469 3.19838,1.5124 6.78767,2.11667 10.12891,2.11523 0.0556,0 0.11218,0 0.16797,0 3.15498,0.002 6.29764,-0.55235 9.11328,-1.88671 0.10252,0.46134 0.26033,0.86141 0.53125,1.14648 0.31611,0.33264 0.7648,0.51172 1.32227,0.51172 1.1758,0 2.49235,-0.72076 3.82617,-1.92774 1.33381,-1.20697 2.68565,-2.91119 3.89843,-4.92773 2.42557,-4.03309 4.29883,-9.31607 4.29883,-14.36328 0,-6.41454 -2.86011,-12.10273 -6.09375,-15.41797 -1.04383,-7.98101 -2.51965,-15.39569 -3.73437,-18.81445 -0.35965,-1.01221 -0.62289,-1.69622 -0.85938,-2.13867 -0.11824,-0.22123 -0.22966,-0.38518 -0.35742,-0.5 -0.12776,-0.11482 -0.29144,-0.17726 -0.44922,-0.15625 z"
         transform="translate(-1.0583333,0.52916667)" /><path
         style="fill:#dc602e;fill-opacity:1;stroke:none;stroke-width:0.437056;stroke-opacity:1"
         d="m 386.83115,668.38217 c -10.58678,0 -21.17354,0 -31.76032,0"
         id="path11-5-0" /><g
         id="g13-2-7"
         transform="translate(-61.623606,-0.52916663)"
         style="stroke-width:1.10124"><path
           id="path12-6-5"
           style="fill:#483e37;fill-opacity:1;stroke:#241f1c;stroke-width:0.140959;stroke-dasharray:none;stroke-opacity:1"
           d="m 447.09133,718.11571 a 0.75183533,0.75147233 0 0 0 -0.7698,0.73518 l -0.0734,3.08159 c -0.0516,0.007 -0.7673,0.0626 -1.56277,0.43175 -0.39779,0.18788 -0.82427,0.46039 -1.16894,0.88521 -0.34552,0.42091 -0.58242,1.0087 -0.57868,1.67827 0,0.43022 0.34894,0.77957 0.77945,0.77957 0.43043,0 0.77897,-0.34935 0.77897,-0.77957 0.005,-0.32886 0.092,-0.51662 0.23312,-0.699 0.1076,-0.13415 0.25857,-0.25551 0.4363,-0.35842 0.26357,-0.15441 0.5821,-0.25912 0.82772,-0.31597 0.10381,-0.0241 0.19002,-0.0395 0.25773,-0.0497 v 2.22966 c 0,0.43031 0.34855,0.77908 0.77897,0.77908 0.43114,0 0.77994,-0.34877 0.77994,-0.77908 v -2.23063 c 0.20275,0.0336 0.60028,0.11789 0.94886,0.2933 0.24182,0.11927 0.45083,0.27432 0.58496,0.44815 0.13336,0.17774 0.21586,0.36386 0.2196,0.6826 0,0.43021 0.34952,0.77957 0.77993,0.77957 0.43054,0 0.77898,-0.34947 0.77898,-0.77957 0.005,-0.66958 -0.23316,-1.25736 -0.57868,-1.67828 -0.25808,-0.31874 -0.56454,-0.55156 -0.86633,-0.72697 -0.45543,-0.2627 -0.90668,-0.40247 -1.25293,-0.48433 -0.34455,-0.0819 -0.58483,-0.10192 -0.61295,-0.10565 l -0.0318,-0.004 h -0.0276 l 0.0729,-3.04348 a 0.75183533,0.75147233 0 0 0 -0.7336,-0.76943 z" /><path
           id="path13-2-8"
           style="fill:#483e37;fill-opacity:1;stroke:#241f1c;stroke-width:0.141067"
           d="m 438.08182,718.11574 a 0.75183533,0.75147233 0 0 0 -0.7698,0.73517 l -0.0734,3.0816 c -0.0516,0.007 -0.7673,0.0626 -1.56277,0.43175 -0.39779,0.18787 -0.82427,0.46038 -1.16895,0.8852 -0.34551,0.42092 -0.58241,1.0087 -0.57867,1.67828 0,0.43021 0.34894,0.77957 0.77945,0.77957 0.43043,0 0.77897,-0.34936 0.77897,-0.77957 0.005,-0.32887 0.092,-0.51662 0.23312,-0.699 0.1076,-0.13416 0.25857,-0.25551 0.4363,-0.35842 0.26357,-0.15441 0.5821,-0.25912 0.82772,-0.31598 0.10381,-0.0241 0.19002,-0.0395 0.25773,-0.0497 v 2.22966 c 0,0.43031 0.34855,0.77909 0.77897,0.77909 0.43114,0 0.77994,-0.34878 0.77994,-0.77909 v -2.23062 c 0.20275,0.0336 0.60028,0.11788 0.94886,0.2933 0.24182,0.11926 0.45083,0.27432 0.58495,0.44815 0.13336,0.17774 0.21587,0.36386 0.21961,0.6826 0,0.4302 0.34952,0.77957 0.77993,0.77957 0.43054,0 0.77898,-0.34947 0.77898,-0.77957 0.005,-0.66958 -0.23316,-1.25736 -0.57868,-1.67828 -0.25808,-0.31875 -0.56454,-0.55156 -0.86633,-0.72698 -0.45543,-0.2627 -0.90668,-0.40246 -1.25293,-0.48433 -0.34455,-0.0819 -0.58483,-0.10191 -0.61295,-0.10564 l -0.0318,-0.004 h -0.0276 l 0.0729,-3.04347 a 0.75183533,0.75147233 0 0 0 -0.7336,-0.76943 z" /></g><g
         id="g16-2-1"
         transform="translate(-1.0583333,0.52916667)"
         style="stroke-width:1.10124"><path
           id="path14-0-5"
           style="fill:#0088aa;stroke-width:0.595237"
           d="m 394.1286,698.40255 c 0,10.00158 -4.97697,21.19757 -0.5871,21.19758 4.38987,0 11.83469,-11.0306 11.83469,-21.03218 0,-10.00159 -7.02646,-18.26924 -11.41635,-18.26924 -4.38986,10e-6 0.16876,8.10225 0.16876,18.10384 z"
           sodipodi:nodetypes="sssss" /><path
           id="path15-7-3"
           style="fill:#0088aa;stroke-width:0.595237"
           d="m 369.79134,698.40255 c 0,10.00158 4.97697,21.19757 0.5871,21.19758 -4.38987,0 -11.83469,-11.0306 -11.83469,-21.03218 0,-10.00159 7.02647,-18.26924 11.41635,-18.26924 4.38986,10e-6 -0.16876,8.10225 -0.16876,18.10384 z"
           sodipodi:nodetypes="sssss" /><path
           id="path16-7-1"
           style="fill:#0088aa;fill-opacity:1;stroke:none;stroke-width:0.93131;stroke-dasharray:none;stroke-opacity:1"
           d="m 369.71159,661.73111 c -0.36011,0.083 -0.70073,0.83444 -1.35177,2.66676 -2.81678,7.92768 -7.18056,37.98441 -3.79293,45.52272 3.35974,7.47622 11.11051,9.91002 17.83851,9.90712 0.0556,0 0.11236,-10e-6 0.16819,0 6.72798,0.004 13.41975,-2.43099 16.77947,-9.90712 3.38763,-7.53831 -0.97616,-37.59504 -3.79293,-45.52272 -1.91373,-5.38607 -1.15187,-1.43271 -6.08405,1.37729 -2.3329,-1.38421 -4.90634,-2.10603 -7.51612,-2.10817 -2.60053,0.0131 -5.16297,0.7406 -7.48537,2.12523 -3.27985,-1.85666 -4.06238,-4.22279 -4.763,-4.06111 z"
           inkscape:export-filename="kid1.svg"
           inkscape:export-xdpi="96"
           inkscape:export-ydpi="96"
           sodipodi:nodetypes="sssscsscccs" /></g><path
         sodipodi:type="star"
         style="fill:#2b1100;fill-opacity:1;stroke:none;stroke-width:0.495169;stroke-dasharray:none;stroke-opacity:1"
         id="path17-0-8"
         inkscape:flatsided="true"
         sodipodi:sides="3"
         sodipodi:cx="510.93915"
         sodipodi:cy="190.64336"
         sodipodi:r1="8.0535097"
         sodipodi:r2="4.0267549"
         sodipodi:arg1="1.5707963"
         sodipodi:arg2="2.6179939"
         inkscape:rounded="0"
         inkscape:randomized="0"
         d="m 510.93915,198.69687 -6.97455,-12.08027 13.94909,0 z"
         inkscape:transform-center-x="7.1434889e-06"
         inkscape:transform-center-y="0.62324112"
         transform="matrix(0.22849544,0,0,0.30955762,264.02255,623.999)" /><path
         d="m 380.19562,680.06718 -0.003,0.004 h 0.005 z m -0.005,0.009 -1.03269,1.66264 4.18742,3.90914 z"
         style="fill:#aa4400;stroke-width:0.0900901"
         id="path18-2-0" /><path
         d="m 382.37078,680.00285 -2.18356,0.0685 3.15753,5.57668 z"
         style="fill:#ff7f2a;stroke-width:0.0900901"
         id="path19-8-9" /><path
         style="fill:#2b1100;fill-opacity:1;stroke:none;stroke-width:0.926422;stroke-opacity:1"
         d="m 382.06722,671.18309 1.79608,-3.80356 5.32545,-2.41769 1.2975,-0.18843 -1.47803,2.40702 6.04295,-2.10089 0.12155,1.4757 5.30137,-1.43717 -1.85936,2.52595 z"
         id="path20-6-8" /><g
         id="g22-5-6"
         transform="matrix(0.88264022,0,0,0.88264022,-83.281483,361.82119)"
         style="stroke-width:1.24767"><circle
           style="fill:#ffffff;fill-opacity:1;stroke:none;stroke-width:0.916965;stroke-dasharray:none;stroke-opacity:1"
           id="circle20-2-1"
           cx="-519.75391"
           cy="356.56848"
           transform="scale(-1,1)"
           r="5.700345" /><circle
           style="fill:#ffffff;fill-opacity:1;stroke:none;stroke-width:0.916965;stroke-dasharray:none;stroke-opacity:1"
           id="circle21-1-6"
           cx="531.82928"
           cy="356.56848"
           r="5.700345" /><ellipse
           style="fill:#000000;fill-opacity:1;stroke:none;stroke-width:0.489199;stroke-dasharray:none;stroke-opacity:1"
           id="ellipse21-1-4"
           cx="-530.70746"
           cy="357.33667"
           transform="scale(-1,1)"
           rx="1.4898629"
           ry="2.0340607" /><ellipse
           style="fill:#000000;fill-opacity:1;stroke:none;stroke-width:0.489199;stroke-dasharray:none;stroke-opacity:1"
           id="ellipse22-1-1"
           cx="-520.75684"
           cy="357.33667"
           transform="scale(-1,1)"
           rx="1.4898629"
           ry="2.0340607" /></g><path
         style="fill:#2b1100;fill-opacity:1;stroke:none;stroke-width:0.926422;stroke-opacity:1"
         d="m 379.50233,671.18309 -1.79607,-3.80356 -5.32546,-2.41769 -1.2975,-0.18843 1.47803,2.40702 -6.04295,-2.10089 -0.12154,1.4757 -5.30138,-1.43717 1.85936,2.52595 z"
         id="path22-1-1" /><g
         id="g26-5-5"
         transform="translate(-0.65410945,1.0303486)"
         style="stroke-width:1.10124"><path
           id="path23-5-4"
           style="fill:#d38d5f;stroke:#00222b;stroke-width:0.143162;stroke-dasharray:none;stroke-opacity:1"
           d="m 387.46984,688.98694 -0.16588,0.41238 c -0.0199,-0.0232 -0.0377,-0.0484 -0.0589,-0.0703 h -5.1e-4 l -1.76734,5.01416 -1.74873,-4.05195 -1.59008,5.10925 -1.98748,-4.05247 -1.98696,3.08354 -1.10794,-5.07514 c -0.10846,0.004 -0.21287,0.0226 -0.31368,0.0501 l -1.75803,3.35122 -0.68678,-1.61231 c -0.2802,0.29526 -0.45375,0.68453 -0.45372,1.11518 0,0.0852 0.008,0.16889 0.0196,0.25063 -0.54061,0.28144 -0.9074,0.83099 -0.90744,1.46244 0,0.24426 0.0549,0.47528 0.15348,0.6842 -0.41531,0.30377 -0.68319,0.7833 -0.68316,1.32292 2e-5,0.21762 0.0441,0.42552 0.12351,0.61598 0.0195,-0.0181 0.0388,-0.0359 0.0594,-0.0532 a 1.7333944,1.6626433 0 0 0 -0.58652,1.24489 1.7333944,1.6626433 0 0 0 0.59117,1.24953 c -0.0541,-0.0456 -0.10611,-0.0936 -0.15399,-0.14521 -0.39302,0.30483 -0.64446,0.77088 -0.64441,1.29347 3e-5,0.53677 0.26535,1.01378 0.67696,1.31774 -0.13318,0.23551 -0.2088,0.50541 -0.20877,0.7922 3e-5,0.8331 0.63934,1.52257 1.47278,1.64331 -0.17358,0.25895 -0.27542,0.56687 -0.27544,0.89762 -6e-5,0.69369 0.44348,1.28755 1.07281,1.53686 -0.0185,0.0975 -0.0289,0.19817 -0.0289,0.30076 3e-5,0.91818 0.77648,1.6629 1.73374,1.66295 0.14177,3e-5 0.27899,-0.0178 0.41083,-0.0486 v 0.008 c 5e-5,0.91827 0.77642,1.6625 1.73374,1.66243 0.34992,0 0.67534,-0.0993 0.94775,-0.27027 0.28978,0.5301 0.86854,0.89199 1.53582,0.89194 0.51476,-2e-5 0.97705,-0.21583 1.2945,-0.55759 0.31048,0.28118 0.72887,0.45375 1.18959,0.45372 0.66724,-3e-5 1.24561,-0.36237 1.53531,-0.89246 0.27248,0.17109 0.59879,0.27131 0.94878,0.27131 0.95726,-5e-5 1.73266,-0.74428 1.73271,-1.66243 0,-0.0482 -0.004,-0.0965 -0.008,-0.14367 0.18514,0.0647 0.38531,0.10026 0.59376,0.10026 0.95725,-6e-5 1.73318,-0.74477 1.73323,-1.66295 -1e-5,-0.25266 -0.0592,-0.49096 -0.16433,-0.70538 0.77923,-0.1628 1.36264,-0.82798 1.36271,-1.62419 0,-0.2134 -0.0432,-0.41819 -0.11938,-0.60565 0.4471,-0.30068 0.73998,-0.79714 0.74001,-1.36064 3e-5,-0.46672 -0.20012,-0.88866 -0.52297,-1.19063 0.32281,-0.30196 0.52294,-0.72398 0.52297,-1.19062 10e-6,-0.33919 -0.1055,-0.65373 -0.28732,-0.91674 0.36627,-0.30483 0.59838,-0.7546 0.59841,-1.25626 3e-5,-0.61368 -0.34731,-1.14902 -0.863,-1.43712 0.0259,-0.11433 0.0398,-0.23274 0.0398,-0.3545 3e-5,-0.43811 -0.17693,-0.8373 -0.46561,-1.1343 0.0852,-0.19644 0.13281,-0.41165 0.13281,-0.63768 -10e-6,-0.58567 -0.31665,-1.10013 -0.79375,-1.3963 7.9e-4,-0.0196 0.003,-0.0388 0.003,-0.0589 -4e-5,-0.72486 -0.48602,-1.33674 -1.16065,-1.56425 l -0.58963,0.91054 -0.49196,-1.83244 c -0.01,-0.003 -0.0202,-0.003 -0.03,-0.006 z" /><path
           style="fill:none;fill-opacity:1;stroke:#00222b;stroke-width:0.231261;stroke-linecap:round;stroke-dasharray:none;stroke-opacity:1"
           d="m 373.01278,688.15395 1.98731,4.66849 1.98729,-3.78765 1.19237,5.46125 1.98732,-3.08296 1.98729,4.0519 1.58985,-5.10891 1.74883,4.05189 1.98729,-5.63743 0.87441,3.25914 2.22578,-3.43529 v 0"
           id="path24-0-6" /><path
           style="fill:none;stroke:#004455;stroke-width:0.330373;stroke-opacity:1;paint-order:fill markers stroke"
           d="m 432.82962,618.42157 c -1.50744,-2.05163 -2.568,-4.42984 -3.08697,-6.92227 -0.24328,-1.16839 -0.36885,-2.36126 -0.37418,-3.5547"
           id="path25-3-2"
           inkscape:path-effect="#path-effect29-7-8"
           inkscape:original-d="m 432.82962,618.42157 c -0.96663,-2.12034 -2.02679,-4.61486 -3.08697,-6.92227 -1.06016,-2.30743 -0.24945,-2.30743 -0.37418,-3.5547"
           transform="rotate(180,400.6914,660.46972)" /><path
           style="fill:none;stroke:#004455;stroke-width:0.330373;stroke-opacity:1;paint-order:fill markers stroke"
           d="m 432.82962,618.42157 c -1.50744,-2.05163 -2.568,-4.42984 -3.08697,-6.92227 -0.24328,-1.16839 -0.36885,-2.36126 -0.37418,-3.5547"
           id="path26-3-2"
           inkscape:path-effect="#path-effect31-3-1"
           inkscape:original-d="m 432.82962,618.42157 c -0.96663,-2.12034 -2.02679,-4.61486 -3.08697,-6.92227 -1.06016,-2.30743 -0.24945,-2.30743 -0.37418,-3.5547"
           transform="matrix(1,0,0,-1,-38.271324,1320.9394)" /></g><path
         style="font-variation-settings:normal;opacity:1;fill:#0088aa;fill-opacity:1;stroke:#004455;stroke-width:0.140959;stroke-linecap:round;stroke-linejoin:miter;stroke-miterlimit:4;stroke-dasharray:none;stroke-dashoffset:0;stroke-opacity:1;paint-order:fill markers stroke"
         d="m 374.14903,718.57926 0.90448,1.65507 0.41111,-0.77239 0.43851,1.26891 0.57558,-0.96546 0.3563,0.68961 0.49333,-0.74479 0.49334,0.7172 1.15111,-1.90333"
         id="path27-5-1" /><path
         style="font-variation-settings:normal;opacity:1;fill:#0088aa;fill-opacity:1;stroke:#004455;stroke-width:0.140959;stroke-linecap:round;stroke-linejoin:miter;stroke-miterlimit:4;stroke-dasharray:none;stroke-dashoffset:0;stroke-opacity:1;paint-order:fill markers stroke"
         d="m 387.76595,718.81312 -0.90448,1.65507 -0.41111,-0.77239 -0.43851,1.26891 -0.57558,-0.96546 -0.3563,0.68961 -0.49333,-0.74479 -0.49334,0.7172 -1.15111,-1.90333"
         id="path28-0-4" /></g></g><style
     type="text/css"
     id="style1">
	.st0{fill:#000000;}
</style><style
     type="text/css"
     id="style1-1">
	.st0{fill:#000000;}
</style><style
     type="text/css"
     id="style1-2">
	.st0{fill:#000000;}
</style></svg>
