<?xml version="1.0" encoding="UTF-8" standalone="no"?>
<!-- Created with Inkscape (http://www.inkscape.org/) -->

<svg
   width="47.913467mm"
   height="35.498165mm"
   viewBox="0 0 47.913467 35.498165"
   version="1.1"
   id="svg1"
   inkscape:version="1.3.2 (091e20e, 2023-11-25, custom)"
   sodipodi:docname="web-home page.svg"
   xml:space="preserve"
   xmlns:inkscape="http://www.inkscape.org/namespaces/inkscape"
   xmlns:sodipodi="http://sodipodi.sourceforge.net/DTD/sodipodi-0.dtd"
   xmlns:xlink="http://www.w3.org/1999/xlink"
   xmlns="http://www.w3.org/2000/svg"
   xmlns:svg="http://www.w3.org/2000/svg"><sodipodi:namedview
     id="namedview1"
     pagecolor="#333333"
     bordercolor="#000000"
     borderopacity="0.25"
     inkscape:showpageshadow="2"
     inkscape:pageopacity="0.0"
     inkscape:pagecheckerboard="0"
     inkscape:deskcolor="#d1d1d1"
     inkscape:document-units="mm"
     inkscape:zoom="1.2651426"
     inkscape:cx="410.62566"
     inkscape:cy="1375.7343"
     inkscape:window-width="1920"
     inkscape:window-height="1017"
     inkscape:window-x="-8"
     inkscape:window-y="-8"
     inkscape:window-maximized="1"
     inkscape:current-layer="layer1"
     showguides="true"><sodipodi:guide
       position="-376.64241,9.6261916"
       orientation="1,0"
       id="guide313"
       inkscape:locked="false" /><sodipodi:guide
       position="-356.56562,23.010712"
       orientation="1,0"
       id="guide314"
       inkscape:locked="false" /><sodipodi:guide
       position="-372.56431,43.192067"
       orientation="1,0"
       id="guide315"
       inkscape:locked="false" /><sodipodi:guide
       position="-360.53915,9.9398816"
       orientation="1,0"
       id="guide316"
       inkscape:locked="false" /></sodipodi:namedview><defs
     id="defs1"><inkscape:path-effect
       effect="spiro"
       id="path-effect338"
       is_visible="true"
       lpeversion="1" /><inkscape:path-effect
       effect="spiro"
       id="path-effect336"
       is_visible="true"
       lpeversion="1" /><clipPath
       clipPathUnits="userSpaceOnUse"
       id="clipPath271-0-7"><g
         id="g272-2-4"><path
           style="opacity:1;fill:none;fill-opacity:1;stroke:none;stroke-width:0.287575;stroke-linecap:round;stroke-linejoin:miter;stroke-miterlimit:4;stroke-dasharray:none;stroke-dashoffset:0;stroke-opacity:1;paint-order:fill markers stroke"
           d="m -143.82531,296.74395 0.53099,34.16031 h 60.355783 l 0.353994,-39.64718 z"
           id="path272-8-8" /></g></clipPath><clipPath
       clipPathUnits="userSpaceOnUse"
       id="clipPath269-0-8"><g
         id="g270-5-0"><path
           style="opacity:1;fill:none;fill-opacity:1;stroke:none;stroke-width:0.287575;stroke-linecap:round;stroke-linejoin:miter;stroke-miterlimit:4;stroke-dasharray:none;stroke-dashoffset:0;stroke-opacity:1;paint-order:fill markers stroke"
           d="m -143.82531,296.74395 0.53099,34.16031 h 60.355783 l 0.353994,-39.64718 z"
           id="path270-1-3" /></g></clipPath><clipPath
       clipPathUnits="userSpaceOnUse"
       id="clipPath266-4-6"><g
         id="g267-1-2"
         transform="matrix(4.753862,0,0,3.5089938,1047.9947,-924.27184)"><path
           style="opacity:1;fill:none;fill-opacity:1;stroke:none;stroke-width:0.287575;stroke-linecap:round;stroke-linejoin:miter;stroke-miterlimit:4;stroke-dasharray:none;stroke-dashoffset:0;stroke-opacity:1;paint-order:fill markers stroke"
           d="m -143.82531,296.74395 0.53099,34.16031 h 60.355783 l 0.353994,-39.64718 z"
           id="path267-6-9" /></g></clipPath><clipPath
       clipPathUnits="userSpaceOnUse"
       id="clipPath265-2-8"><g
         id="g266-0-0"><path
           style="opacity:1;fill:none;fill-opacity:1;stroke:none;stroke-width:0.287575;stroke-linecap:round;stroke-linejoin:miter;stroke-miterlimit:4;stroke-dasharray:none;stroke-dashoffset:0;stroke-opacity:1;paint-order:fill markers stroke"
           d="m -143.82531,296.74395 0.53099,34.16031 h 60.355783 l 0.353994,-39.64718 z"
           id="path266-6-8" /></g></clipPath><clipPath
       clipPathUnits="userSpaceOnUse"
       id="clipPath264-5-0"><g
         id="g265-4-9"><path
           style="opacity:1;fill:none;fill-opacity:1;stroke:none;stroke-width:0.287575;stroke-linecap:round;stroke-linejoin:miter;stroke-miterlimit:4;stroke-dasharray:none;stroke-dashoffset:0;stroke-opacity:1;paint-order:fill markers stroke"
           d="m -143.82531,296.74395 0.53099,34.16031 h 60.355783 l 0.353994,-39.64718 z"
           id="path265-7-0" /></g></clipPath><clipPath
       clipPathUnits="userSpaceOnUse"
       id="clipPath263-3-9"><g
         id="g264-4-4"><path
           style="opacity:1;fill:none;fill-opacity:1;stroke:none;stroke-width:0.287575;stroke-linecap:round;stroke-linejoin:miter;stroke-miterlimit:4;stroke-dasharray:none;stroke-dashoffset:0;stroke-opacity:1;paint-order:fill markers stroke"
           d="m -143.82531,296.74395 0.53099,34.16031 h 60.355783 l 0.353994,-39.64718 z"
           id="path264-5-0" /></g></clipPath><clipPath
       clipPathUnits="userSpaceOnUse"
       id="clipPath262-4-4"><g
         id="g263-4-5"><path
           style="opacity:1;fill:none;fill-opacity:1;stroke:none;stroke-width:0.287575;stroke-linecap:round;stroke-linejoin:miter;stroke-miterlimit:4;stroke-dasharray:none;stroke-dashoffset:0;stroke-opacity:1;paint-order:fill markers stroke"
           d="m -143.82531,296.74395 0.53099,34.16031 h 60.355783 l 0.353994,-39.64718 z"
           id="path263-9-0" /></g></clipPath><clipPath
       clipPathUnits="userSpaceOnUse"
       id="clipPath259-3-4"><g
         id="g260-2-6"
         transform="scale(-1,1)"><path
           style="opacity:1;fill:none;fill-opacity:1;stroke:none;stroke-width:0.287575;stroke-linecap:round;stroke-linejoin:miter;stroke-miterlimit:4;stroke-dasharray:none;stroke-dashoffset:0;stroke-opacity:1;paint-order:fill markers stroke"
           d="m -143.82531,296.74395 0.53099,34.16031 h 60.355783 l 0.353994,-39.64718 z"
           id="path260-0-8" /></g></clipPath><clipPath
       clipPathUnits="userSpaceOnUse"
       id="clipPath258-9-1"><g
         id="g259-3-9"><path
           style="opacity:1;fill:none;fill-opacity:1;stroke:none;stroke-width:0.287575;stroke-linecap:round;stroke-linejoin:miter;stroke-miterlimit:4;stroke-dasharray:none;stroke-dashoffset:0;stroke-opacity:1;paint-order:fill markers stroke"
           d="m -143.82531,296.74395 0.53099,34.16031 h 60.355783 l 0.353994,-39.64718 z"
           id="path259-7-3" /></g></clipPath><clipPath
       clipPathUnits="userSpaceOnUse"
       id="clipPath257-1-9"><g
         id="g258-4-9"
         transform="matrix(1.478504,-0.47226856,0.47226856,1.478504,563.98648,-154.1281)"><path
           style="opacity:1;fill:none;fill-opacity:1;stroke:none;stroke-width:0.287575;stroke-linecap:round;stroke-linejoin:miter;stroke-miterlimit:4;stroke-dasharray:none;stroke-dashoffset:0;stroke-opacity:1;paint-order:fill markers stroke"
           d="m -143.82531,296.74395 0.53099,34.16031 h 60.355783 l 0.353994,-39.64718 z"
           id="path258-3-0" /></g></clipPath><clipPath
       clipPathUnits="userSpaceOnUse"
       id="clipPath256-8-8"><g
         id="g257-9-4"
         transform="matrix(-1.478504,0.47226856,0.47226856,1.478504,229.38439,-47.248403)"><path
           style="opacity:1;fill:none;fill-opacity:1;stroke:none;stroke-width:0.287575;stroke-linecap:round;stroke-linejoin:miter;stroke-miterlimit:4;stroke-dasharray:none;stroke-dashoffset:0;stroke-opacity:1;paint-order:fill markers stroke"
           d="m -143.82531,296.74395 0.53099,34.16031 h 60.355783 l 0.353994,-39.64718 z"
           id="path257-3-7" /></g></clipPath><clipPath
       clipPathUnits="userSpaceOnUse"
       id="clipPath255-5-0"><g
         id="g256-1-2"
         transform="scale(-1,1)"><path
           style="opacity:1;fill:none;fill-opacity:1;stroke:none;stroke-width:0.287575;stroke-linecap:round;stroke-linejoin:miter;stroke-miterlimit:4;stroke-dasharray:none;stroke-dashoffset:0;stroke-opacity:1;paint-order:fill markers stroke"
           d="m -143.82531,296.74395 0.53099,34.16031 h 60.355783 l 0.353994,-39.64718 z"
           id="path256-1-7" /></g></clipPath><clipPath
       clipPathUnits="userSpaceOnUse"
       id="clipPath254-8-6"><g
         id="g255-7-4"
         transform="scale(-1,1)"><path
           style="opacity:1;fill:none;fill-opacity:1;stroke:none;stroke-width:0.287575;stroke-linecap:round;stroke-linejoin:miter;stroke-miterlimit:4;stroke-dasharray:none;stroke-dashoffset:0;stroke-opacity:1;paint-order:fill markers stroke"
           d="m -143.82531,296.74395 0.53099,34.16031 h 60.355783 l 0.353994,-39.64718 z"
           id="path255-7-6" /></g></clipPath><mask
       maskUnits="userSpaceOnUse"
       id="mask338"><g
         id="g351"
         style="fill:#333333;fill-opacity:0.720508;stroke:#273343;stroke-width:0.999678;stroke-dasharray:none;stroke-opacity:0.112523"><path
           id="path338"
           style="fill:#333333;fill-opacity:0.720508;stroke:#273343;stroke-width:0.999678;stroke-linecap:round;stroke-dasharray:none;stroke-opacity:0.112523;paint-order:fill markers stroke"
           d="m 16.23423,261.92339 a 16.044928,16.044928 0 0 1 22.60607,1.96084 16.044928,16.044928 0 0 1 -1.96084,22.60607 16.044928,16.044928 0 0 1 -22.60607,-1.96085 16.044928,16.044928 0 0 1 1.96084,-22.60606 z" /><ellipse
           style="fill:#333333;fill-opacity:0.720508;stroke:#273343;stroke-width:0.99995;stroke-linecap:round;stroke-linejoin:miter;stroke-miterlimit:4;stroke-dasharray:none;stroke-dashoffset:0;stroke-opacity:0.112523;paint-order:fill markers stroke"
           id="ellipse338"
           cx="-206.40387"
           cy="-190.03181"
           transform="matrix(-0.75551603,-0.65513017,0.67967593,-0.73351253,0,0)"
           rx="12.174186"
           ry="12.285628" /><path
           id="path339"
           style="fill:#333333;fill-opacity:0.720508;stroke:#273343;stroke-width:1.14066;stroke-linecap:round;stroke-dasharray:none;stroke-opacity:0.112523;paint-order:fill markers stroke"
           sodipodi:type="inkscape:offset"
           inkscape:radius="0.62808639"
           inkscape:original="M -74.347656 433.62891 L -84.384766 434.6875 L -81.894531 446.68555 L -74.347656 453.86914 L -66.695312 446.68555 L -64.308594 434.6875 L -74.347656 433.62891 z "
           d="m -74.414062,433.00391 -10.03711,1.05859 A 0.6281492,0.6281492 0 0 0 -85,434.81445 l 2.490234,11.99805 a 0.6281492,0.6281492 0 0 0 0.181641,0.32812 l 7.546875,7.1836 a 0.6281492,0.6281492 0 0 0 0.863281,0.002 l 7.652344,-7.18359 a 0.6281492,0.6281492 0 0 0 0.185547,-0.33399 l 2.386719,-11.99804 a 0.6281492,0.6281492 0 0 0 -0.548828,-0.74805 l -10.039063,-1.05859 a 0.6281492,0.6281492 0 0 0 -0.132812,0 z"
           transform="matrix(0.87640651,0,0,0.87640651,91.89231,-113.464)" /><path
           id="path340"
           style="fill:#333333;fill-opacity:0.720508;stroke:#273343;stroke-width:0.999678;stroke-linecap:round;stroke-dasharray:none;stroke-opacity:0.112523;paint-order:fill markers stroke"
           d="m 17.93653,267.49812 8.79771,-0.92753 8.79772,0.92753 -2.09114,10.51672 -6.70658,6.29561 -6.61494,-6.29561 z"
           sodipodi:nodetypes="ccccccc" /><g
           id="g350"
           transform="translate(-97.765006,-160.33712)"
           style="fill:#333333;fill-opacity:0.720508;stroke:#273343;stroke-width:0.999678;stroke-dasharray:none;stroke-opacity:0.112523"><path
             id="path341"
             clip-path="url(#clipPath271-0-7)"
             style="fill:#333333;fill-opacity:0.720508;stroke:#273343;stroke-width:3.39357;stroke-dasharray:none;stroke-opacity:0.112523"
             d="m -101.67235,299.15952 c -0.62372,0.0831 -1.41406,2.11111 -4.25193,3.72794 -2.14769,-1.27432 -4.51688,-1.93901 -6.91948,-1.94097 -2.39408,0.0131 -4.75302,0.68176 -6.89105,1.95647 -3.01947,-1.70927 -3.73975,-3.88762 -4.38475,-3.73879 -0.33152,0.0763 -0.64501,0.76829 -1.24436,2.45515 -0.42152,1.18632 -0.881,2.95001 -1.34101,5.03638 -1.82299,2.03844 -2.95123,4.85871 -2.95124,7.97522 -1e-5,1.48611 0.22905,4.21635 0.69247,5.6317 -0.0118,0.096 -0.0209,0.19278 -0.0326,0.28887 -2.35554,3.0926 -4.22455,7.57731 -4.22455,12.52534 0,9.20756 6.8541,19.36264 10.89546,19.36264 0.86908,0 1.33763,-0.47943 1.54047,-1.3193 2.68014,1.0878 5.60755,1.52977 8.35143,1.52859 h 0.15503 c 2.63426,0.001 5.25985,-0.40908 7.64863,-1.40405 0.219,0.7601 0.67991,1.19476 1.50378,1.19476 4.041366,0 10.895464,-10.15509 10.895464,-19.36264 0,-5.14006 -2.016396,-9.78111 -4.500501,-12.87984 -0.0035,-0.0284 -0.0063,-0.0569 -0.0098,-0.0853 0.440407,-1.45209 0.710039,-4.04584 0.710034,-5.48081 -8e-6,-3.11623 -1.128534,-5.93631 -2.951241,-7.9747 -0.460047,-2.08659 -0.91945,-3.85048 -1.341006,-5.0369 -0.66066,-1.85943 -0.97503,-2.50964 -1.34927,-2.4598 z"
             transform="matrix(0.29458056,0,0,0.29458056,157.73621,340.64183)" /><path
             style="fill:#333333;fill-opacity:0.720508;stroke:#273343;stroke-width:3.39357;stroke-dasharray:none;stroke-opacity:0.112523"
             d="m -107.13415,304.8003 c -9.7463,0 -19.49259,0 -29.23888,0"
             id="path342"
             clip-path="url(#clipPath269-0-8)"
             transform="matrix(0.29458056,0,0,0.29458056,157.73621,340.64183)" /><path
             sodipodi:type="star"
             style="fill:#333333;fill-opacity:0.720508;stroke:#273343;stroke-width:13.8602;stroke-dasharray:none;stroke-opacity:0.112523"
             id="path343"
             inkscape:flatsided="true"
             sodipodi:sides="3"
             sodipodi:cx="510.93915"
             sodipodi:cy="190.64336"
             sodipodi:r1="8.0535097"
             sodipodi:r2="4.0267549"
             sodipodi:arg1="1.5707963"
             sodipodi:arg2="2.6179939"
             inkscape:rounded="0"
             inkscape:randomized="0"
             d="m 510.93915,198.69687 -6.97455,-12.08027 13.94909,0 z"
             inkscape:transform-center-y="0.29599219"
             transform="matrix(0.06196659,0,0,0.08395015,92.795559,418.23459)"
             clip-path="url(#clipPath266-4-6)"
             inkscape:transform-center-x="-2.1979762e-06" /><path
             d="m -113.50109,315.01778 -0.003,0.003 h 0.004 z m -0.004,0.008 -0.95071,1.53066 3.85498,3.59878 z"
             style="fill:#333333;fill-opacity:0.720508;stroke:#273343;stroke-width:3.39357;stroke-dasharray:none;stroke-opacity:0.112523"
             id="path344"
             clip-path="url(#clipPath265-2-8)"
             transform="matrix(0.29458056,0,0,0.29458056,157.73621,340.64183)" /><path
             d="m -111.49861,314.95854 -2.01021,0.063 2.90685,5.13394 z"
             style="fill:#333333;fill-opacity:0.720508;stroke:#273343;stroke-width:3.39357;stroke-dasharray:none;stroke-opacity:0.112523"
             id="path345"
             clip-path="url(#clipPath264-5-0)"
             transform="matrix(0.29458056,0,0,0.29458056,157.73621,340.64183)" /><path
             id="path346"
             style="fill:#333333;fill-opacity:0.720508;stroke:#273343;stroke-width:3.39357;stroke-dasharray:none;stroke-opacity:0.112523"
             d="m -107.14836,324.7178 -0.1527,0.37965 c -0.0183,-0.0209 -0.0347,-0.0447 -0.0542,-0.0648 h -4.7e-4 l -1.62703,4.61609 -1.6099,-3.73026 -1.46384,4.70362 -1.8297,-3.73075 -1.82921,2.83872 -1.01998,-4.67222 c -0.0999,0.003 -0.19597,0.0209 -0.28879,0.046 l -1.61846,3.08515 -0.63225,-1.4843 c -0.25796,0.27184 -0.41773,0.63018 -0.4177,1.02664 0,0.0784 0.007,0.15555 0.018,0.23085 -0.49769,0.25907 -0.83537,0.76502 -0.8354,1.34634 0,0.22483 0.0505,0.43753 0.1413,0.62989 -0.38234,0.27966 -0.62895,0.72111 -0.62892,1.21788 2e-5,0.20026 0.0406,0.39173 0.11369,0.56707 0.018,-0.0157 0.0357,-0.0332 0.0546,-0.0489 a 1.595781,1.5306468 0 0 0 -0.53995,1.14606 1.595781,1.5306468 0 0 0 0.54423,1.15032 c -0.0498,-0.0418 -0.0977,-0.0863 -0.14177,-0.13359 -0.36182,0.28065 -0.59329,0.70969 -0.59325,1.1908 3e-5,0.49416 0.24428,0.93328 0.62322,1.21312 -0.12261,0.21673 -0.19223,0.46529 -0.1922,0.72931 2e-5,0.76697 0.58858,1.40169 1.35586,1.51286 -0.15982,0.23842 -0.25357,0.52187 -0.25357,0.82635 -5e-5,0.63863 0.40828,1.18533 0.98764,1.41485 -0.017,0.0897 -0.0266,0.18247 -0.0266,0.27688 3e-5,0.84528 0.71484,1.53089 1.5961,1.53094 0.13051,3e-5 0.25683,-0.0157 0.37822,-0.0447 v 0.008 c 4e-5,0.84536 0.71478,1.5305 1.5961,1.53044 0.32214,0 0.62172,-0.0915 0.8725,-0.24888 0.26678,0.48802 0.79959,0.82116 1.4139,0.82113 0.47389,-2e-5 0.89948,-0.19869 1.19172,-0.51332 0.28584,0.25882 0.67101,0.41772 1.09516,0.41769 0.61426,-3e-5 1.14672,-0.33361 1.41342,-0.8216 0.25084,0.15738 0.55125,0.24967 0.87346,0.24967 0.88126,-6e-5 1.5951,-0.68522 1.59515,-1.53045 0,-0.0444 -0.004,-0.0889 -0.007,-0.13228 0.17045,0.0596 0.35472,0.0923 0.54662,0.0923 0.88126,-5e-5 1.59559,-0.68565 1.59564,-1.53094 -2e-5,-0.23268 -0.0545,-0.45196 -0.1513,-0.64937 0.71737,-0.1498 1.25447,-0.76226 1.25453,-1.49526 0,-0.19633 -0.0397,-0.38498 -0.1099,-0.55755 0.4116,-0.27681 0.68123,-0.73387 0.68126,-1.25263 3e-5,-0.42966 -0.18423,-0.81809 -0.48146,-1.0961 0.29718,-0.27798 0.48143,-0.66649 0.48146,-1.0961 0,-0.31226 -0.0971,-0.60185 -0.26451,-0.84396 0.33718,-0.28064 0.55087,-0.6947 0.5509,-1.15652 2e-5,-0.56498 -0.31974,-1.0578 -0.79449,-1.32302 0.0238,-0.10536 0.0366,-0.21438 0.0366,-0.32638 2e-5,-0.40331 -0.16288,-0.77083 -0.42865,-1.04423 0.0784,-0.18091 0.12227,-0.37897 0.12227,-0.58707 0,-0.53918 -0.29151,-1.01279 -0.73073,-1.28543 7.1e-4,-0.0183 0.003,-0.0358 0.003,-0.0541 -3e-5,-0.66733 -0.44743,-1.23064 -1.0685,-1.44007 l -0.54282,0.83825 -0.4529,-1.68696 c -0.009,-0.003 -0.0186,-0.003 -0.0276,-0.005 z"
             clip-path="url(#clipPath263-3-9)"
             transform="matrix(0.29458056,0,0,0.29458056,157.73621,340.64183)" /><path
             style="fill:#333333;fill-opacity:0.720508;stroke:#273343;stroke-width:3.39357;stroke-linecap:round;stroke-dasharray:none;stroke-opacity:0.112523"
             d="m -120.45769,323.95094 1.82955,4.29789 1.82952,-3.48698 1.09771,5.0277 1.82955,-2.83821 1.82952,3.73024 1.46363,-4.70334 1.60999,3.73021 1.82952,-5.18986 0.80499,3.0004 2.04907,-3.16257 v 0"
             id="path347"
             clip-path="url(#clipPath262-4-4)"
             transform="matrix(0.29458056,0,0,0.29458056,157.73621,340.64183)" /><circle
             style="fill:#333333;fill-opacity:0.720508;stroke:#273343;stroke-width:3.39357;stroke-dasharray:none;stroke-opacity:0.112523"
             id="circle347"
             cx="117.96503"
             cy="312.31314"
             transform="matrix(-0.29458056,0,0,0.29458056,157.73621,340.64183)"
             r="4.631917"
             clip-path="url(#clipPath259-3-4)" /><circle
             style="fill:#333333;fill-opacity:0.720508;stroke:#273343;stroke-width:3.39357;stroke-dasharray:none;stroke-opacity:0.112523"
             id="circle348"
             cx="-107.40184"
             cy="312.31314"
             r="4.631917"
             clip-path="url(#clipPath258-9-1)"
             transform="matrix(0.29458056,0,0,0.29458056,157.73621,340.64183)" /><path
             style="fill:#333333;fill-opacity:0.720508;stroke:#273343;stroke-width:5.26715;stroke-dasharray:none;stroke-opacity:0.112523"
             d="m 536.83955,354.67395 c -2.43665,1.06826 -5.17961,1.18674 -7.83767,1.07214 -2.65807,-0.11461 -5.32088,-0.44534 -7.97118,-0.21224 -1.08193,0.0952 -2.18872,0.28221 -3.24015,0.01 -0.52571,-0.13613 -1.02896,-0.39185 -1.4035,-0.78507 -0.37455,-0.39322 -0.61032,-0.93152 -0.58187,-1.47383 0.0193,-0.36744 0.15766,-0.7243 0.37152,-1.0237 0.21387,-0.29941 0.50109,-0.5427 0.81974,-0.72665 0.63731,-0.36792 1.38328,-0.49694 2.11603,-0.56475 2.52114,-0.23331 5.0501,0.18361 7.56617,0.46642 2.51607,0.2828 5.11603,0.42451 7.53162,-0.33413 0.82482,-0.25904 1.63206,-0.62347 2.49475,-0.67993 0.43135,-0.0282 0.87357,0.0243 1.26838,0.2003 0.39481,0.17601 0.73915,0.48237 0.91668,0.8765 0.1444,0.32057 0.17367,0.68769 0.10586,1.03268 -0.0678,0.34499 -0.22969,0.66804 -0.44618,0.94507 -0.43298,0.55407 -1.06619,0.91491 -1.7102,1.19725 z"
             id="path348"
             sodipodi:nodetypes="sssssss"
             transform="matrix(0.18079553,0.05775031,-0.05775031,0.18079553,46.869025,335.93712)"
             clip-path="url(#clipPath257-1-9)"
             inkscape:original-d="m 536.83955,354.67395 c -0.79375,1.45521 -9.41475,0.99219 -15.80885,0.8599 -6.39408,-0.1323 -4.60815,-1.36703 -5.22552,-2.24896 -0.61736,-0.88196 0.88196,-1.91822 3.30729,-2.3151 1.21268,-0.19844 11.84011,0.24253 15.09779,0.13229 3.25768,-0.11024 1.98989,0.41892 4.67981,0.39687 5.37988,-0.0441 -1.25677,1.7198 -2.05052,3.175 z"
             inkscape:path-effect="#path-effect336" /><path
             style="fill:#333333;fill-opacity:0.720508;stroke:#273343;stroke-width:5.26715;stroke-dasharray:none;stroke-opacity:0.112523"
             d="m 536.83955,354.67395 c -2.43665,1.06826 -5.17961,1.18674 -7.83767,1.07214 -2.65807,-0.11461 -5.32088,-0.44534 -7.97118,-0.21224 -1.08193,0.0952 -2.18872,0.28221 -3.24015,0.01 -0.52571,-0.13613 -1.02896,-0.39185 -1.4035,-0.78507 -0.37455,-0.39322 -0.61032,-0.93152 -0.58187,-1.47383 0.0193,-0.36744 0.15766,-0.7243 0.37152,-1.0237 0.21387,-0.29941 0.50109,-0.5427 0.81974,-0.72665 0.63731,-0.36792 1.38328,-0.49694 2.11603,-0.56475 2.52114,-0.23331 5.0501,0.18361 7.56617,0.46642 2.51607,0.2828 5.11603,0.42451 7.53162,-0.33413 0.82482,-0.25904 1.63206,-0.62347 2.49475,-0.67993 0.43135,-0.0282 0.87357,0.0243 1.26838,0.2003 0.39481,0.17601 0.73915,0.48237 0.91668,0.8765 0.1444,0.32057 0.17367,0.68769 0.10586,1.03268 -0.0678,0.34499 -0.22969,0.66804 -0.44618,0.94507 -0.43298,0.55407 -1.06619,0.91491 -1.7102,1.19725 z"
             id="path349"
             sodipodi:nodetypes="sssssss"
             transform="matrix(-0.18079553,0.05775031,0.05775031,0.18079553,201.93649,335.93712)"
             clip-path="url(#clipPath256-8-8)"
             inkscape:original-d="m 536.83955,354.67395 c -0.79375,1.45521 -9.41475,0.99219 -15.80885,0.8599 -6.39408,-0.1323 -4.60815,-1.36703 -5.22552,-2.24896 -0.61736,-0.88196 0.88196,-1.91822 3.30729,-2.3151 1.21268,-0.19844 11.84011,0.24253 15.09779,0.13229 3.25768,-0.11024 1.98989,0.41892 4.67981,0.39687 5.37988,-0.0441 -1.25677,1.7198 -2.05052,3.175 z"
             inkscape:path-effect="#path-effect338" /><ellipse
             style="fill:#333333;fill-opacity:0.720508;stroke:#273343;stroke-width:3.39357;stroke-dasharray:none;stroke-opacity:0.112523"
             id="ellipse349"
             cx="117.73264"
             cy="312.6304"
             transform="matrix(-0.29458056,0,0,0.29458056,157.73621,340.64183)"
             rx="1.1656725"
             ry="1.5914544"
             clip-path="url(#clipPath255-5-0)" /><ellipse
             style="fill:#333333;fill-opacity:0.720508;stroke:#273343;stroke-width:3.39357;stroke-dasharray:none;stroke-opacity:0.112523"
             id="ellipse350"
             cx="107.70759"
             cy="312.6304"
             transform="matrix(-0.29458056,0,0,0.29458056,157.73621,340.64183)"
             rx="1.1656725"
             ry="1.5914544"
             clip-path="url(#clipPath254-8-6)" /></g><text
           xml:space="preserve"
           style="font-style:normal;font-variant:normal;font-weight:bold;font-stretch:normal;font-size:4.23333px;line-height:normal;font-family:'Century Gothic';-inkscape-font-specification:'Century Gothic, Bold';font-variant-ligatures:normal;font-variant-position:normal;font-variant-caps:normal;font-variant-numeric:normal;font-variant-alternates:normal;font-variant-east-asian:normal;text-indent:0;text-align:start;text-decoration-line:none;text-decoration-style:solid;text-decoration-color:#000000;letter-spacing:0.132292px;word-spacing:normal;text-transform:none;writing-mode:lr-tb;direction:ltr;text-orientation:mixed;dominant-baseline:auto;baseline-shift:baseline;white-space:normal;fill:#333333;fill-opacity:0.720508;stroke:#273343;stroke-width:0.999678;stroke-linecap:round;stroke-linejoin:miter;stroke-miterlimit:4;stroke-dasharray:none;stroke-dashoffset:0;stroke-opacity:0.112523;paint-order:fill markers stroke"
           id="text350"
           transform="translate(0,-0.52917)"><textPath
             xlink:href="#circle318-2"
             id="textPath350">Aristotowl</textPath></text><path
           id="path350"
           style="fill:#333333;fill-opacity:0.720508;stroke:#273343;stroke-width:0.999678;stroke-linecap:round;stroke-linejoin:miter;stroke-miterlimit:4;stroke-dasharray:none;stroke-dashoffset:0;stroke-opacity:0.112523;paint-order:fill markers stroke"
           sodipodi:type="inkscape:offset"
           inkscape:radius="0.63605434"
           inkscape:original="M 115.46289 444.9375 L 115.46289 449.53906 L 133.86719 449.53906 L 133.86719 444.9375 L 115.46289 444.9375 z "
           d="m 115.46289,444.30078 a 0.63611794,0.63611794 0 0 0 -0.63672,0.63672 v 4.60156 a 0.63611794,0.63611794 0 0 0 0.63672,0.63672 h 18.4043 a 0.63611794,0.63611794 0 0 0 0.63672,-0.63672 v -4.60156 a 0.63611794,0.63611794 0 0 0 -0.63672,-0.63672 z"
           transform="translate(-97.88372,-160.63288)" /><rect
           style="fill:#333333;fill-opacity:0.720508;stroke:#273343;stroke-width:0.999678;stroke-linecap:round;stroke-linejoin:miter;stroke-miterlimit:4;stroke-dasharray:none;stroke-dashoffset:0;stroke-opacity:0.112523;paint-order:fill markers stroke"
           id="rect350"
           width="18.403723"
           height="4.6009307"
           x="17.579529"
           y="284.30438" /><text
           xml:space="preserve"
           style="font-style:normal;font-variant:normal;font-weight:bold;font-stretch:normal;font-size:3.52778px;line-height:normal;font-family:'Century Gothic';-inkscape-font-specification:'Century Gothic, Bold';font-variant-ligatures:normal;font-variant-position:normal;font-variant-caps:normal;font-variant-numeric:normal;font-variant-alternates:normal;font-variant-east-asian:normal;text-indent:0;text-align:start;text-decoration-line:none;text-decoration-style:solid;text-decoration-color:#000000;letter-spacing:0.198437px;word-spacing:normal;text-transform:none;writing-mode:lr-tb;direction:ltr;text-orientation:mixed;dominant-baseline:auto;baseline-shift:baseline;white-space:normal;fill:#333333;fill-opacity:0.720508;stroke:#273343;stroke-width:0.999678;stroke-linecap:round;stroke-linejoin:miter;stroke-miterlimit:4;stroke-dasharray:none;stroke-dashoffset:0;stroke-opacity:0.112523;paint-order:fill markers stroke"
           id="text351"
           x="19.093323"
           y="287.58499"><tspan
             id="tspan350"
             style="font-style:normal;font-variant:normal;font-weight:bold;font-stretch:normal;font-size:3.52778px;font-family:'Century Gothic';-inkscape-font-specification:'Century Gothic, Bold';font-variant-ligatures:normal;font-variant-caps:normal;font-variant-numeric:normal;font-variant-east-asian:normal;letter-spacing:0.198437px;fill:#333333;fill-opacity:0.720508;stroke:#273343;stroke-width:0.999678;stroke-dasharray:none;stroke-opacity:0.112523">Explains</tspan></text></g></mask><inkscape:path-effect
       effect="spiro"
       id="path-effect58-2-6"
       is_visible="true"
       lpeversion="1" /><inkscape:path-effect
       effect="spiro"
       id="path-effect60-3-6"
       is_visible="true"
       lpeversion="1" /><clipPath
       clipPathUnits="userSpaceOnUse"
       id="clipPath24"><rect
         style="fill:#333333;fill-opacity:0.834846;stroke:none;stroke-width:0.11;stroke-linecap:round;stroke-linejoin:miter;stroke-miterlimit:4;stroke-dasharray:none;stroke-dashoffset:0;stroke-opacity:1;paint-order:fill markers stroke"
         id="rect24"
         width="52.036949"
         height="36.992252"
         x="246.72791"
         y="140.58716"
         ry="0.18364418" /></clipPath></defs><g
     inkscape:label="Layer 1"
     inkscape:groupmode="layer"
     id="layer1"
     transform="translate(-246.56154,-131.83372)"><ellipse
       style="opacity:1;fill:#cccccc;fill-opacity:1;stroke:#f9f9f9;stroke-width:0.3671;stroke-linecap:round;stroke-linejoin:miter;stroke-miterlimit:4;stroke-dasharray:none;stroke-dashoffset:0;stroke-opacity:1;paint-order:fill markers stroke"
       id="circle318"
       cx="-387.47949"
       cy="-247.29706"
       transform="matrix(-0.75551603,-0.65513017,0.67967593,-0.73351253,0,0)"
       rx="12.174186"
       ry="12.285628" /><text
       xml:space="preserve"
       style="font-style:normal;font-variant:normal;font-weight:bold;font-stretch:normal;font-size:4.23333px;line-height:normal;font-family:'Century Gothic';-inkscape-font-specification:'Century Gothic, Bold';font-variant-ligatures:normal;font-variant-position:normal;font-variant-caps:normal;font-variant-numeric:normal;font-variant-alternates:normal;font-variant-east-asian:normal;text-indent:0;text-align:start;text-decoration-line:none;text-decoration-style:solid;text-decoration-color:#000000;letter-spacing:0.132292px;word-spacing:normal;text-transform:none;writing-mode:lr-tb;direction:ltr;text-orientation:mixed;dominant-baseline:auto;baseline-shift:baseline;white-space:normal;opacity:1;fill:#ffffff;fill-opacity:1;stroke:none;stroke-width:0.0879999;stroke-linecap:round;stroke-linejoin:miter;stroke-miterlimit:4;stroke-dasharray:none;stroke-dashoffset:0;stroke-opacity:1;paint-order:fill markers stroke"
       id="text318"
       transform="translate(0,-0.52916667)"><textPath
         xlink:href="#circle318"
         id="textPath319">Aristotowl</textPath></text><g
       id="g322"
       transform="matrix(1.5094853,0,0,1.5094853,85.952011,-31.071959)"
       style="stroke:#273343;stroke-opacity:0.653358"
       mask="url(#mask338)"><ellipse
         style="fill:#cccccc;fill-opacity:1;stroke:#273343;stroke-width:0.3671;stroke-linecap:round;stroke-linejoin:miter;stroke-miterlimit:4;stroke-dasharray:none;stroke-dashoffset:0;stroke-opacity:0.653358;paint-order:fill markers stroke"
         id="circle318-2"
         cx="-206.40387"
         cy="-190.03181"
         transform="matrix(-0.75551603,-0.65513017,0.67967593,-0.73351253,0,0)"
         rx="12.174186"
         ry="12.285628" /><text
         xml:space="preserve"
         style="font-style:normal;font-variant:normal;font-weight:bold;font-stretch:normal;font-size:4.23333px;line-height:normal;font-family:'Century Gothic';-inkscape-font-specification:'Century Gothic, Bold';font-variant-ligatures:normal;font-variant-position:normal;font-variant-caps:normal;font-variant-numeric:normal;font-variant-alternates:normal;font-variant-east-asian:normal;text-indent:0;text-align:start;text-decoration-line:none;text-decoration-style:solid;text-decoration-color:#000000;letter-spacing:0.132292px;word-spacing:normal;text-transform:none;writing-mode:lr-tb;direction:ltr;text-orientation:mixed;dominant-baseline:auto;baseline-shift:baseline;white-space:normal;fill:#ffffff;fill-opacity:1;stroke:#273343;stroke-width:0.0879999;stroke-linecap:round;stroke-linejoin:miter;stroke-miterlimit:4;stroke-dasharray:none;stroke-dashoffset:0;stroke-opacity:0.653358;paint-order:fill markers stroke"
         id="text318-4"
         transform="translate(0,-0.52917)"><textPath
           xlink:href="#circle318-2"
           id="textPath319-1">Aristotowl</textPath></text></g><g
       id="g1"
       clip-path="url(#clipPath24)"
       transform="translate(-1.8821989,-10.247527)"><path
         id="path9-8"
         style="fill:#333333;stroke-width:0.552673"
         sodipodi:type="inkscape:offset"
         inkscape:radius="0.18709117"
         inkscape:original="M 394.0957 661.72656 C 393.41819 661.81676 392.55917 664.01914 389.47656 665.77539 C 387.14366 664.39118 384.57072 663.67011 381.96094 663.66797 C 379.36041 663.68107 376.79701 664.40834 374.47461 665.79297 C 371.19476 663.93631 370.41156 661.56879 369.71094 661.73047 C 369.35083 661.81347 369.01041 662.56612 368.35938 664.39844 C 367.1544 667.78977 365.67021 675.23513 364.62695 683.23047 C 361.41144 686.50125 358.54492 692.17954 358.54492 698.56836 C 358.54492 708.56993 365.98904 719.59961 370.37891 719.59961 C 371.49321 719.5996 372.00268 718.87684 372.14453 717.63672 C 375.363 719.20834 379.01382 719.82958 382.40625 719.82812 C 382.46185 719.82812 382.51839 719.82811 382.57422 719.82812 C 385.78281 719.83012 388.97786 719.26671 391.8125 717.87695 C 391.99226 718.96699 392.50204 719.59961 393.54102 719.59961 C 397.93088 719.59961 405.37695 708.56993 405.37695 698.56836 C 405.37695 692.17954 402.50848 686.50125 399.29297 683.23047 C 398.24972 675.23514 396.76552 667.78977 395.56055 664.39844 C 394.84291 662.37867 394.50221 661.67243 394.0957 661.72656 z "
         d="m 394.07031,661.54102 c -0.26297,0.035 -0.45601,0.2295 -0.6875,0.48437 -0.23149,0.25488 -0.49707,0.58987 -0.83594,0.97656 -0.66434,0.75809 -1.6128,1.70653 -3.08007,2.5586 -2.33288,-1.36075 -4.90033,-2.07794 -7.50586,-2.08008 -2.59621,0.0131 -5.15423,0.73645 -7.47657,2.09765 -1.56302,-0.90192 -2.54236,-1.9135 -3.21679,-2.69531 -0.34364,-0.39834 -0.60781,-0.73725 -0.84375,-0.97851 -0.11797,-0.12063 -0.22825,-0.2175 -0.34961,-0.28516 -0.12136,-0.0677 -0.26621,-0.10263 -0.40625,-0.0703 -0.28809,0.0664 -0.47245,0.33468 -0.69141,0.77734 -0.21896,0.44266 -0.46671,1.09153 -0.79297,2.00977 -1.21472,3.41876 -2.69052,10.83343 -3.73437,18.81445 -3.23364,3.31527 -6.0918,9.00347 -6.0918,15.41797 0,5.0472 1.87375,10.33019 4.29883,14.36328 1.21254,2.01654 2.56285,3.72075 3.89648,4.92773 1.33364,1.20699 2.65036,1.92774 3.82618,1.92774 0.5976,-10e-6 1.07088,-0.20459 1.39062,-0.58203 0.27527,-0.32495 0.42102,-0.78054 0.50781,-1.30469 3.19838,1.5124 6.78767,2.11667 10.12891,2.11523 0.0556,0 0.11218,0 0.16797,0 3.15498,0.002 6.29764,-0.55235 9.11328,-1.88671 0.10252,0.46134 0.26033,0.86141 0.53125,1.14648 0.31611,0.33264 0.7648,0.51172 1.32227,0.51172 1.1758,0 2.49235,-0.72076 3.82617,-1.92774 1.33381,-1.20697 2.68565,-2.91119 3.89843,-4.92773 2.42557,-4.03309 4.29883,-9.31607 4.29883,-14.36328 0,-6.41454 -2.86011,-12.10273 -6.09375,-15.41797 -1.04383,-7.98101 -2.51965,-15.39569 -3.73437,-18.81445 -0.35965,-1.01221 -0.62289,-1.69622 -0.85938,-2.13867 -0.11824,-0.22123 -0.22966,-0.38518 -0.35742,-0.5 -0.12776,-0.11482 -0.29144,-0.17726 -0.44922,-0.15625 z"
         transform="matrix(0.97789806,0.01404472,-0.01404472,0.97789806,-90.43446,-510.02752)" /><path
         style="fill:#dc602e;fill-opacity:1;stroke:none;stroke-width:0.396875;stroke-opacity:1"
         d="m 279.50211,148.51242 c -10.35279,-0.14868 -20.70557,-0.29737 -31.05836,-0.44605"
         id="path47-7-1-1-5-2" /><g
         id="g104-4"
         transform="matrix(0.97789806,0.01404472,-0.01404472,0.97789806,-149.64626,-511.91309)"
         style="stroke-width:1.02249"><path
           id="path99-9"
           style="fill:#483e37;fill-opacity:1;stroke:#241f1c;stroke-width:0.130879;stroke-dasharray:none;stroke-opacity:1"
           d="m 447.09133,718.11571 a 0.75183533,0.75147233 0 0 0 -0.7698,0.73518 l -0.0734,3.08159 c -0.0516,0.007 -0.7673,0.0626 -1.56277,0.43175 -0.39779,0.18788 -0.82427,0.46039 -1.16894,0.88521 -0.34552,0.42091 -0.58242,1.0087 -0.57868,1.67827 0,0.43022 0.34894,0.77957 0.77945,0.77957 0.43043,0 0.77897,-0.34935 0.77897,-0.77957 0.005,-0.32886 0.092,-0.51662 0.23312,-0.699 0.1076,-0.13415 0.25857,-0.25551 0.4363,-0.35842 0.26357,-0.15441 0.5821,-0.25912 0.82772,-0.31597 0.10381,-0.0241 0.19002,-0.0395 0.25773,-0.0497 v 2.22966 c 0,0.43031 0.34855,0.77908 0.77897,0.77908 0.43114,0 0.77994,-0.34877 0.77994,-0.77908 v -2.23063 c 0.20275,0.0336 0.60028,0.11789 0.94886,0.2933 0.24182,0.11927 0.45083,0.27432 0.58496,0.44815 0.13336,0.17774 0.21586,0.36386 0.2196,0.6826 0,0.43021 0.34952,0.77957 0.77993,0.77957 0.43054,0 0.77898,-0.34947 0.77898,-0.77957 0.005,-0.66958 -0.23316,-1.25736 -0.57868,-1.67828 -0.25808,-0.31874 -0.56454,-0.55156 -0.86633,-0.72697 -0.45543,-0.2627 -0.90668,-0.40247 -1.25293,-0.48433 -0.34455,-0.0819 -0.58483,-0.10192 -0.61295,-0.10565 l -0.0318,-0.004 h -0.0276 l 0.0729,-3.04348 a 0.75183533,0.75147233 0 0 0 -0.7336,-0.76943 z" /><path
           id="path104-1"
           style="fill:#483e37;fill-opacity:1;stroke:#241f1c;stroke-width:0.13098"
           d="m 438.08182,718.11574 a 0.75183533,0.75147233 0 0 0 -0.7698,0.73517 l -0.0734,3.0816 c -0.0516,0.007 -0.7673,0.0626 -1.56277,0.43175 -0.39779,0.18787 -0.82427,0.46038 -1.16895,0.8852 -0.34551,0.42092 -0.58241,1.0087 -0.57867,1.67828 0,0.43021 0.34894,0.77957 0.77945,0.77957 0.43043,0 0.77897,-0.34936 0.77897,-0.77957 0.005,-0.32887 0.092,-0.51662 0.23312,-0.699 0.1076,-0.13416 0.25857,-0.25551 0.4363,-0.35842 0.26357,-0.15441 0.5821,-0.25912 0.82772,-0.31598 0.10381,-0.0241 0.19002,-0.0395 0.25773,-0.0497 v 2.22966 c 0,0.43031 0.34855,0.77909 0.77897,0.77909 0.43114,0 0.77994,-0.34878 0.77994,-0.77909 v -2.23062 c 0.20275,0.0336 0.60028,0.11788 0.94886,0.2933 0.24182,0.11926 0.45083,0.27432 0.58495,0.44815 0.13336,0.17774 0.21587,0.36386 0.21961,0.6826 0,0.4302 0.34952,0.77957 0.77993,0.77957 0.43054,0 0.77898,-0.34947 0.77898,-0.77957 0.005,-0.66958 -0.23316,-1.25736 -0.57868,-1.67828 -0.25808,-0.31875 -0.56454,-0.55156 -0.86633,-0.72698 -0.45543,-0.2627 -0.90668,-0.40246 -1.25293,-0.48433 -0.34455,-0.0819 -0.58483,-0.10191 -0.61295,-0.10564 l -0.0318,-0.004 h -0.0276 l 0.0729,-3.04347 a 0.75183533,0.75147233 0 0 0 -0.7336,-0.76943 z" /></g><path
         id="path270-2-0-5-6-5"
         style="fill:#d1beb0;fill-opacity:1;stroke-width:0.540514"
         d="m 285.17427,178.4744 c -0.14048,9.78052 -5.16468,20.65916 -0.87184,20.72082 4.29284,0.0616 11.72804,-10.62058 11.86853,-20.4011 0.14047,-9.78053 -6.61458,-17.96414 -10.90744,-18.02579 -4.29284,-0.0617 0.0512,7.92554 -0.0892,17.70608 z"
         sodipodi:nodetypes="sssss" /><path
         id="path269-1-7-9-3-5"
         style="fill:#d1beb0;fill-opacity:1;stroke-width:0.540514"
         d="m 261.37491,178.13259 c -0.14047,9.78052 4.56925,20.79896 0.27641,20.73731 -4.29285,-0.0617 -11.4182,-10.95301 -11.27773,-20.73354 0.14046,-9.78054 7.12776,-17.76676 11.42061,-17.70511 4.29284,0.0617 -0.27882,7.9208 -0.41929,17.70134 z"
         sodipodi:nodetypes="sssss" /><path
         id="path3-23-09-4-8-8-1"
         style="fill:#d1beb0;fill-opacity:1;stroke:none;stroke-width:0.845689;stroke-dasharray:none;stroke-opacity:1"
         d="m 261.81196,142.27054 c -0.35332,0.0761 -0.69696,0.80615 -1.35935,2.58883 -2.86586,7.7129 -7.55533,37.04403 -4.34845,44.46331 3.18048,7.35816 10.72576,9.84703 17.30511,9.93868 0.0544,8e-4 0.10985,0.001 0.16447,0.002 6.57923,0.0984 13.1573,-2.18878 16.54775,-9.45249 3.41863,-7.32412 -0.42656,-36.77782 -3.06974,-44.56984 -1.79578,-5.29391 -1.10628,-1.41723 -5.96892,1.26139 -2.26189,-1.38639 -4.76832,-2.12839 -7.32039,-2.16713 -2.54323,-0.0237 -5.05926,0.65172 -7.34978,1.97313 -3.1813,-1.86167 -3.91328,-4.18651 -4.60069,-4.03825 z"
         inkscape:export-filename="kid1.svg"
         inkscape:export-xdpi="96"
         inkscape:export-ydpi="96"
         sodipodi:nodetypes="sssscsscccs" /><path
         sodipodi:type="star"
         style="fill:#2b1100;fill-opacity:1;stroke:none;stroke-width:0.45976;stroke-dasharray:none;stroke-opacity:1"
         id="path6-5-32-2-5-1-7"
         inkscape:flatsided="true"
         sodipodi:sides="3"
         sodipodi:cx="510.93915"
         sodipodi:cy="190.64336"
         sodipodi:r1="8.0535097"
         sodipodi:r2="4.0267549"
         sodipodi:arg1="1.5707963"
         sodipodi:arg2="2.6179939"
         inkscape:rounded="0"
         inkscape:randomized="0"
         d="m 510.93915,198.69687 -6.97455,-12.08027 13.94909,0 z"
         inkscape:transform-center-x="-0.1139346"
         inkscape:transform-center-y="1.1977707"
         transform="matrix(0.22344525,0.00320915,-0.00434765,0.30271579,160.03117,103.3854)" /><path
         d="m 272.84913,159.84598 -0.003,0.004 0.004,2.7e-4 z m -0.005,0.009 -1.03321,1.61138 4.03996,3.88156 z"
         style="fill:#aa4400;stroke-width:0.0818076"
         id="path148-9-0-2-1-8-6" /><path
         d="m 274.97711,159.81362 -2.13626,0.0363 3.00942,5.49777 z"
         style="fill:#ff7f2a;stroke-width:0.0818076"
         id="path147-1-1-8-0-3-1" /><path
         style="fill:#2b1100;fill-opacity:1;stroke:none;stroke-width:0.84125;stroke-opacity:1"
         d="m 274.80413,151.18453 1.8098,-3.69427 5.24171,-2.28945 1.27146,-0.16605 -1.47916,2.33306 5.9389,-1.96958 0.0981,1.44479 5.20439,-1.33095 -1.85374,2.44401 z"
         id="path241-7-55-4-3-6-0" /><g
         id="g262-7-4-5-0-0"
         transform="matrix(0.86313216,0.01239643,-0.01239643,0.86313216,-175.91456,-157.87556)"
         style="stroke-width:1.15845"><circle
           style="fill:#ffffff;fill-opacity:1;stroke:none;stroke-width:0.851394;stroke-dasharray:none;stroke-opacity:1"
           id="circle8-8-3-9-8-8-5"
           cx="-519.75391"
           cy="356.56848"
           transform="scale(-1,1)"
           r="5.700345" /><circle
           style="fill:#ffffff;fill-opacity:1;stroke:none;stroke-width:0.851394;stroke-dasharray:none;stroke-opacity:1"
           id="circle9-9-6-2-4-9-9"
           cx="531.82928"
           cy="356.56848"
           r="5.700345" /><ellipse
           style="fill:#000000;fill-opacity:1;stroke:none;stroke-width:0.454217;stroke-dasharray:none;stroke-opacity:1"
           id="ellipse9-2-0-8-2-4-9"
           cx="-530.70746"
           cy="357.33667"
           transform="scale(-1,1)"
           rx="1.4898629"
           ry="2.0340607" /><ellipse
           style="fill:#000000;fill-opacity:1;stroke:none;stroke-width:0.454217;stroke-dasharray:none;stroke-opacity:1"
           id="ellipse10-3-8-6-8-7-7"
           cx="-520.75684"
           cy="357.33667"
           transform="scale(-1,1)"
           rx="1.4898629"
           ry="2.0340607" /></g><path
         style="fill:#2b1100;fill-opacity:1;stroke:none;stroke-width:0.84125;stroke-opacity:1"
         d="m 272.29593,151.14851 -1.70295,-3.74472 -5.17381,-2.43905 -1.26617,-0.20249 1.41155,2.37458 -5.87988,-2.13932 -0.13958,1.44137 -5.16402,-1.47986 1.78279,2.49624 z"
         id="path262-2-2-8-3-5" /><g
         id="g98-2"
         transform="matrix(0.97789806,0.01404472,-0.01404472,0.97789806,-90.04621,-509.53174)"
         style="stroke-width:1.02249"><path
           id="path45-5-2"
           style="fill:#d38d5f;stroke:#00222b;stroke-width:0.132925;stroke-dasharray:none;stroke-opacity:1"
           d="m 387.46984,688.98694 -0.16588,0.41238 c -0.0199,-0.0232 -0.0377,-0.0484 -0.0589,-0.0703 h -5.1e-4 l -1.76734,5.01416 -1.74873,-4.05195 -1.59008,5.10925 -1.98748,-4.05247 -1.98696,3.08354 -1.10794,-5.07514 c -0.10846,0.004 -0.21287,0.0226 -0.31368,0.0501 l -1.75803,3.35122 -0.68678,-1.61231 c -0.2802,0.29526 -0.45375,0.68453 -0.45372,1.11518 0,0.0852 0.008,0.16889 0.0196,0.25063 -0.54061,0.28144 -0.9074,0.83099 -0.90744,1.46244 0,0.24426 0.0549,0.47528 0.15348,0.6842 -0.41531,0.30377 -0.68319,0.7833 -0.68316,1.32292 2e-5,0.21762 0.0441,0.42552 0.12351,0.61598 0.0195,-0.0181 0.0388,-0.0359 0.0594,-0.0532 a 1.7333944,1.6626433 0 0 0 -0.58652,1.24489 1.7333944,1.6626433 0 0 0 0.59117,1.24953 c -0.0541,-0.0456 -0.10611,-0.0936 -0.15399,-0.14521 -0.39302,0.30483 -0.64446,0.77088 -0.64441,1.29347 3e-5,0.53677 0.26535,1.01378 0.67696,1.31774 -0.13318,0.23551 -0.2088,0.50541 -0.20877,0.7922 3e-5,0.8331 0.63934,1.52257 1.47278,1.64331 -0.17358,0.25895 -0.27542,0.56687 -0.27544,0.89762 -6e-5,0.69369 0.44348,1.28755 1.07281,1.53686 -0.0185,0.0975 -0.0289,0.19817 -0.0289,0.30076 3e-5,0.91818 0.77648,1.6629 1.73374,1.66295 0.14177,3e-5 0.27899,-0.0178 0.41083,-0.0486 v 0.008 c 5e-5,0.91827 0.77642,1.6625 1.73374,1.66243 0.34992,0 0.67534,-0.0993 0.94775,-0.27027 0.28978,0.5301 0.86854,0.89199 1.53582,0.89194 0.51476,-2e-5 0.97705,-0.21583 1.2945,-0.55759 0.31048,0.28118 0.72887,0.45375 1.18959,0.45372 0.66724,-3e-5 1.24561,-0.36237 1.53531,-0.89246 0.27248,0.17109 0.59879,0.27131 0.94878,0.27131 0.95726,-5e-5 1.73266,-0.74428 1.73271,-1.66243 0,-0.0482 -0.004,-0.0965 -0.008,-0.14367 0.18514,0.0647 0.38531,0.10026 0.59376,0.10026 0.95725,-6e-5 1.73318,-0.74477 1.73323,-1.66295 -1e-5,-0.25266 -0.0592,-0.49096 -0.16433,-0.70538 0.77923,-0.1628 1.36264,-0.82798 1.36271,-1.62419 0,-0.2134 -0.0432,-0.41819 -0.11938,-0.60565 0.4471,-0.30068 0.73998,-0.79714 0.74001,-1.36064 3e-5,-0.46672 -0.20012,-0.88866 -0.52297,-1.19063 0.32281,-0.30196 0.52294,-0.72398 0.52297,-1.19062 10e-6,-0.33919 -0.1055,-0.65373 -0.28732,-0.91674 0.36627,-0.30483 0.59838,-0.7546 0.59841,-1.25626 3e-5,-0.61368 -0.34731,-1.14902 -0.863,-1.43712 0.0259,-0.11433 0.0398,-0.23274 0.0398,-0.3545 3e-5,-0.43811 -0.17693,-0.8373 -0.46561,-1.1343 0.0852,-0.19644 0.13281,-0.41165 0.13281,-0.63768 -10e-6,-0.58567 -0.31665,-1.10013 -0.79375,-1.3963 7.9e-4,-0.0196 0.003,-0.0388 0.003,-0.0589 -4e-5,-0.72486 -0.48602,-1.33674 -1.16065,-1.56425 l -0.58963,0.91054 -0.49196,-1.83244 c -0.01,-0.003 -0.0202,-0.003 -0.03,-0.006 z" /><path
           style="fill:none;fill-opacity:1;stroke:#00222b;stroke-width:0.214724;stroke-linecap:round;stroke-dasharray:none;stroke-opacity:1"
           d="m 373.01278,688.15395 1.98731,4.66849 1.98729,-3.78765 1.19237,5.46125 1.98732,-3.08296 1.98729,4.0519 1.58985,-5.10891 1.74883,4.05189 1.98729,-5.63743 0.87441,3.25914 2.22578,-3.43529 v 0"
           id="path46-9-0" /><path
           style="fill:none;stroke:#004455;stroke-width:0.306749;stroke-opacity:1;paint-order:fill markers stroke"
           d="m 432.82962,618.42157 c -1.50744,-2.05163 -2.568,-4.42984 -3.08697,-6.92227 -0.24328,-1.16839 -0.36885,-2.36126 -0.37418,-3.5547"
           id="path51-52-1"
           inkscape:path-effect="#path-effect58-2-6"
           inkscape:original-d="m 432.82962,618.42157 c -0.96663,-2.12034 -2.02679,-4.61486 -3.08697,-6.92227 -1.06016,-2.30743 -0.24945,-2.30743 -0.37418,-3.5547"
           transform="rotate(180,400.6914,660.46972)" /><path
           style="fill:none;stroke:#004455;stroke-width:0.306749;stroke-opacity:1;paint-order:fill markers stroke"
           d="m 432.82962,618.42157 c -1.50744,-2.05163 -2.568,-4.42984 -3.08697,-6.92227 -0.24328,-1.16839 -0.36885,-2.36126 -0.37418,-3.5547"
           id="path57-4-6"
           inkscape:path-effect="#path-effect60-3-6"
           inkscape:original-d="m 432.82962,618.42157 c -0.96663,-2.12034 -2.02679,-4.61486 -3.08697,-6.92227 -1.06016,-2.30743 -0.24945,-2.30743 -0.37418,-3.5547"
           transform="matrix(1,0,0,-1,-38.271324,1320.9394)" /></g><path
         style="font-variation-settings:normal;fill:#d1beb0;fill-opacity:1;stroke:#004455;stroke-width:0.128;stroke-linecap:round;stroke-linejoin:miter;stroke-miterlimit:4;stroke-dasharray:none;stroke-dashoffset:0;stroke-opacity:1;paint-order:fill markers stroke"
         d="m 266.39528,197.42194 0.86125,1.6312 0.41289,-0.74954 0.41099,1.24703 0.57644,-0.93603 0.33874,0.67937 0.49292,-0.72137 0.47237,0.70827 1.15243,-1.84507"
         id="path105-6" /><path
         style="font-variation-settings:normal;fill:#d1beb0;fill-opacity:1;stroke:#004455;stroke-width:0.128;stroke-linecap:round;stroke-linejoin:miter;stroke-miterlimit:4;stroke-dasharray:none;stroke-dashoffset:0;stroke-opacity:1;paint-order:fill markers stroke"
         d="m 279.70796,197.84188 -0.90772,1.6058 -0.39117,-0.76109 -0.44664,1.23471 -0.5493,-0.95221 -0.35807,0.66939 -0.47196,-0.73525 -0.49249,0.69443 -1.09894,-1.87744"
         id="path106-9" /></g></g></svg>
