<?xml version="1.0" encoding="UTF-8" standalone="no"?>
<!-- Created with Inkscape (http://www.inkscape.org/) -->

<svg
   width="210mm"
   height="297mm"
   viewBox="0 0 210 297"
   version="1.1"
   id="svg1"
   inkscape:version="1.3.2 (091e20e, 2023-11-25, custom)"
   sodipodi:docname="Characters.svg"
   xmlns:inkscape="http://www.inkscape.org/namespaces/inkscape"
   xmlns:sodipodi="http://sodipodi.sourceforge.net/DTD/sodipodi-0.dtd"
   xmlns="http://www.w3.org/2000/svg"
   xmlns:svg="http://www.w3.org/2000/svg">
  <sodipodi:namedview
     id="namedview1"
     pagecolor="#ffffff"
     bordercolor="#000000"
     borderopacity="0.25"
     inkscape:showpageshadow="2"
     inkscape:pageopacity="0.0"
     inkscape:pagecheckerboard="0"
     inkscape:deskcolor="#d1d1d1"
     inkscape:document-units="mm"
     inkscape:zoom="0.74742566"
     inkscape:cx="1102.4508"
     inkscape:cy="620.12857"
     inkscape:window-width="1920"
     inkscape:window-height="1017"
     inkscape:window-x="-8"
     inkscape:window-y="-8"
     inkscape:window-maximized="1"
     inkscape:current-layer="layer1">
    <inkscape:page
       x="0"
       y="0"
       width="210"
       height="297"
       id="page1"
       margin="0"
       bleed="0" />
    <inkscape:page
       x="220"
       y="0"
       width="210"
       height="297"
       id="page2"
       margin="0"
       bleed="0" />
    <inkscape:page
       x="440"
       y="0"
       width="210"
       height="297"
       id="page3"
       margin="0"
       bleed="0" />
  </sodipodi:namedview>
  <defs
     id="defs1" />
  <g
     inkscape:label="Layer 1"
     inkscape:groupmode="layer"
     id="layer1">
    <path
       sodipodi:type="star"
       style="fill:#333333;stroke:none;stroke-width:0.283059;stroke-linecap:round;paint-order:fill markers stroke"
       id="path3"
       inkscape:flatsided="true"
       sodipodi:sides="3"
       sodipodi:cx="40.049721"
       sodipodi:cy="56.069607"
       sodipodi:r1="36.28038"
       sodipodi:r2="18.14019"
       sodipodi:arg1="0.52359878"
       sodipodi:arg2="1.5707963"
       inkscape:rounded="0.15"
       inkscape:randomized="0"
       d="m 71.469452,74.209797 c -4.71296,8.163086 -58.126503,8.163085 -62.8394623,0 -4.7129596,-8.163086 21.9938123,-54.420571 31.4197313,-54.42057 9.425919,0 36.13269,46.257485 31.419731,54.42057 z"
       inkscape:transform-center-y="-6.5111633"
       transform="matrix(0.71787152,0,0,0.71787152,19.26394,7.5101179)" />
    <path
       sodipodi:type="star"
       style="fill:#333333;stroke:none;stroke-width:0.283059;stroke-linecap:round;paint-order:fill markers stroke"
       id="path4"
       inkscape:flatsided="true"
       sodipodi:sides="3"
       sodipodi:cx="40.049721"
       sodipodi:cy="56.069607"
       sodipodi:r1="36.28038"
       sodipodi:r2="18.14019"
       sodipodi:arg1="0.52359878"
       sodipodi:arg2="1.5707963"
       inkscape:rounded="0.15"
       inkscape:randomized="0"
       d="m 71.469452,74.209797 c -4.71296,8.163086 -58.126503,8.163085 -62.8394623,0 -4.7129596,-8.163086 21.9938123,-54.420571 31.4197313,-54.42057 9.425919,0 36.13269,46.257485 31.419731,54.42057 z"
       inkscape:transform-center-y="-6.5111633"
       transform="matrix(0.71787152,0,0,0.71787152,115.67484,7.5101179)" />
    <rect
       style="fill:#333333;stroke:none;stroke-width:0.2032;stroke-linecap:round;paint-order:fill markers stroke"
       id="rect4"
       width="142.31523"
       height="159.56555"
       x="25.062334"
       y="59.261112"
       ry="0.35796565"
       rx="0.80000001" />
    <ellipse
       style="fill:#333333;stroke:none;stroke-width:0.2032;stroke-linecap:round;paint-order:fill markers stroke"
       id="path5"
       cx="95.950417"
       cy="67.126534"
       rx="33.871746"
       ry="14.554967" />
    <rect
       style="fill:#333333;stroke:none;stroke-width:0.2032;stroke-linecap:round;paint-order:fill markers stroke"
       id="rect6"
       width="142.31523"
       height="159.56555"
       x="25.062334"
       y="104.47378"
       rx="23.1" />
    <g
       id="g6"
       transform="translate(-1.3050823)">
      <circle
         style="fill:#ffffff;stroke:none;stroke-width:0.2032;stroke-linecap:round;paint-order:fill markers stroke"
         id="path6"
         cx="76.462456"
         cy="104.0739"
         r="18.053637" />
      <circle
         style="fill:#ffffff;stroke:none;stroke-width:0.2032;stroke-linecap:round;paint-order:fill markers stroke"
         id="circle6"
         cx="118.58761"
         cy="104.0739"
         r="18.053637" />
    </g>
    <ellipse
       style="fill:#1a1a1a;stroke:none;stroke-width:0.2032;stroke-linecap:round;paint-order:fill markers stroke"
       id="path7"
       cx="71.683556"
       cy="108.8528"
       rx="6.1948748"
       ry="9.0268183" />
    <ellipse
       style="fill:#1a1a1a;stroke:none;stroke-width:0.2032;stroke-linecap:round;paint-order:fill markers stroke"
       id="ellipse7"
       cx="112.39273"
       cy="108.8528"
       rx="6.1948748"
       ry="9.0268183" />
    <path
       sodipodi:type="star"
       style="fill:#4d4d4d;stroke:none;stroke-width:0.40219;stroke-linecap:round;paint-order:fill markers stroke"
       id="path12"
       inkscape:flatsided="true"
       sodipodi:sides="3"
       sodipodi:cx="-147.96899"
       sodipodi:cy="134.87128"
       sodipodi:r1="22.616793"
       sodipodi:r2="11.308396"
       sodipodi:arg1="-0.30195116"
       sodipodi:arg2="0.74524639"
       inkscape:rounded="0.04"
       inkscape:randomized="0"
       d="m -126.37543,128.14541 c 0.46598,1.49605 -25.03697,29.13385 -26.56558,28.78938 -1.5286,-0.34448 -12.71216,-36.24958 -11.64954,-37.40116 1.06263,-1.15157 37.74914,7.11574 38.21512,8.61178 z"
       inkscape:transform-center-x="-1.8638897"
       inkscape:transform-center-y="2.5289308"
       transform="matrix(0.5037613,0,0,0.50671119,26.688465,43.953448)" />
    <path
       sodipodi:type="star"
       style="fill:#d4aa00;stroke:none;stroke-width:0.747405;stroke-linecap:round;paint-order:fill markers stroke"
       id="path13"
       inkscape:flatsided="true"
       sodipodi:sides="3"
       sodipodi:cx="-100.53397"
       sodipodi:cy="76.462456"
       sodipodi:r1="48.919941"
       sodipodi:r2="17.273254"
       sodipodi:arg1="0.7543066"
       sodipodi:arg2="1.8015042"
       inkscape:rounded="0.04"
       inkscape:randomized="0"
       d="m -64.883736,109.96203 c -2.320918,2.46992 -81.508284,-16.130412 -82.486834,-19.375347 -0.97856,-3.244935 54.723482,-62.523037 58.022955,-61.748024 3.299474,0.775014 26.784798,78.653441 24.463879,81.123371 z"
       inkscape:transform-center-x="2.2194541"
       inkscape:transform-center-y="2.2820578"
       transform="matrix(-0.34042876,-0.22693891,-0.10020867,0.150322,-67.35948,73.330768)" />
    <path
       id="path14"
       style="fill:#f6c600;fill-opacity:1;stroke:none;stroke-width:0.2032;stroke-linecap:round;paint-order:fill markers stroke"
       inkscape:transform-center-x="2.2194541"
       inkscape:transform-center-y="2.2820578"
       d="m -40.197933,97.898889 c -1.251847,0.0841 -4.855258,1.32618 -8.334892,2.724381 l 22.28908,19.59364 c -0.482985,-1.97948 -12.417962,-21.674521 -13.565581,-22.278751 -0.07506,-0.0395 -0.207056,-0.0515 -0.388607,-0.0393 z" />
    <g
       id="g17"
       transform="translate(141.42557,21.276413)">
      <path
         sodipodi:type="star"
         style="fill:#4d4d4d;stroke:none;stroke-width:0.40219;stroke-linecap:round;paint-order:fill markers stroke"
         id="path15"
         inkscape:flatsided="true"
         sodipodi:sides="3"
         sodipodi:cx="-147.96899"
         sodipodi:cy="134.87128"
         sodipodi:r1="22.616793"
         sodipodi:r2="11.308396"
         sodipodi:arg1="-0.30195116"
         sodipodi:arg2="0.74524639"
         inkscape:rounded="0.04"
         inkscape:randomized="0"
         d="m -126.37543,128.14541 c 0.46598,1.49605 -25.03697,29.13385 -26.56558,28.78938 -1.5286,-0.34448 -12.71216,-36.24958 -11.64954,-37.40116 1.06263,-1.15157 37.74914,7.11574 38.21512,8.61178 z"
         inkscape:transform-center-x="-1.8638897"
         inkscape:transform-center-y="2.5289308"
         transform="matrix(0.5037613,0,0,0.50671119,26.688465,43.953448)" />
      <path
         sodipodi:type="star"
         style="fill:#d4aa00;stroke:none;stroke-width:0.747405;stroke-linecap:round;paint-order:fill markers stroke"
         id="path16"
         inkscape:flatsided="true"
         sodipodi:sides="3"
         sodipodi:cx="-100.53397"
         sodipodi:cy="76.462456"
         sodipodi:r1="48.919941"
         sodipodi:r2="17.273254"
         sodipodi:arg1="0.7543066"
         sodipodi:arg2="1.8015042"
         inkscape:rounded="0.04"
         inkscape:randomized="0"
         d="m -64.883736,109.96203 c -2.320918,2.46992 -81.508284,-16.130412 -82.486834,-19.375347 -0.97856,-3.244935 54.723482,-62.523037 58.022955,-61.748024 3.299474,0.775014 26.784798,78.653441 24.463879,81.123371 z"
         inkscape:transform-center-x="2.2194541"
         inkscape:transform-center-y="2.2820578"
         transform="matrix(-0.34042876,-0.22693891,-0.10020867,0.150322,-67.35948,73.330768)" />
      <path
         id="path17"
         style="fill:#f6c600;fill-opacity:1;stroke:none;stroke-width:0.2032;stroke-linecap:round;paint-order:fill markers stroke"
         inkscape:transform-center-x="2.2194541"
         inkscape:transform-center-y="2.2820578"
         d="m -40.197933,97.898889 c -1.251847,0.0841 -4.855258,1.32618 -8.334892,2.724381 l 22.28908,19.59364 c -0.482985,-1.97948 -12.417962,-21.674521 -13.565581,-22.278751 -0.07506,-0.0395 -0.207056,-0.0515 -0.388607,-0.0393 z" />
    </g>
    <path
       sodipodi:type="star"
       style="fill:#333333;stroke:none;stroke-width:0.283059;stroke-linecap:round;paint-order:fill markers stroke"
       id="path1"
       inkscape:flatsided="true"
       sodipodi:sides="3"
       sodipodi:cx="40.049721"
       sodipodi:cy="56.069607"
       sodipodi:r1="36.28038"
       sodipodi:r2="18.14019"
       sodipodi:arg1="0.52359878"
       sodipodi:arg2="1.5707963"
       inkscape:rounded="0.15"
       inkscape:randomized="0"
       d="m 71.469452,74.209797 c -4.71296,8.163086 -58.126503,8.163085 -62.8394623,0 -4.7129596,-8.163086 21.9938123,-54.420571 31.4197313,-54.42057 9.425919,0 36.13269,46.257485 31.419731,54.42057 z"
       inkscape:transform-center-y="-6.5111633"
       transform="matrix(0.71787152,0,0,0.71787152,-367.29624,1.8462324)" />
    <path
       sodipodi:type="star"
       style="fill:#333333;stroke:none;stroke-width:0.283059;stroke-linecap:round;paint-order:fill markers stroke"
       id="path2"
       inkscape:flatsided="true"
       sodipodi:sides="3"
       sodipodi:cx="40.049721"
       sodipodi:cy="56.069607"
       sodipodi:r1="36.28038"
       sodipodi:r2="18.14019"
       sodipodi:arg1="0.52359878"
       sodipodi:arg2="1.5707963"
       inkscape:rounded="0.15"
       inkscape:randomized="0"
       d="m 71.469452,74.209797 c -4.71296,8.163086 -58.126503,8.163085 -62.8394623,0 -4.7129596,-8.163086 21.9938123,-54.420571 31.4197313,-54.42057 9.425919,0 36.13269,46.257485 31.419731,54.42057 z"
       inkscape:transform-center-y="-6.5111633"
       transform="matrix(0.71787152,0,0,0.71787152,-270.88534,1.8462324)" />
    <rect
       style="fill:#333333;stroke:none;stroke-width:0.2032;stroke-linecap:round;paint-order:fill markers stroke"
       id="rect2"
       width="142.31523"
       height="159.56555"
       x="-361.49786"
       y="53.597225"
       ry="0.35796565"
       rx="0.80000001" />
    <ellipse
       style="fill:#333333;stroke:none;stroke-width:0.2032;stroke-linecap:round;paint-order:fill markers stroke"
       id="ellipse2"
       cx="-290.60977"
       cy="61.462646"
       rx="33.871746"
       ry="14.554967" />
    <rect
       style="fill:#333333;stroke:none;stroke-width:0.2032;stroke-linecap:round;paint-order:fill markers stroke"
       id="rect3"
       width="142.31523"
       height="159.56555"
       x="-361.49786"
       y="98.809891"
       rx="23.1" />
    <g
       id="g4"
       transform="translate(-387.86527,-5.6638855)">
      <circle
         style="fill:#ffffff;stroke:none;stroke-width:0.2032;stroke-linecap:round;paint-order:fill markers stroke"
         id="circle3"
         cx="76.462456"
         cy="104.0739"
         r="18.053637" />
      <circle
         style="fill:#ffffff;stroke:none;stroke-width:0.2032;stroke-linecap:round;paint-order:fill markers stroke"
         id="circle4"
         cx="118.58761"
         cy="104.0739"
         r="18.053637" />
    </g>
    <ellipse
       style="fill:#1a1a1a;stroke:none;stroke-width:0.2032;stroke-linecap:round;paint-order:fill markers stroke"
       id="ellipse4"
       cx="-314.87662"
       cy="103.18891"
       rx="6.1948748"
       ry="9.0268183" />
    <ellipse
       style="fill:#1a1a1a;stroke:none;stroke-width:0.2032;stroke-linecap:round;paint-order:fill markers stroke"
       id="ellipse5"
       cx="-274.16745"
       cy="103.18891"
       rx="6.1948748"
       ry="9.0268183" />
    <g
       id="g10"
       transform="translate(-245.13461,15.612528)">
      <path
         sodipodi:type="star"
         style="fill:#4d4d4d;stroke:none;stroke-width:0.40219;stroke-linecap:round;paint-order:fill markers stroke"
         id="path8"
         inkscape:flatsided="true"
         sodipodi:sides="3"
         sodipodi:cx="-147.96899"
         sodipodi:cy="134.87128"
         sodipodi:r1="22.616793"
         sodipodi:r2="11.308396"
         sodipodi:arg1="-0.30195116"
         sodipodi:arg2="0.74524639"
         inkscape:rounded="0.04"
         inkscape:randomized="0"
         d="m -126.37543,128.14541 c 0.46598,1.49605 -25.03697,29.13385 -26.56558,28.78938 -1.5286,-0.34448 -12.71216,-36.24958 -11.64954,-37.40116 1.06263,-1.15157 37.74914,7.11574 38.21512,8.61178 z"
         inkscape:transform-center-x="-1.8638897"
         inkscape:transform-center-y="2.5289308"
         transform="matrix(0.5037613,0,0,0.50671119,26.688465,43.953448)" />
      <path
         sodipodi:type="star"
         style="fill:#d4aa00;stroke:none;stroke-width:0.747405;stroke-linecap:round;paint-order:fill markers stroke"
         id="path9"
         inkscape:flatsided="true"
         sodipodi:sides="3"
         sodipodi:cx="-100.53397"
         sodipodi:cy="76.462456"
         sodipodi:r1="48.919941"
         sodipodi:r2="17.273254"
         sodipodi:arg1="0.7543066"
         sodipodi:arg2="1.8015042"
         inkscape:rounded="0.04"
         inkscape:randomized="0"
         d="m -64.883736,109.96203 c -2.320918,2.46992 -81.508284,-16.130412 -82.486834,-19.375347 -0.97856,-3.244935 54.723482,-62.523037 58.022955,-61.748024 3.299474,0.775014 26.784798,78.653441 24.463879,81.123371 z"
         inkscape:transform-center-x="2.2194541"
         inkscape:transform-center-y="2.2820578"
         transform="matrix(-0.34042876,-0.22693891,-0.10020867,0.150322,-67.35948,73.330768)" />
      <path
         id="path10"
         style="fill:#f6c600;fill-opacity:1;stroke:none;stroke-width:0.2032;stroke-linecap:round;paint-order:fill markers stroke"
         inkscape:transform-center-x="2.2194541"
         inkscape:transform-center-y="2.2820578"
         d="m -40.197933,97.898889 c -1.251847,0.0841 -4.855258,1.32618 -8.334892,2.724381 l 22.28908,19.59364 c -0.482985,-1.97948 -12.417962,-21.674521 -13.565581,-22.278751 -0.07506,-0.0395 -0.207056,-0.0515 -0.388607,-0.0393 z" />
    </g>
    <path
       sodipodi:type="star"
       style="fill:#333333;stroke:none;stroke-width:0.283059;stroke-linecap:round;paint-order:fill markers stroke"
       id="path21"
       inkscape:flatsided="true"
       sodipodi:sides="3"
       sodipodi:cx="40.049721"
       sodipodi:cy="56.069607"
       sodipodi:r1="36.28038"
       sodipodi:r2="18.14019"
       sodipodi:arg1="0.52359878"
       sodipodi:arg2="1.5707963"
       inkscape:rounded="0.15"
       inkscape:randomized="0"
       d="m 71.469452,74.209797 c -4.71296,8.163086 -58.126503,8.163085 -62.8394623,0 -4.7129596,-8.163086 21.9938123,-54.420571 31.4197313,-54.42057 9.425919,0 36.13269,46.257485 31.419731,54.42057 z"
       inkscape:transform-center-y="-6.5111633"
       transform="matrix(0.71787152,0,0,0.71787152,-368.35822,268.75684)" />
    <path
       sodipodi:type="star"
       style="fill:#333333;stroke:none;stroke-width:0.283059;stroke-linecap:round;paint-order:fill markers stroke"
       id="path22"
       inkscape:flatsided="true"
       sodipodi:sides="3"
       sodipodi:cx="40.049721"
       sodipodi:cy="56.069607"
       sodipodi:r1="36.28038"
       sodipodi:r2="18.14019"
       sodipodi:arg1="0.52359878"
       sodipodi:arg2="1.5707963"
       inkscape:rounded="0.15"
       inkscape:randomized="0"
       d="m 71.469452,74.209797 c -4.71296,8.163086 -58.126503,8.163085 -62.8394623,0 -4.7129596,-8.163086 21.9938123,-54.420571 31.4197313,-54.42057 9.425919,0 36.13269,46.257485 31.419731,54.42057 z"
       inkscape:transform-center-y="-6.5111633"
       transform="matrix(0.71787152,0,0,0.71787152,-271.94732,268.75684)" />
    <rect
       style="fill:#333333;stroke:none;stroke-width:0.2032;stroke-linecap:round;paint-order:fill markers stroke"
       id="rect22"
       width="142.31523"
       height="159.56555"
       x="-362.55984"
       y="320.50784"
       ry="0.35796565"
       rx="0.80000001" />
    <ellipse
       style="fill:#333333;stroke:none;stroke-width:0.2032;stroke-linecap:round;paint-order:fill markers stroke"
       id="ellipse22"
       cx="-291.67175"
       cy="328.37326"
       rx="33.871746"
       ry="14.554967" />
    <rect
       style="fill:#333333;stroke:none;stroke-width:0.2032;stroke-linecap:round;paint-order:fill markers stroke"
       id="rect23"
       width="142.31523"
       height="159.56555"
       x="-362.55984"
       y="365.72049"
       rx="23.1" />
    <path
       id="rect30"
       style="fill:#f6c600;stroke-width:0.2032;stroke-linecap:round;paint-order:fill markers stroke"
       d="m 294.08024,31.993913 c -8.91464,13.71428 -24.33797,29.869956 -20.08973,46.946488 -32.09967,44.040669 -29.10845,132.040579 7.9375,163.492349 18.52298,15.72588 35.7361,17.76791 52.94922,17.76791 17.21313,0 34.42626,-2.04203 52.94923,-17.76791 37.04595,-31.45177 40.03716,-119.45168 7.9375,-163.492349 3.9861,-15.806507 -10.10317,-36.507676 -21.31291,-46.946488 -0.98413,0.01545 -7.68691,11.26849 -13.43794,21.758878 -8.78745,-3.470468 -17.8856,-5.504056 -26.13588,-5.504056 -8.3235,0 -17.50922,2.072905 -26.36893,5.600175 -6.14518,-10.451547 -13.42712,-21.870716 -14.42806,-21.854997 z"
       sodipodi:nodetypes="scssscscscs" />
    <path
       id="path31"
       style="fill:#f6c600;stroke-width:0.2032;stroke-linecap:round;paint-order:fill markers stroke"
       d="m 499.39609,31.285927 c -8.91464,13.71428 -24.33797,29.869956 -20.08973,46.946488 -32.09967,44.040665 -29.10845,132.040575 7.9375,163.492345 18.52298,15.72588 35.7361,17.76791 52.94922,17.76791 17.21313,0 34.42626,-2.04203 52.94923,-17.76791 37.04595,-31.45177 40.03716,-119.45168 7.9375,-163.492345 3.9861,-15.806507 -10.10317,-36.507676 -21.31291,-46.946488 -0.98413,0.01545 -7.68691,11.26849 -13.43794,21.758878 -8.78745,-3.470468 -17.8856,-5.504056 -26.13588,-5.504056 -8.3235,0 -17.50922,2.072905 -26.36893,5.600175 -6.14518,-10.451547 -13.42712,-21.870716 -14.42806,-21.854997 z"
       sodipodi:nodetypes="scssscscscs" />
    <path
       id="path32"
       style="fill:#ffffff;stroke-width:0.2032;stroke-linecap:round;paint-order:fill markers stroke"
       d="m 331.51795,103.36591 a 15.575686,15.575686 0 0 1 -15.57569,15.57569 15.575686,15.575686 0 0 1 -15.57569,-15.57569 15.575686,15.575686 0 0 1 15.57569,-15.575683 15.575686,15.575686 0 0 1 15.57569,15.575683 z" />
    <path
       id="circle34"
       style="fill:#00ffff;stroke-width:0.203199;stroke-linecap:round;paint-order:fill markers stroke"
       d="M 318.95107 96.99408 A 11.858761 11.858761 0 0 0 307.09237 108.85279 A 11.858761 11.858761 0 0 0 311.96752 118.40052 A 15.575686 15.575686 0 0 0 315.94247 118.94158 A 15.575686 15.575686 0 0 0 330.75966 108.15205 A 11.858761 11.858761 0 0 0 318.95107 96.99408 z " />
    <path
       id="path35"
       style="fill:#1a1a1a;stroke-width:0.2032;stroke-linecap:round;paint-order:fill markers stroke"
       d="m 327.76329,108.87276 a 8.566987,8.566987 0 0 1 -8.56699,8.56699 8.566987,8.566987 0 0 1 -8.56699,-8.56699 8.566987,8.566987 0 0 1 8.56699,-8.567 8.566987,8.566987 0 0 1 8.56699,8.567 z" />
    <path
       id="path36"
       style="fill:#ffffff;stroke-width:0.2032;stroke-linecap:round;paint-order:fill markers stroke"
       d="M 372.06829,103.36591 A 15.575686,15.575686 0 0 1 356.4926,118.9416 15.575686,15.575686 0 0 1 340.91691,103.36591 15.575686,15.575686 0 0 1 356.4926,87.790227 15.575686,15.575686 0 0 1 372.06829,103.36591 Z" />
    <path
       id="path37"
       style="fill:#00ffff;stroke-width:0.203199;stroke-linecap:round;paint-order:fill markers stroke"
       d="m 359.50141,96.99408 a 11.858761,11.858761 0 0 0 -11.8587,11.85871 11.858761,11.858761 0 0 0 4.87515,9.54773 15.575686,15.575686 0 0 0 3.97495,0.54106 A 15.575686,15.575686 0 0 0 371.31,108.15205 11.858761,11.858761 0 0 0 359.50141,96.99408 Z" />
    <path
       id="path38"
       style="fill:#1a1a1a;stroke-width:0.2032;stroke-linecap:round;paint-order:fill markers stroke"
       d="m 368.31363,108.87276 a 8.566987,8.566987 0 0 1 -8.56699,8.56699 8.566987,8.566987 0 0 1 -8.56699,-8.56699 8.566987,8.566987 0 0 1 8.56699,-8.567 8.566987,8.566987 0 0 1 8.56699,8.567 z" />
    <path
       sodipodi:type="star"
       style="fill:#4d4d4d;stroke:none;stroke-width:0.40219;stroke-linecap:round;paint-order:fill markers stroke"
       id="path39"
       inkscape:flatsided="true"
       sodipodi:sides="3"
       sodipodi:cx="-147.96899"
       sodipodi:cy="134.87128"
       sodipodi:r1="22.616793"
       sodipodi:r2="11.308396"
       sodipodi:arg1="-0.30195116"
       sodipodi:arg2="0.74524639"
       inkscape:rounded="0.04"
       inkscape:randomized="0"
       d="m -126.37543,128.14541 c 0.46598,1.49605 -25.03697,29.13385 -26.56558,28.78938 -1.5286,-0.34448 -12.71216,-36.24958 -11.64954,-37.40116 1.06263,-1.15157 37.74914,7.11574 38.21512,8.61178 z"
       inkscape:transform-center-x="-1.8638897"
       inkscape:transform-center-y="2.5289308"
       transform="matrix(0.5037613,0,0,0.50671119,410.06271,62.361076)" />
    <path
       sodipodi:type="star"
       style="fill:#d78b00;stroke:none;stroke-width:0.747405;stroke-linecap:round;paint-order:fill markers stroke;fill-opacity:1"
       id="path40"
       inkscape:flatsided="true"
       sodipodi:sides="3"
       sodipodi:cx="-100.53397"
       sodipodi:cy="76.462456"
       sodipodi:r1="48.919941"
       sodipodi:r2="17.273254"
       sodipodi:arg1="0.7543066"
       sodipodi:arg2="1.8015042"
       inkscape:rounded="0.04"
       inkscape:randomized="0"
       d="m -64.883736,109.96203 c -2.320918,2.46992 -81.508284,-16.130412 -82.486834,-19.375347 -0.97856,-3.244935 54.723482,-62.523037 58.022955,-61.748024 3.299474,0.775014 26.784798,78.653441 24.463879,81.123371 z"
       inkscape:transform-center-x="2.2194541"
       inkscape:transform-center-y="2.2820578"
       transform="matrix(-0.34042876,-0.22693891,-0.10020867,0.150322,316.01477,91.738396)" />
    <path
       id="path41"
       style="fill:#f69f00;fill-opacity:1;stroke:none;stroke-width:0.2032;stroke-linecap:round;paint-order:fill markers stroke"
       inkscape:transform-center-x="2.2194541"
       inkscape:transform-center-y="2.2820578"
       d="m 343.17632,116.30652 c -1.25185,0.0841 -4.85526,1.32618 -8.3349,2.72438 l 22.28908,19.59364 c -0.48298,-1.97948 -12.41796,-21.67452 -13.56558,-22.27875 -0.0751,-0.0395 -0.20705,-0.0515 -0.3886,-0.0393 z" />
    <path
       style="fill:#d78b00;fill-opacity:1;stroke-width:0.2032;stroke-linecap:round;paint-order:fill markers stroke"
       d="m 335.26985,88.166405 -7.89413,-13.035251 -14.00155,-7.077315 6.53653,9.590295 -24.9929,-8.381926 5.68642,5.940572 -36.63059,-10.673505 10.88282,8.585254 -17.75377,5.416697 z"
       id="path42" />
    <path
       style="fill:#d78b00;fill-opacity:1;stroke-width:0.2032;stroke-linecap:round;paint-order:fill markers stroke"
       d="m 338.16704,88.166405 7.89413,-13.035251 14.00155,-7.077315 -6.53653,9.590295 24.9929,-8.381926 -5.68642,5.940572 36.63059,-10.673505 -10.88282,8.585254 17.75377,5.416697 z"
       id="path43" />
    <path
       style="fill:none;fill-opacity:1;stroke:#000000;stroke-width:0.2032;stroke-linecap:round;stroke-opacity:1;paint-order:fill markers stroke"
       d="m 294.16806,159.65077 c 0,0 6.27857,15.40542 6.37185,22.65555 0.0933,7.25013 -8.14181,21.59356 -8.14181,21.59356"
       id="path44"
       sodipodi:nodetypes="czc" />
  </g>
</svg>
