<?xml version="1.0" encoding="UTF-8" standalone="no"?>
<!-- Created with Inkscape (http://www.inkscape.org/) -->

<svg
   width="28.085882mm"
   height="34.145912mm"
   viewBox="0 0 28.085882 34.145912"
   version="1.1"
   id="svg1"
   xml:space="preserve"
   inkscape:version="1.3.2 (091e20e, 2023-11-25, custom)"
   sodipodi:docname="kid1.svg"
   xmlns:inkscape="http://www.inkscape.org/namespaces/inkscape"
   xmlns:sodipodi="http://sodipodi.sourceforge.net/DTD/sodipodi-0.dtd"
   xmlns="http://www.w3.org/2000/svg"
   xmlns:svg="http://www.w3.org/2000/svg"><sodipodi:namedview
     id="namedview1"
     pagecolor="#ffffff"
     bordercolor="#000000"
     borderopacity="0.25"
     inkscape:showpageshadow="2"
     inkscape:pageopacity="0.0"
     inkscape:pagecheckerboard="0"
     inkscape:deskcolor="#d1d1d1"
     inkscape:document-units="mm"
     inkscape:zoom="2.8284273"
     inkscape:cx="57.275646"
     inkscape:cy="122.15269"
     inkscape:window-width="1920"
     inkscape:window-height="1017"
     inkscape:window-x="-8"
     inkscape:window-y="-8"
     inkscape:window-maximized="1"
     inkscape:current-layer="layer1"
     showguides="false" /><defs
     id="defs1"><inkscape:path-effect
       effect="spiro"
       id="path-effect52"
       is_visible="true"
       lpeversion="1" /><inkscape:path-effect
       effect="spiro"
       id="path-effect50"
       is_visible="true"
       lpeversion="1" /><inkscape:path-effect
       effect="spiro"
       id="path-effect239-9-6"
       is_visible="true"
       lpeversion="1" /><inkscape:path-effect
       effect="spiro"
       id="path-effect241-0-4"
       is_visible="true"
       lpeversion="1" /></defs><g
     inkscape:label="Layer 1"
     inkscape:groupmode="layer"
     id="layer1"
     transform="translate(-502.6237,-298.14883)"><path
       id="path3"
       style="fill:#dc602e;fill-opacity:1;stroke:#483737;stroke-width:0.2;stroke-dasharray:none;stroke-opacity:1"
       d="m 507.59692,298.40401 c -0.26666,0.0503 -0.51888,0.50563 -1.00097,1.61592 -2.08578,4.80376 -5.31709,23.01654 -2.80861,27.58436 2.48784,4.53019 7.83533,4.4418 12.8173,4.44004 0.0412,0 0.0832,-10e-6 0.12454,0 4.98197,0.002 10.32896,0.0901 12.81679,-4.44004 2.50848,-4.56782 -0.72283,-22.7806 -2.80861,-27.58436 -1.41708,-3.26367 -0.85294,-0.86814 -4.50515,0.83457 a 12.435417,12.040785 0 0 0 -5.56556,-1.27744 12.435417,12.040785 0 0 0 -5.54281,1.28778 c -2.42868,-1.12504 -3.00812,-2.55879 -3.52692,-2.46083 z" /><path
       sodipodi:type="star"
       style="fill:#2b1100;fill-opacity:1;stroke:none;stroke-width:0.396875;stroke-dasharray:none;stroke-opacity:1"
       id="path6"
       inkscape:flatsided="true"
       sodipodi:sides="3"
       sodipodi:cx="510.93915"
       sodipodi:cy="190.64336"
       sodipodi:r1="8.0535097"
       sodipodi:r2="4.0267549"
       sodipodi:arg1="1.5707963"
       sodipodi:arg2="2.6179939"
       inkscape:rounded="0"
       inkscape:randomized="0"
       d="m 510.93915,198.69687 -6.97455,-12.08027 13.94909,0 z"
       inkscape:transform-center-x="6.4748456e-06"
       inkscape:transform-center-y="0.46064043"
       transform="matrix(0.16888019,0,0,0.22879297,430.47643,268.52372)" /><path
       d="m 516.33954,309.96351 -0.002,0.003 h 0.004 z m -0.004,0.007 -0.76326,1.22886 3.0949,2.88923 z"
       style="fill:#d4aa00;stroke-width:0.0533677"
       id="path148" /><path
       d="m 517.9472,309.91597 -1.61386,0.0506 2.33371,4.12171 z"
       style="fill:#ffcc00;stroke-width:0.0533677"
       id="path147" /><circle
       style="fill:#ffffff;fill-opacity:1;stroke:none;stroke-width:0.429;stroke-dasharray:none;stroke-opacity:1"
       id="circle8"
       cx="-513.17957"
       cy="307.33362"
       transform="scale(-1,1)"
       r="3.3273993" /><circle
       style="fill:#ffffff;fill-opacity:1;stroke:none;stroke-width:0.429;stroke-dasharray:none;stroke-opacity:1"
       id="circle9"
       cx="520.53705"
       cy="307.33362"
       r="3.3273993" /><ellipse
       style="fill:#000000;fill-opacity:1;stroke:none;stroke-width:0.22887;stroke-dasharray:none;stroke-opacity:1"
       id="ellipse9"
       cx="-519.8822"
       cy="307.78201"
       transform="scale(-1,1)"
       rx="0.86966121"
       ry="1.1873199" /><ellipse
       style="fill:#000000;fill-opacity:1;stroke:none;stroke-width:0.22887;stroke-dasharray:none;stroke-opacity:1"
       id="ellipse10"
       cx="-513.76495"
       cy="307.78201"
       transform="scale(-1,1)"
       rx="0.86966121"
       ry="1.1873199" /><path
       style="fill:#d38d5f;stroke:#483737;stroke-width:0.1;stroke-dasharray:none;stroke-opacity:1"
       d="m 517.42888,316.30938 c -0.25397,5.5e-4 -0.49598,0.10734 -0.66817,0.29404 -0.15965,-0.12513 -0.35631,-0.19349 -0.55914,-0.1943 -0.32432,5.5e-4 -0.62414,0.17328 -0.78704,0.45372 -0.0987,-0.0363 -0.2028,-0.055 -0.30799,-0.0558 -0.33133,7.6e-4 -0.63623,0.18173 -0.79633,0.4718 -0.0861,-0.0264 -0.1756,-0.0401 -0.26562,-0.0403 -0.46657,0 -0.85036,0.35014 -0.90485,0.80202 -0.027,-0.002 -0.054,-0.003 -0.0816,-0.003 -0.6139,-4e-5 -1.1116,0.47776 -1.11156,1.0666 0,0.0546 0.005,0.10831 0.0124,0.16072 -0.34664,0.18046 -0.58185,0.53251 -0.58188,0.93741 0,0.15661 0.0354,0.30477 0.0987,0.43873 -0.2663,0.19478 -0.43824,0.50251 -0.43822,0.84853 2e-5,0.13953 0.0282,0.27269 0.0791,0.39481 0.0125,-0.0116 0.0251,-0.023 0.0382,-0.0341 a 1.1114604,1.0660945 0 0 0 -0.37621,0.7984 1.1114604,1.0660945 0 0 0 0.37931,0.80098 c -0.0347,-0.0292 -0.068,-0.0599 -0.0987,-0.093 -0.25201,0.19546 -0.41344,0.49432 -0.41341,0.8294 2e-5,0.34419 0.17017,0.65001 0.43409,0.84491 -0.0854,0.15101 -0.13386,0.32409 -0.13385,0.50798 3e-5,0.53419 0.40973,0.97626 0.94413,1.05368 -0.1113,0.16604 -0.17619,0.36361 -0.17621,0.57568 -3e-5,0.4448 0.28428,0.82561 0.68781,0.98547 -0.0119,0.0625 -0.0186,0.12697 -0.0186,0.19275 2e-5,0.58874 0.49777,1.06606 1.11157,1.06609 0.0909,10e-6 0.179,-0.0112 0.26354,-0.031 0,0.002 0,0.003 0,0.005 3e-5,0.58879 0.49772,1.06612 1.11156,1.06608 0.22438,0 0.43304,-0.064 0.60772,-0.17363 0.1858,0.33991 0.55709,0.5721 0.98495,0.57206 0.33007,-1e-5 0.62638,-0.13846 0.82993,-0.3576 0.19908,0.18029 0.46733,0.29096 0.76274,0.29094 0.42784,-2e-5 0.79868,-0.23216 0.98444,-0.57206 0.17472,0.10971 0.38381,0.17415 0.60823,0.17415 0.6138,-3e-5 1.11101,-0.47735 1.11104,-1.06609 0,-0.0309 -0.002,-0.0617 -0.005,-0.092 0.11871,0.0415 0.24668,0.0641 0.38034,0.0641 0.61379,-4e-5 1.11153,-0.47735 1.11156,-1.06609 -10e-6,-0.16201 -0.038,-0.31519 -0.10542,-0.45268 0.49965,-0.10438 0.87381,-0.53074 0.87385,-1.04128 0,-0.13683 -0.0276,-0.26789 -0.0765,-0.38809 0.28669,-0.1928 0.47437,-0.5115 0.47439,-0.87282 2e-5,-0.29926 -0.12837,-0.56963 -0.33538,-0.76326 0.20699,-0.19362 0.33536,-0.46405 0.33538,-0.76326 10e-6,-0.21749 -0.0679,-0.41944 -0.18449,-0.58808 0.23486,-0.19546 0.38394,-0.48396 0.38396,-0.80563 2e-5,-0.3935 -0.22279,-0.73666 -0.55346,-0.92139 0.0166,-0.0733 0.0258,-0.14931 0.0258,-0.22738 2e-5,-0.28092 -0.11358,-0.53665 -0.29869,-0.72709 0.0546,-0.12596 0.0853,-0.26383 0.0853,-0.40876 -10e-6,-0.37553 -0.2031,-0.70564 -0.50902,-0.89555 5.1e-4,-0.0126 10e-4,-0.0249 10e-4,-0.0377 -3e-5,-0.49458 -0.35115,-0.91054 -0.82734,-1.03095 -0.11611,-0.31493 -0.40066,-0.55086 -0.75138,-0.59118 -0.0697,-0.44342 -0.45185,-0.77059 -0.90072,-0.77101 -0.0994,5.6e-4 -0.19801,0.0176 -0.29197,0.0501 -0.14502,-0.33256 -0.4733,-0.54766 -0.83612,-0.54777 -0.22213,2.1e-4 -0.43657,0.0814 -0.60307,0.22841 -0.17188,-0.22671 -0.4395,-0.36028 -0.72398,-0.36122 z"
       id="path146" /><path
       style="fill:none;fill-opacity:1;stroke:#483737;stroke-width:0.56493642;stroke-dasharray:none;stroke-opacity:1"
       d="m 433.57874,-85.692556 c -0.99662,-3.564007 -1.25946,-7.331476 -0.76738,-10.999343 0.28914,-2.155204 0.83386,-4.266491 1.27897,-6.394961 0.30135,-1.441 0.55732,-2.89148 0.7674,-4.34858"
       id="path218-2-0"
       inkscape:path-effect="#path-effect239-9-6"
       inkscape:original-d="m 433.57874,-85.692556 c -0.2558,-3.325381 -0.5116,-7.16236 -0.76738,-10.999343 -0.25579,-3.836981 0.85265,-4.263311 1.27897,-6.394961 0.42635,-2.13166 0.5116,-2.89906 0.7674,-4.34858"
       transform="matrix(0.39707757,0,0,0.31563524,356.03387,353.01946)" /><path
       style="fill:none;fill-opacity:1;stroke:#483737;stroke-width:0.56493642;stroke-dasharray:none;stroke-opacity:1"
       d="m 433.57874,-85.692556 c -0.99662,-3.564007 -1.25946,-7.331476 -0.76738,-10.999343 0.28914,-2.155204 0.83386,-4.266491 1.27897,-6.394961 0.30135,-1.441 0.55732,-2.89148 0.7674,-4.34858"
       id="path219-1-2"
       inkscape:path-effect="#path-effect241-0-4"
       inkscape:original-d="m 433.57874,-85.692556 c -0.2558,-3.325381 -0.5116,-7.16236 -0.76738,-10.999343 -0.25579,-3.836981 0.85265,-4.263311 1.27897,-6.394961 0.42635,-2.13166 0.5116,-2.89906 0.7674,-4.34858"
       transform="matrix(-0.39707757,0,0,0.31563524,678.94928,353.01946)" /><path
       style="opacity:1;fill:#483737;fill-opacity:1;stroke:none;stroke-width:0.396875;stroke-opacity:1"
       d="m 536.83955,354.67395 c -2.43665,1.06826 -5.17961,1.18674 -7.83767,1.07214 -2.65807,-0.11461 -5.32088,-0.44534 -7.97118,-0.21224 -1.08193,0.0952 -2.18872,0.28221 -3.24015,0.01 -0.52571,-0.13613 -1.02896,-0.39185 -1.4035,-0.78507 -0.37455,-0.39322 -0.61032,-0.93152 -0.58187,-1.47383 0.0193,-0.36744 0.15766,-0.7243 0.37152,-1.0237 0.21387,-0.29941 0.50109,-0.5427 0.81974,-0.72665 0.63731,-0.36792 1.38328,-0.49694 2.11603,-0.56475 2.52114,-0.23331 5.0501,0.18361 7.56617,0.46642 2.51607,0.2828 5.11603,0.42451 7.53162,-0.33413 0.82482,-0.25904 1.63206,-0.62347 2.49475,-0.67993 0.43135,-0.0282 0.87357,0.0243 1.26838,0.2003 0.39481,0.17601 0.73915,0.48237 0.91668,0.8765 0.1444,0.32057 0.17367,0.68769 0.10586,1.03268 -0.0678,0.34499 -0.22969,0.66804 -0.44618,0.94507 -0.43298,0.55407 -1.06619,0.91491 -1.7102,1.19725 z"
       id="path49"
       inkscape:path-effect="#path-effect50"
       inkscape:original-d="m 536.83955,354.67395 c -0.79375,1.45521 -9.41475,0.99219 -15.80885,0.8599 -6.39408,-0.1323 -4.60815,-1.36703 -5.22552,-2.24896 -0.61736,-0.88196 0.88196,-1.91822 3.30729,-2.3151 1.21268,-0.19844 11.84011,0.24253 15.09779,0.13229 3.25768,-0.11024 1.98989,0.41892 4.67981,0.39687 5.37988,-0.0441 -1.25677,1.7198 -2.05052,3.175 z"
       sodipodi:nodetypes="sssssss"
       transform="matrix(0.28034236,-0.05177168,0.05177168,0.28034236,345.89843,231.14416)" /><path
       style="opacity:1;fill:#483737;fill-opacity:1;stroke:none;stroke-width:0.396875;stroke-opacity:1"
       d="m 536.83955,354.67395 c -2.43665,1.06826 -5.17961,1.18674 -7.83767,1.07214 -2.65807,-0.11461 -5.32088,-0.44534 -7.97118,-0.21224 -1.08193,0.0952 -2.18872,0.28221 -3.24015,0.01 -0.52571,-0.13613 -1.02896,-0.39185 -1.4035,-0.78507 -0.37455,-0.39322 -0.61032,-0.93152 -0.58187,-1.47383 0.0193,-0.36744 0.15766,-0.7243 0.37152,-1.0237 0.21387,-0.29941 0.50109,-0.5427 0.81974,-0.72665 0.63731,-0.36792 1.38328,-0.49694 2.11603,-0.56475 2.52114,-0.23331 5.0501,0.18361 7.56617,0.46642 2.51607,0.2828 5.11603,0.42451 7.53162,-0.33413 0.82482,-0.25904 1.63206,-0.62347 2.49475,-0.67993 0.43135,-0.0282 0.87357,0.0243 1.26838,0.2003 0.39481,0.17601 0.73915,0.48237 0.91668,0.8765 0.1444,0.32057 0.17367,0.68769 0.10586,1.03268 -0.0678,0.34499 -0.22969,0.66804 -0.44618,0.94507 -0.43298,0.55407 -1.06619,0.91491 -1.7102,1.19725 z"
       id="path50"
       inkscape:path-effect="#path-effect52"
       inkscape:original-d="m 536.83955,354.67395 c -0.79375,1.45521 -9.41475,0.99219 -15.80885,0.8599 -6.39408,-0.1323 -4.60815,-1.36703 -5.22552,-2.24896 -0.61736,-0.88196 0.88196,-1.91822 3.30729,-2.3151 1.21268,-0.19844 11.84011,0.24253 15.09779,0.13229 3.25768,-0.11024 1.98989,0.41892 4.67981,0.39687 5.37988,-0.0441 -1.25677,1.7198 -2.05052,3.175 z"
       sodipodi:nodetypes="sssssss"
       transform="matrix(-0.28233732,-0.03946875,-0.03946875,0.28233732,683.96007,223.95097)" /></g></svg>
