<?xml version="1.0" encoding="UTF-8" standalone="no"?>
<!-- Created with Inkscape (http://www.inkscape.org/) -->

<svg
   width="20.574099mm"
   height="25.093624mm"
   viewBox="0 0 20.574099 25.093624"
   version="1.1"
   id="svg1"
   xml:space="preserve"
   inkscape:version="1.3.2 (091e20e, 2023-11-25, custom)"
   sodipodi:docname="kid2.svg"
   xmlns:inkscape="http://www.inkscape.org/namespaces/inkscape"
   xmlns:sodipodi="http://sodipodi.sourceforge.net/DTD/sodipodi-0.dtd"
   xmlns="http://www.w3.org/2000/svg"
   xmlns:svg="http://www.w3.org/2000/svg"><sodipodi:namedview
     id="namedview1"
     pagecolor="#ffffff"
     bordercolor="#000000"
     borderopacity="0.25"
     inkscape:showpageshadow="2"
     inkscape:pageopacity="0.0"
     inkscape:pagecheckerboard="0"
     inkscape:deskcolor="#d1d1d1"
     inkscape:document-units="mm"
     inkscape:zoom="4"
     inkscape:cx="27.75"
     inkscape:cy="72.875"
     inkscape:window-width="1920"
     inkscape:window-height="1017"
     inkscape:window-x="-8"
     inkscape:window-y="-8"
     inkscape:window-maximized="1"
     inkscape:current-layer="layer1"
     showguides="false" /><defs
     id="defs1"><inkscape:path-effect
       effect="spiro"
       id="path-effect20-7-6-1"
       is_visible="true"
       lpeversion="1" /><inkscape:path-effect
       effect="spiro"
       id="path-effect24-4-8-2"
       is_visible="true"
       lpeversion="1" /></defs><g
     inkscape:label="Layer 1"
     inkscape:groupmode="layer"
     id="layer1"
     transform="translate(-496.62294,-668.46977)"><path
       id="path10-4-2"
       style="fill:#008080;stroke:#005757;stroke-width:0.2;stroke-dasharray:none;stroke-opacity:1"
       d="m 500.22104,668.47287 c -0.23,-0.0394 -0.41767,0.27401 -0.82217,1.20561 -1.55563,3.58278 -3.96535,17.1661 -2.09445,20.57291 1.85556,3.37886 5.84331,3.31325 9.55911,3.31194 0.0307,-10e-6 0.0619,0 0.0925,0 3.7158,0.001 7.70406,0.0669 9.55962,-3.31194 1.8709,-3.40681 -0.53932,-16.99013 -2.09496,-20.57291 -1.05688,-2.43411 -0.6362,-0.64774 -3.36,0.62219 a 9.2746935,8.9803648 0 0 0 -4.15065,-0.9524 9.2746935,8.9803648 0 0 0 -4.13463,0.96015 c -1.69459,-0.78514 -2.18222,-1.77179 -2.55437,-1.83555 z" /><path
       sodipodi:type="star"
       style="fill:#2b1100;fill-opacity:1;stroke:none;stroke-width:0.396875;stroke-dasharray:none;stroke-opacity:1"
       id="path12-1-1"
       inkscape:flatsided="true"
       sodipodi:sides="3"
       sodipodi:cx="510.93915"
       sodipodi:cy="190.64336"
       sodipodi:r1="8.0535097"
       sodipodi:r2="4.0267549"
       sodipodi:arg1="1.5707963"
       sodipodi:arg2="2.6179939"
       inkscape:rounded="0"
       inkscape:randomized="0"
       d="m 510.93915,198.69687 -6.97455,-12.08027 13.94909,0 z"
       inkscape:transform-center-x="2.9465346e-06"
       inkscape:transform-center-y="0.3435568"
       transform="matrix(0.12595572,0,0,0.1706404,442.50985,646.16426)" /><path
       id="path13-8-4"
       style="fill:#d4aa00;fill-opacity:1;stroke:none;stroke-width:0.0398032;stroke-dasharray:none;stroke-opacity:1"
       inkscape:transform-center-y="0.69387179"
       d="m 506.54893,677.07142 -0.57241,0.92121 2.30856,2.15513 z"
       sodipodi:nodetypes="cccc"
       inkscape:transform-center-x="1.0339143e-06" /><path
       id="path14-1-5"
       style="fill:#ffcc00;fill-opacity:1;stroke:none;stroke-width:0.0398032;stroke-dasharray:none;stroke-opacity:1"
       inkscape:transform-center-y="0.69386681"
       d="m 506.54456,677.07354 1.74052,3.07422 -0.53713,-3.11216 z"
       sodipodi:nodetypes="cccc" /><g
       id="g2"
       transform="translate(-0.14292819)"><circle
         style="fill:#ffffff;fill-opacity:1;stroke:none;stroke-width:0.171092;stroke-dasharray:none;stroke-opacity:1"
         id="circle14-7-2"
         cx="-504.3092"
         cy="675.13318"
         transform="scale(-1,1)"
         r="2.4816704" /><circle
         style="fill:#ffffff;fill-opacity:1;stroke:none;stroke-width:0.171092;stroke-dasharray:none;stroke-opacity:1"
         id="circle15-0-3"
         cx="509.79663"
         cy="675.13318"
         r="2.4816704" /></g><g
       id="g3"
       transform="translate(-0.11701876)"><ellipse
         style="fill:#000000;fill-opacity:1;stroke:none;stroke-width:0.170698;stroke-dasharray:none;stroke-opacity:1"
         id="ellipse15-7-5"
         cx="-509.30823"
         cy="675.46759"
         transform="scale(-1,1)"
         rx="0.64861846"
         ry="0.88553745" /><ellipse
         style="fill:#000000;fill-opacity:1;stroke:none;stroke-width:0.170698;stroke-dasharray:none;stroke-opacity:1"
         id="ellipse16-4-1"
         cx="-504.74579"
         cy="675.46759"
         transform="scale(-1,1)"
         rx="0.64861846"
         ry="0.88553745" /></g><g
       id="g1"
       transform="translate(-0.61519571)"><path
         style="fill:none;fill-opacity:1;stroke:#003e3e;stroke-width:0.691092;stroke-dasharray:none;stroke-opacity:1"
         d="m 433.57874,-85.692556 c -0.99662,-3.564007 -1.25946,-7.331476 -0.76738,-10.999343 0.28914,-2.155204 0.83386,-4.266491 1.27897,-6.394961 0.30135,-1.441 0.55732,-2.89148 0.7674,-4.34858"
         id="path17-1-4"
         inkscape:path-effect="#path-effect20-7-6-1"
         inkscape:original-d="m 433.57874,-85.692556 c -0.2558,-3.325381 -0.5116,-7.16236 -0.76738,-10.999343 -0.25579,-3.836981 0.85265,-4.263311 1.27897,-6.394961 0.42635,-2.13166 0.5116,-2.89906 0.7674,-4.34858"
         transform="matrix(0.29615191,0,0,0.23540987,387.10537,709.20702)" /><path
         style="fill:none;fill-opacity:1;stroke:#003e3e;stroke-width:0.691092;stroke-dasharray:none;stroke-opacity:1"
         d="m 433.57874,-85.692556 c -0.99662,-3.564007 -1.25946,-7.331476 -0.76738,-10.999343 0.28914,-2.155204 0.83386,-4.266491 1.27897,-6.394961 0.30135,-1.441 0.55732,-2.89148 0.7674,-4.34858"
         id="path19-1-9"
         inkscape:path-effect="#path-effect24-4-8-2"
         inkscape:original-d="m 433.57874,-85.692556 c -0.2558,-3.325381 -0.5116,-7.16236 -0.76738,-10.999343 -0.25579,-3.836981 0.85265,-4.263311 1.27897,-6.394961 0.42635,-2.13166 0.5116,-2.89906 0.7674,-4.34858"
         transform="matrix(-0.29615191,0,0,0.23540987,627.945,709.20702)" /></g><path
       style="fill:#164450;fill-opacity:1;stroke:none;stroke-width:0.0774475;stroke-opacity:1"
       d="m 515.19681,672.54107 -1.52912,1.15698 -6.0883,-1.08243 1.48415,-0.74638 3.98118,0.87758 z"
       id="path70-7-3" /><path
       style="fill:#164450;fill-opacity:1;stroke:none;stroke-width:0.0774475;stroke-opacity:1"
       d="m 498.92285,672.52285 1.52361,1.16424 6.09337,-1.05346 -1.48058,-0.75343 -3.98531,0.85864 z"
       id="path71-8-5" /><path
       style="fill:#d38d5f;stroke:#004343;stroke-width:0.1;stroke-dasharray:none;stroke-opacity:1"
       d="m 507.12638,681.79234 c -0.18306,3.7e-4 -0.35749,0.0775 -0.48159,0.21241 -0.11507,-0.0904 -0.25682,-0.13978 -0.403,-0.14036 -0.23376,3.7e-4 -0.44985,0.12518 -0.56726,0.32777 -0.0711,-0.0262 -0.14617,-0.0397 -0.22198,-0.0403 -0.23882,3.8e-4 -0.45857,0.13129 -0.57397,0.34083 -0.062,-0.0191 -0.12656,-0.029 -0.19144,-0.0291 -0.33629,0 -0.6129,0.25294 -0.65217,0.57938 -0.0195,-10e-4 -0.0389,-0.002 -0.0588,-0.002 -0.44247,-3e-5 -0.80119,0.34513 -0.80116,0.77051 0,0.0395 0.004,0.0782 0.009,0.1161 -0.24983,0.13036 -0.41936,0.38468 -0.41938,0.67718 0,0.11314 0.0255,0.22016 0.0711,0.31693 -0.19194,0.14071 -0.31587,0.36302 -0.31585,0.61297 0,0.1008 0.0204,0.19699 0.057,0.28522 0.009,-0.008 0.0181,-0.0166 0.0276,-0.0247 a 0.80108694,0.77013898 0 0 0 -0.27116,0.57677 0.80108694,0.77013898 0 0 0 0.2734,0.57862 c -0.025,-0.0212 -0.049,-0.0433 -0.0711,-0.0671 -0.18165,0.14119 -0.298,0.35709 -0.29797,0.59915 1e-5,0.24864 0.12264,0.46956 0.31287,0.61035 -0.0615,0.1091 -0.0965,0.23412 -0.0965,0.36697 10e-6,0.38589 0.29531,0.70524 0.68048,0.76116 -0.0802,0.11995 -0.12699,0.26267 -0.127,0.41588 -2e-5,0.32132 0.20489,0.59641 0.49573,0.71189 -0.009,0.0451 -0.0134,0.0917 -0.0134,0.13924 2e-5,0.4253 0.35876,0.77011 0.80116,0.77013 0.0655,2e-5 0.12902,-0.008 0.18995,-0.0224 0,10e-4 0,0.002 0,0.004 2e-5,0.42535 0.35873,0.77016 0.80116,0.77012 0.16172,0 0.31212,-0.0462 0.43801,-0.12542 0.13392,0.24555 0.40153,0.41328 0.70991,0.41325 0.2379,0 0.45146,-0.10002 0.59818,-0.25833 0.14348,0.13025 0.33682,0.21019 0.54973,0.21017 0.30837,-10e-6 0.57566,-0.16771 0.70954,-0.41324 0.12593,0.0793 0.27664,0.1258 0.43839,0.1258 0.4424,-2e-5 0.80076,-0.34484 0.80078,-0.77013 0,-0.0224 -10e-4,-0.0446 -0.004,-0.0664 0.0856,0.0299 0.1778,0.0464 0.27413,0.0464 0.4424,-3e-5 0.80114,-0.34484 0.80116,-0.77014 0,-0.11703 -0.0274,-0.22769 -0.076,-0.32701 0.36012,-0.0754 0.62979,-0.38341 0.62982,-0.75222 0,-0.0988 -0.0199,-0.19351 -0.0551,-0.28034 0.20663,-0.13929 0.3419,-0.36952 0.34191,-0.63053 2e-5,-0.21618 -0.0925,-0.41149 -0.24172,-0.55137 0.14919,-0.13986 0.24171,-0.33523 0.24172,-0.55137 1e-5,-0.15712 -0.0489,-0.303 -0.13296,-0.42483 0.16926,-0.1412 0.27672,-0.3496 0.27673,-0.58198 10e-6,-0.28426 -0.16058,-0.53216 -0.3989,-0.6656 0.0119,-0.0529 0.0186,-0.10787 0.0186,-0.16426 2e-5,-0.20294 -0.0819,-0.38767 -0.21527,-0.52524 0.0393,-0.091 0.0615,-0.1906 0.0615,-0.29529 0,-0.27129 -0.14638,-0.50976 -0.36688,-0.64694 3.7e-4,-0.009 0.001,-0.018 0.001,-0.0273 -3e-5,-0.35728 -0.2531,-0.65777 -0.59632,-0.74475 -0.0837,-0.22751 -0.28877,-0.39794 -0.54155,-0.42707 -0.0503,-0.32032 -0.32567,-0.55666 -0.64919,-0.55696 -0.0716,3.6e-4 -0.14272,0.0127 -0.21045,0.0362 -0.10451,-0.24025 -0.34113,-0.39563 -0.60262,-0.39572 -0.16011,1.7e-4 -0.31466,0.0588 -0.43468,0.16501 -0.12388,-0.16378 -0.31676,-0.26026 -0.5218,-0.26094 z"
       id="path146-6-0-3-8" /></g><style
     type="text/css"
     id="style1">
	.st0{fill:#000000;}
</style></svg>
