<?xml version="1.0" encoding="UTF-8" standalone="no"?>
<!-- Created with Inkscape (http://www.inkscape.org/) -->

<svg
   width="18.192881mm"
   height="22.18928mm"
   viewBox="0 0 18.192881 22.18928"
   version="1.1"
   id="svg1"
   xml:space="preserve"
   inkscape:version="1.3.2 (091e20e, 2023-11-25, custom)"
   sodipodi:docname="kid3.svg"
   xmlns:inkscape="http://www.inkscape.org/namespaces/inkscape"
   xmlns:sodipodi="http://sodipodi.sourceforge.net/DTD/sodipodi-0.dtd"
   xmlns="http://www.w3.org/2000/svg"
   xmlns:svg="http://www.w3.org/2000/svg"><sodipodi:namedview
     id="namedview1"
     pagecolor="#ffffff"
     bordercolor="#000000"
     borderopacity="0.25"
     inkscape:showpageshadow="2"
     inkscape:pageopacity="0.0"
     inkscape:pagecheckerboard="0"
     inkscape:deskcolor="#d1d1d1"
     inkscape:document-units="mm"
     inkscape:zoom="5.6568542"
     inkscape:cx="27.223611"
     inkscape:cy="39.509591"
     inkscape:window-width="1920"
     inkscape:window-height="1017"
     inkscape:window-x="-8"
     inkscape:window-y="-8"
     inkscape:window-maximized="1"
     inkscape:current-layer="layer1"
     showguides="false" /><defs
     id="defs1"><inkscape:path-effect
       effect="spiro"
       id="path-effect45-0-1-7"
       is_visible="true"
       lpeversion="1" /><inkscape:path-effect
       effect="spiro"
       id="path-effect47-1-4-9"
       is_visible="true"
       lpeversion="1" /></defs><g
     inkscape:label="Layer 1"
     inkscape:groupmode="layer"
     id="layer1"
     transform="translate(-521.62599,-671.38023)"><path
       id="path35-1-7"
       style="fill:#ff8080;stroke:#50200e;stroke-width:0.15;stroke-opacity:1;stroke-dasharray:none"
       d="M 524.74105 671.38333 C 524.56518 671.41654 524.39856 671.71665 524.08062 672.4489 C 522.70503 675.61701 520.57418 687.62856 522.22854 690.64107 C 523.86927 693.62877 527.39562 693.57022 530.68125 693.56906 C 530.7085 693.56905 530.7362 693.56906 530.76342 693.56906 C 534.04905 693.57022 537.57539 693.62878 539.21613 690.64107 C 540.87048 687.62856 538.73964 675.61701 537.36405 672.4489 C 536.42944 670.29639 536.80164 671.87629 534.39265 672.99925 A 8.2012396 7.9409771 0 0 0 530.72259 672.15693 A 8.2012396 7.9409771 0 0 0 527.067 673.00597 C 525.46529 672.264 525.08319 671.31873 524.74105 671.38333 z " /><path
       sodipodi:type="star"
       style="fill:#2b1100;fill-opacity:1;stroke:none;stroke-width:0.396875;stroke-dasharray:none;stroke-opacity:1"
       id="path38-5-4"
       inkscape:flatsided="true"
       sodipodi:sides="3"
       sodipodi:cx="510.93915"
       sodipodi:cy="190.64336"
       sodipodi:r1="8.0535097"
       sodipodi:r2="4.0267549"
       sodipodi:arg1="1.5707963"
       sodipodi:arg2="2.6179939"
       inkscape:rounded="0"
       inkscape:randomized="0"
       d="m 510.93915,198.69687 -6.97455,-12.08027 13.94909,0 z"
       inkscape:transform-center-x="5.9416826e-06"
       inkscape:transform-center-y="0.3037886"
       transform="matrix(0.1113776,0,0,0.15089047,473.6975,651.61085)" /><path
       id="path39-4-1"
       style="fill:#d4aa00;fill-opacity:1;stroke:none;stroke-width:0.0351964;stroke-dasharray:none;stroke-opacity:1"
       inkscape:transform-center-y="0.61356253"
       d="m 530.3247,678.94082 -0.50616,0.81459 2.04137,1.90569 z"
       sodipodi:nodetypes="cccc"
       inkscape:transform-center-x="-2.0542806e-06" /><path
       id="path40-9-9"
       style="fill:#ffcc00;fill-opacity:1;stroke:none;stroke-width:0.0351964;stroke-dasharray:none;stroke-opacity:1"
       inkscape:transform-center-y="0.61355523"
       d="m 530.32083,678.94269 1.53908,2.71841 -0.47497,-2.75196 z"
       sodipodi:nodetypes="cccc" /><g
       id="g2"
       transform="translate(-0.13596968)"><g
         id="g89-3-5-1-0-0"
         transform="matrix(-0.19647041,0,0,0.19647041,602.44811,661.0596)"
         style="fill:#d35f5f;stroke:#d35f5f"><path
           style="fill:#d35f5f;fill-opacity:1;stroke:#d35f5f;stroke-width:2.64583;stroke-opacity:1"
           d="m 379.96511,75.96833 5.42632,-6.873325"
           id="path86-6-7-5-4-5" /><path
           style="fill:#d35f5f;fill-opacity:1;stroke:#d35f5f;stroke-width:2.64583;stroke-opacity:1"
           d="m 384.13875,78.500607 3.61752,-4.341048"
           id="path87-6-7-8-3-9" /><path
           style="fill:#d35f5f;fill-opacity:1;stroke:#d35f5f;stroke-width:2.64583;stroke-opacity:1"
           d="m 386.6886,82.987734 3.25577,-4.341047"
           id="path88-9-8-2-5-2" /><path
           style="fill:#d35f5f;fill-opacity:1;stroke:#d35f5f;stroke-width:2.64583;stroke-opacity:1"
           d="m 376.81527,73.352042 2.53228,-4.702802"
           id="path89-3-5-9-5-6" /></g><circle
         style="fill:#ffffff;fill-opacity:1;stroke:none;stroke-width:0.15129;stroke-dasharray:none;stroke-opacity:1"
         id="circle40-7-8"
         cx="-528.42273"
         cy="677.2724"
         transform="scale(-1,1)"
         r="2.1944418" /><g
         id="g97-4-5-1-9-6"
         transform="matrix(0.19647041,0,0,0.19647041,459.26869,661.0596)"
         style="fill:#d35f5f;stroke:#d35f5f"><path
           style="fill:#d35f5f;fill-opacity:1;stroke:#d35f5f;stroke-width:2.64583;stroke-opacity:1"
           d="m 379.96511,75.96833 5.42632,-6.873325"
           id="path94-0-4-1-9-9" /><path
           style="fill:#d35f5f;fill-opacity:1;stroke:#d35f5f;stroke-width:2.64583;stroke-opacity:1"
           d="m 384.13875,78.500607 3.61752,-4.341048"
           id="path95-8-0-3-6-0" /><path
           style="fill:#d35f5f;fill-opacity:1;stroke:#d35f5f;stroke-width:2.64583;stroke-opacity:1"
           d="m 386.6886,82.987734 3.25577,-4.341047"
           id="path96-9-1-4-9-0" /><path
           style="fill:#d35f5f;fill-opacity:1;stroke:#d35f5f;stroke-width:2.64583;stroke-opacity:1"
           d="m 376.81527,73.352042 2.53228,-4.702802"
           id="path97-5-0-7-5-3" /></g><circle
         style="fill:#ffffff;fill-opacity:1;stroke:none;stroke-width:0.15129;stroke-dasharray:none;stroke-opacity:1"
         id="circle41-1-9"
         cx="533.27502"
         cy="677.2724"
         r="2.1944418" /></g><g
       id="g3"
       transform="translate(-0.10352794)"><ellipse
         style="fill:#000000;fill-opacity:1;stroke:none;stroke-width:0.150941;stroke-dasharray:none;stroke-opacity:1"
         id="ellipse41-9-6"
         cx="-532.84314"
         cy="677.56812"
         transform="scale(-1,1)"
         rx="0.5735473"
         ry="0.78304529" /><ellipse
         style="fill:#000000;fill-opacity:1;stroke:none;stroke-width:0.150941;stroke-dasharray:none;stroke-opacity:1"
         id="ellipse42-5-2"
         cx="-528.80878"
         cy="677.56812"
         transform="scale(-1,1)"
         rx="0.5735473"
         ry="0.78304529" /></g><g
       id="g1"
       transform="translate(-0.54402968)"><path
         style="fill:none;fill-opacity:1;stroke:#483737;stroke-width:0.691092;stroke-dasharray:none;stroke-opacity:1"
         d="m 433.57874,-85.692556 c -0.99662,-3.564007 -1.25946,-7.331476 -0.76738,-10.999343 0.28914,-2.155204 0.83386,-4.266491 1.27897,-6.394961 0.30135,-1.441 0.55732,-2.89148 0.7674,-4.34858"
         id="path43-9-3"
         inkscape:path-effect="#path-effect45-0-1-7"
         inkscape:original-d="m 433.57874,-85.692556 c -0.2558,-3.325381 -0.5116,-7.16236 -0.76738,-10.999343 -0.25579,-3.836981 0.85265,-4.263311 1.27897,-6.394961 0.42635,-2.13166 0.5116,-2.89906 0.7674,-4.34858"
         transform="matrix(0.26187528,0,0,0.20816352,424.78404,707.40251)" /><path
         style="fill:none;fill-opacity:1;stroke:#483737;stroke-width:0.691092;stroke-dasharray:none;stroke-opacity:1"
         d="m 433.57874,-85.692556 c -0.99662,-3.564007 -1.25946,-7.331476 -0.76738,-10.999343 0.28914,-2.155204 0.83386,-4.266491 1.27897,-6.394961 0.30135,-1.441 0.55732,-2.89148 0.7674,-4.34858"
         id="path44-5-5"
         inkscape:path-effect="#path-effect47-1-4-9"
         inkscape:original-d="m 433.57874,-85.692556 c -0.2558,-3.325381 -0.5116,-7.16236 -0.76738,-10.999343 -0.25579,-3.836981 0.85265,-4.263311 1.27897,-6.394961 0.42635,-2.13166 0.5116,-2.89906 0.7674,-4.34858"
         transform="matrix(-0.26187528,0,0,0.20816352,637.74888,707.40251)" /></g><path
       style="fill:#d38d5f;stroke:#50200e;stroke-width:0.1;stroke-dasharray:none;stroke-opacity:1"
       d="m 530.91591,682.88277 c -0.16331,3.3e-4 -0.31892,0.0692 -0.42964,0.18953 -0.10266,-0.0807 -0.22911,-0.12472 -0.35952,-0.12524 -0.20855,3.3e-4 -0.40133,0.11169 -0.50607,0.29246 -0.0635,-0.0233 -0.1304,-0.0354 -0.19803,-0.036 -0.21306,3.3e-4 -0.40911,0.11715 -0.51205,0.30412 -0.0554,-0.017 -0.11291,-0.0259 -0.1708,-0.026 -0.3,0 -0.54677,0.22569 -0.58181,0.51697 -0.0174,-10e-4 -0.0347,-0.002 -0.0525,-0.002 -0.39474,-2e-5 -0.71476,0.30796 -0.71474,0.68751 0,0.0353 0.004,0.0698 0.008,0.1036 -0.22289,0.11632 -0.37413,0.34324 -0.37415,0.60424 0,0.10095 0.0228,0.19645 0.0634,0.28279 -0.17123,0.12556 -0.28179,0.32392 -0.28178,0.54695 10e-6,0.0899 0.0182,0.17577 0.0508,0.25449 0.008,-0.008 0.0161,-0.0148 0.0246,-0.022 a 0.71466829,0.68718504 0 0 0 -0.24191,0.51464 0.71466829,0.68718504 0 0 0 0.2439,0.5163 c -0.0223,-0.0189 -0.0437,-0.0386 -0.0634,-0.0599 -0.16205,0.12599 -0.26584,0.31862 -0.26582,0.53462 10e-6,0.22185 0.10941,0.41898 0.27912,0.5446 -0.0549,0.0974 -0.0861,0.20891 -0.0861,0.32744 1e-5,0.34433 0.26345,0.62928 0.60707,0.67918 -0.0716,0.10703 -0.1133,0.23438 -0.1133,0.37108 -2e-5,0.28671 0.18278,0.53217 0.44225,0.63521 -0.008,0.0403 -0.012,0.0818 -0.012,0.12425 2e-5,0.37948 0.32007,0.68716 0.71474,0.68718 0.0584,10e-6 0.1151,-0.007 0.16946,-0.02 0,10e-4 0,0.002 0,0.004 2e-5,0.37953 0.32003,0.6872 0.71473,0.68717 0.14427,0 0.27845,-0.0412 0.39076,-0.11191 0.11948,0.21909 0.35822,0.36876 0.63333,0.36874 0.21223,-10e-6 0.40276,-0.0893 0.53365,-0.23051 0.128,0.11622 0.30049,0.18755 0.49043,0.18753 0.2751,0 0.51356,-0.14964 0.633,-0.36873 0.11234,0.0707 0.24679,0.11225 0.39109,0.11225 0.39467,-10e-6 0.71438,-0.30769 0.7144,-0.68718 0,-0.0199 -10e-4,-0.0398 -0.004,-0.0593 0.0763,0.0267 0.15862,0.0414 0.24456,0.0414 0.39467,-3e-5 0.71471,-0.3077 0.71473,-0.68719 0,-0.10442 -0.0245,-0.20316 -0.0678,-0.29178 0.32128,-0.0673 0.56185,-0.34211 0.56189,-0.6712 0,-0.0882 -0.0178,-0.17267 -0.0492,-0.25015 0.18434,-0.12428 0.30502,-0.32971 0.30503,-0.56261 10e-6,-0.19289 -0.0825,-0.36717 -0.21565,-0.49198 0.1331,-0.1248 0.21564,-0.29912 0.21565,-0.49198 0,-0.1402 -0.0436,-0.27036 -0.11862,-0.37907 0.151,-0.12599 0.24687,-0.31195 0.24687,-0.5193 2e-5,-0.25363 -0.14325,-0.47483 -0.35586,-0.5939 0.0106,-0.0472 0.0166,-0.0963 0.0166,-0.14657 1e-5,-0.18107 -0.073,-0.34591 -0.19205,-0.46866 0.0351,-0.0812 0.0548,-0.17007 0.0548,-0.26348 0,-0.24207 -0.13059,-0.45486 -0.3273,-0.57726 3.3e-4,-0.008 10e-4,-0.0161 10e-4,-0.0244 -3e-5,-0.31879 -0.22579,-0.58692 -0.53199,-0.66453 -0.0746,-0.20301 -0.25762,-0.35508 -0.48313,-0.38107 -0.0448,-0.28582 -0.29054,-0.4967 -0.57916,-0.49697 -0.0639,3.2e-4 -0.12733,0.0113 -0.18774,0.0323 -0.0933,-0.21437 -0.30433,-0.35302 -0.53762,-0.35309 -0.14283,1.4e-4 -0.28072,0.0525 -0.38778,0.14723 -0.11052,-0.14614 -0.2826,-0.23223 -0.46552,-0.23283 z"
       id="path146-6-0-3-6" /></g><style
     type="text/css"
     id="style1">
	.st0{fill:#000000;}
</style></svg>
